SplineFontDB: 3.2
FontName: Reijima-ThinItalic
FullName: Reijima Thin Italic
FamilyName: Reijima Thin
Weight: Thin
Copyright: Copyright (c) 2019 by Coji Morishita. All rights reserved.
Version: 1.000
ItalicAngle: -9
UnderlinePosition: -100
UnderlineWidth: 50
Ascent: 860
Descent: 140
InvalidEm: 0
sfntRevision: 0x00010000
LayerCount: 2
Layer: 0 1 "Back" 1
Layer: 1 1 "Fore" 0
XUID: [1021 531 -1996577725 13722277]
StyleMap: 0x0001
FSType: 8
OS2Version: 4
OS2_WeightWidthSlopeOnly: 0
OS2_UseTypoMetrics: 1
CreationTime: 1575364793
ModificationTime: 1707277238
PfmFamily: 81
TTFWeight: 100
TTFWidth: 5
LineGap: 0
VLineGap: 1000
Panose: 0 0 2 0 0 0 0 0 0 0
OS2TypoAscent: 960
OS2TypoAOffset: 0
OS2TypoDescent: -230
OS2TypoDOffset: 0
OS2TypoLinegap: 200
OS2WinAscent: 1060
OS2WinAOffset: 0
OS2WinDescent: 330
OS2WinDOffset: 0
HheadAscent: 1060
HheadAOffset: 0
HheadDescent: -330
HheadDOffset: 0
OS2SubXSize: 650
OS2SubYSize: 600
OS2SubXOff: 0
OS2SubYOff: 75
OS2SupXSize: 650
OS2SupYSize: 600
OS2SupXOff: 0
OS2SupYOff: 350
OS2StrikeYSize: 50
OS2StrikeYPos: 312
OS2CapHeight: 730
OS2XHeight: 520
OS2Vendor: 'M+  '
OS2CodePages: 20020193.00000000
OS2UnicodeRanges: 20000007.00060000.00000000.00000000
Lookup: 1 0 0 "'aalt' Access All Alternates in Latin lookup 0" { "'aalt' Access All Alternates in Latin lookup 0 subtable"  } ['aalt' ('DFLT' <'dflt' > 'latn' <'AZE ' 'CAT ' 'CRT ' 'KAZ ' 'MOL ' 'ROM ' 'TAT ' 'TRK ' 'dflt' > ) ]
Lookup: 3 0 0 "'aalt' Access All Alternates in Latin lookup 1" { "'aalt' Access All Alternates in Latin lookup 1 subtable"  } ['aalt' ('DFLT' <'dflt' > 'latn' <'AZE ' 'CAT ' 'CRT ' 'KAZ ' 'MOL ' 'ROM ' 'TAT ' 'TRK ' 'dflt' > ) ]
Lookup: 6 0 0 "'ccmp' Glyph Composition/Decomposition in Latin lookup 2" { "'ccmp' Glyph Composition/Decomposition in Latin lookup 2 contextual 0"  "'ccmp' Glyph Composition/Decomposition in Latin lookup 2 contextual 1"  } ['ccmp' ('DFLT' <'dflt' > 'latn' <'AZE ' 'CAT ' 'CRT ' 'KAZ ' 'MOL ' 'ROM ' 'TAT ' 'TRK ' 'dflt' > ) ]

StartChar: .notdef
Encoding: 65536 -1 0
Width: 477
Flags: W
LayerCount: 2
Fore
SplineSet
373 -140 m 1,0,-1
 62 -140 l 1,1,-1
 221 860 l 1,2,-1
 532 860 l 1,3,-1
 373 -140 l 1,0,-1
284 793 m 1,4,-1
 279 760 l 1,5,-1
 342 760 l 1,6,-1
 336 723 l 1,7,-1
 272 723 l 1,8,-1
 266 690 l 1,9,-1
 429 690 l 1,10,-1
 434 723 l 1,11,-1
 370 723 l 1,12,-1
 376 760 l 1,13,-1
 440 760 l 1,14,-1
 445 793 l 1,15,-1
 284 793 l 1,4,-1
262 664 m 1,16,-1
 246 560 l 1,17,-1
 409 560 l 1,18,-1
 414 594 l 1,19,-1
 349 594 l 1,20,-1
 360 664 l 1,21,-1
 262 664 l 1,16,-1
316 594 m 1,22,-1
 284 594 l 1,23,-1
 289 630 l 1,24,-1
 322 630 l 1,25,-1
 316 594 l 1,22,-1
242 533 m 1,26,-1
 236 500 l 1,27,-1
 301 500 l 1,28,-1
 295 463 l 1,29,-1
 230 463 l 1,30,-1
 225 430 l 1,31,-1
 323 430 l 1,32,-1
 334 500 l 1,33,-1
 399 500 l 1,34,-1
 404 533 l 1,35,-1
 242 533 l 1,26,-1
362 473 m 1,36,-1
 352 407 l 1,37,-1
 222 407 l 1,38,-1
 216 373 l 1,39,-1
 379 373 l 1,40,-1
 395 473 l 1,41,-1
 362 473 l 1,36,-1
277 351 m 1,42,-1
 269 295 l 1,43,-1
 302 295 l 1,44,-1
 306 318 l 1,45,-1
 338 318 l 1,46,-1
 330 271 l 1,47,-1
 232 271 l 1,48,-1
 245 351 l 1,49,-1
 213 351 l 1,50,-1
 195 238 l 1,51,-1
 358 238 l 1,52,-1
 375 351 l 1,53,-1
 277 351 l 1,42,-1
185 178 m 1,54,-1
 167 65 l 1,55,-1
 330 65 l 1,56,-1
 348 178 l 1,57,-1
 185 178 l 1,54,-1
303 98 m 1,58,-1
 205 98 l 1,59,-1
 212 145 l 1,60,-1
 310 145 l 1,61,-1
 303 98 l 1,58,-1
164 42 m 1,62,-1
 159 9 l 1,63,-1
 227 9 l 1,64,-1
 151 -38 l 1,65,-1
 146 -71 l 1,66,-1
 309 -71 l 1,67,-1
 314 -38 l 1,68,-1
 214 -38 l 1,69,-1
 290 9 l 1,70,-1
 321 9 l 1,71,-1
 326 42 l 1,72,-1
 164 42 l 1,62,-1
EndSplineSet
EndChar

StartChar: A
Encoding: 65 65 2
Width: 632
GlyphClass: 2
Flags: W
AnchorPoint: "Anchor-6" 324 730 basechar 0
AnchorPoint: "Anchor-5" 629 0 basechar 0
AnchorPoint: "Anchor-4" 324 0 basechar 0
LayerCount: 2
Fore
SplineSet
594 0 m 1,0,-1
 539 237 l 1,1,-1
 169 237 l 1,2,-1
 39 0 l 1,3,-1
 17 0 l 1,4,-1
 417 730 l 1,5,-1
 447 730 l 1,6,-1
 615 0 l 1,7,-1
 594 0 l 1,0,-1
180 257 m 1,8,-1
 534 257 l 1,9,-1
 430 711 l 1,10,-1
 428 711 l 1,11,-1
 180 257 l 1,8,-1
EndSplineSet
Substitution2: "Single Substitution lookup 21 subtable" ordfeminine
Substitution2: "'aalt' Access All Alternates in Latin lookup 0 subtable" ordfeminine
EndChar

StartChar: Aogonek
Encoding: 260 260 23
Width: 638
GlyphClass: 2
Flags: W
AnchorPoint: "Anchor-6" 324 730 basechar 0
AnchorPoint: "Anchor-5" 629 0 basechar 0
AnchorPoint: "Anchor-4" 324 0 basechar 0
LayerCount: 2
Fore
SplineSet
669 -199 m 1,0,1
 622 -220 622 -220 567 -220 c 0,2,3
 494 -220 494 -220 471.5 -194 c 128,-1,4
 449 -168 449 -168 455 -135 c 0,5,6
 461 -97 461 -97 496.5 -60 c 128,-1,7
 532 -23 532 -23 592 8 c 1,8,-1
 539 237 l 1,9,-1
 169 237 l 1,10,-1
 39 0 l 1,11,-1
 17 0 l 1,12,-1
 417 730 l 1,13,-1
 447 730 l 1,14,-1
 615 0 l 1,15,16
 552 -32 552 -32 516 -66.5 c 128,-1,17
 480 -101 480 -101 474 -135 c 0,18,19
 468 -172 468 -172 497 -186 c 128,-1,20
 526 -200 526 -200 570 -200 c 0,21,22
 621 -200 621 -200 664 -181 c 1,23,-1
 669 -199 l 1,0,1
180 257 m 1,24,-1
 534 257 l 1,25,-1
 430 711 l 1,26,-1
 428 711 l 1,27,-1
 180 257 l 1,24,-1
EndSplineSet
EndChar

StartChar: Aring
Encoding: 197 197 24
Width: 632
GlyphClass: 2
Flags: W
AnchorPoint: "Anchor-6" 324 905 basechar 0
AnchorPoint: "Anchor-5" 629 0 basechar 0
AnchorPoint: "Anchor-4" 324 0 basechar 0
LayerCount: 2
Fore
SplineSet
539 237 m 1,0,-1
 169 237 l 1,1,-1
 39 0 l 1,2,-1
 17 0 l 1,3,-1
 413 721 l 1,4,5
 369 728 369 728 344.5 763 c 128,-1,6
 320 798 320 798 328 845 c 0,7,8
 336 897 336 897 377.5 933.5 c 128,-1,9
 419 970 419 970 470 970 c 256,10,11
 521 970 521 970 551 933.5 c 128,-1,12
 581 897 581 897 573 845 c 0,13,14
 566 798 566 798 530 763 c 128,-1,15
 494 728 494 728 448 721 c 1,16,-1
 615 0 l 1,17,-1
 594 0 l 1,18,-1
 539 237 l 1,0,-1
365.5 771 m 128,-1,20
 391 740 391 740 433 740 c 0,21,22
 476 740 476 740 511 771 c 128,-1,23
 546 802 546 802 553 845 c 0,24,25
 560 889 560 889 535 919.5 c 128,-1,26
 510 950 510 950 467 950 c 0,27,28
 425 950 425 950 389.5 919.5 c 128,-1,29
 354 889 354 889 347 845 c 0,30,19
 340 802 340 802 365.5 771 c 128,-1,20
180 257 m 1,31,-1
 534 257 l 1,32,-1
 430 711 l 1,33,-1
 428 711 l 1,34,-1
 180 257 l 1,31,-1
EndSplineSet
EndChar

StartChar: Aringacute
Encoding: 506 506 25
Width: 632
GlyphClass: 2
Flags: W
AnchorPoint: "Anchor-6" 324 905 basechar 0
AnchorPoint: "Anchor-5" 629 0 basechar 0
AnchorPoint: "Anchor-4" 324 0 basechar 0
LayerCount: 2
Fore
SplineSet
539 237 m 1,0,-1
 169 237 l 1,1,-1
 39 0 l 1,2,-1
 17 0 l 1,3,-1
 413 721 l 1,4,5
 369 728 369 728 344.5 763 c 128,-1,6
 320 798 320 798 328 845 c 0,7,8
 333 877 333 877 352 904 c 128,-1,9
 371 931 371 931 398 949 c 1,10,-1
 547 1155 l 1,11,-1
 570 1155 l 1,12,-1
 432 964 l 1,13,14
 451 970 451 970 470 970 c 0,15,16
 521 970 521 970 551 933.5 c 128,-1,17
 581 897 581 897 573 845 c 0,18,19
 566 798 566 798 530 763 c 128,-1,20
 494 728 494 728 448 721 c 1,21,-1
 615 0 l 1,22,-1
 594 0 l 1,23,-1
 539 237 l 1,0,-1
365.5 771 m 128,-1,25
 391 740 391 740 433 740 c 0,26,27
 476 740 476 740 511 771 c 128,-1,28
 546 802 546 802 553 845 c 0,29,30
 560 889 560 889 535 919.5 c 128,-1,31
 510 950 510 950 467 950 c 0,32,33
 425 950 425 950 389.5 919.5 c 128,-1,34
 354 889 354 889 347 845 c 0,35,24
 340 802 340 802 365.5 771 c 128,-1,25
180 257 m 1,36,-1
 534 257 l 1,37,-1
 430 711 l 1,38,-1
 428 711 l 1,39,-1
 180 257 l 1,36,-1
EndSplineSet
EndChar

StartChar: AE
Encoding: 198 198 27
Width: 781
GlyphClass: 2
Flags: W
AnchorPoint: "Anchor-6" 440 730 basechar 0
AnchorPoint: "Anchor-4" 440 0 basechar 0
LayerCount: 2
Fore
SplineSet
829 710 m 1,0,-1
 535 710 l 1,1,-1
 486 400 l 1,2,-1
 761 400 l 1,3,-1
 758 380 l 1,4,-1
 483 380 l 1,5,-1
 426 20 l 1,6,-1
 720 20 l 1,7,-1
 717 0 l 1,8,-1
 403 0 l 1,9,-1
 441 237 l 1,10,-1
 192 237 l 1,11,-1
 40 0 l 1,12,-1
 17 0 l 1,13,-1
 488 730 l 1,14,-1
 833 730 l 1,15,-1
 829 710 l 1,0,-1
205 257 m 1,16,-1
 444 257 l 1,17,-1
 516 710 l 1,18,-1
 496 710 l 1,19,-1
 205 257 l 1,16,-1
EndSplineSet
EndChar

StartChar: B
Encoding: 66 66 29
Width: 591
Flags: W
LayerCount: 2
Fore
SplineSet
564.5 327.5 m 128,-1,1
 601 281 601 281 589 200 c 0,2,3
 573 97 573 97 493 48.5 c 128,-1,4
 413 0 413 0 263 0 c 2,5,-1
 86 0 l 1,6,-1
 202 730 l 1,7,-1
 378 730 l 2,8,9
 633 730 633 730 606 555 c 0,10,11
 585 425 585 425 439 392 c 1,12,-1
 438 390 l 1,13,0
 528 374 528 374 564.5 327.5 c 128,-1,1
219 710 m 1,14,-1
 169 400 l 1,15,-1
 326 400 l 2,16,17
 446 400 446 400 509.5 438 c 128,-1,18
 573 476 573 476 586 555 c 256,19,20
 599 634 599 634 547 672 c 128,-1,21
 495 710 495 710 375 710 c 2,22,-1
 219 710 l 1,14,-1
481 63.5 m 128,-1,24
 554 107 554 107 569 200 c 256,25,26
 584 293 584 293 524.5 336.5 c 128,-1,27
 465 380 465 380 323 380 c 2,28,-1
 166 380 l 1,29,-1
 109 20 l 1,30,-1
 266 20 l 2,31,23
 408 20 408 20 481 63.5 c 128,-1,24
EndSplineSet
EndChar

StartChar: C
Encoding: 67 67 30
Width: 663
GlyphClass: 2
Flags: W
AnchorPoint: "Anchor-6" 380 730 basechar 0
AnchorPoint: "Anchor-4" 380 0 basechar 0
LayerCount: 2
Fore
SplineSet
213.5 36.5 m 128,-1,1
 142 83 142 83 112.5 168 c 128,-1,2
 83 253 83 253 101 365 c 256,3,4
 119 477 119 477 175 562 c 128,-1,5
 231 647 231 647 317.5 693.5 c 128,-1,6
 404 740 404 740 509 740 c 0,7,8
 633 740 633 740 718 675 c 1,9,-1
 705 658 l 1,10,11
 625 720 625 720 506 720 c 0,12,13
 407 720 407 720 325.5 676.5 c 128,-1,14
 244 633 244 633 190.5 552.5 c 128,-1,15
 137 472 137 472 120 365 c 256,16,17
 103 258 103 258 130.5 177.5 c 128,-1,18
 158 97 158 97 225.5 53.5 c 128,-1,19
 293 10 293 10 393 10 c 0,20,21
 512 10 512 10 612 72 c 1,22,-1
 620 55 l 1,23,24
 515 -10 515 -10 390 -10 c 0,25,0
 285 -10 285 -10 213.5 36.5 c 128,-1,1
EndSplineSet
EndChar

StartChar: Ccedilla
Encoding: 199 199 33
Width: 663
GlyphClass: 2
Flags: W
AnchorPoint: "Anchor-6" 380 730 basechar 0
AnchorPoint: "Anchor-4" 380 0 basechar 0
LayerCount: 2
Fore
SplineSet
620 55 m 1,0,1
 515 -10 515 -10 392 -10 c 1,2,3
 470 -70 470 -70 459 -136 c 0,4,5
 454 -169 454 -169 423.5 -195 c 128,-1,6
 393 -221 393 -221 320 -221 c 0,7,8
 265 -221 265 -221 225 -200 c 1,9,-1
 235 -182 l 1,10,11
 272 -201 272 -201 324 -201 c 0,12,13
 368 -201 368 -201 401 -187 c 128,-1,14
 434 -173 434 -173 440 -136 c 0,15,16
 445 -104 445 -104 422.5 -71.5 c 128,-1,17
 400 -39 400 -39 353 -8 c 1,18,19
 260 0 260 0 197 48 c 128,-1,20
 134 96 134 96 109 178 c 128,-1,21
 84 260 84 260 101 365 c 0,22,23
 119 477 119 477 175 562 c 128,-1,24
 231 647 231 647 317.5 693.5 c 128,-1,25
 404 740 404 740 509 740 c 0,26,27
 633 740 633 740 718 675 c 1,28,-1
 705 658 l 1,29,30
 625 720 625 720 506 720 c 0,31,32
 407 720 407 720 325.5 676.5 c 128,-1,33
 244 633 244 633 190.5 552.5 c 128,-1,34
 137 472 137 472 120 365 c 256,35,36
 103 258 103 258 130.5 177.5 c 128,-1,37
 158 97 158 97 225.5 53.5 c 128,-1,38
 293 10 293 10 393 10 c 0,39,40
 512 10 512 10 612 72 c 1,41,-1
 620 55 l 1,0,1
EndSplineSet
EndChar

StartChar: D
Encoding: 68 68 36
Width: 648
GlyphClass: 2
Flags: W
AnchorPoint: "Anchor-6" 336 730 basechar 0
AnchorPoint: "Anchor-4" 336 0 basechar 0
LayerCount: 2
Fore
SplineSet
359 730 m 2,0,1
 537 730 537 730 614.5 637 c 128,-1,2
 692 544 692 544 664 365 c 256,3,4
 636 186 636 186 529 93 c 128,-1,5
 422 0 422 0 243 0 c 2,6,-1
 86 0 l 1,7,-1
 202 730 l 1,8,-1
 359 730 l 2,0,1
517 107 m 128,-1,10
 617 194 617 194 644 365 c 256,11,12
 671 536 671 536 598.5 623 c 128,-1,13
 526 710 526 710 356 710 c 2,14,-1
 219 710 l 1,15,-1
 109 20 l 1,16,-1
 246 20 l 2,17,9
 417 20 417 20 517 107 c 128,-1,10
EndSplineSet
EndChar

StartChar: Eth
Encoding: 208 208 38
Width: 698
GlyphClass: 2
Flags: W
CounterMasks: 1 e0
AnchorPoint: "Anchor-6" 382 730 basechar 0
AnchorPoint: "Anchor-4" 382 0 basechar 0
LayerCount: 2
Fore
SplineSet
664.5 637 m 128,-1,1
 742 544 742 544 713 365 c 256,2,3
 685 186 685 186 578 93 c 128,-1,4
 471 0 471 0 293 0 c 2,5,-1
 136 0 l 1,6,-1
 192 355 l 1,7,-1
 84 355 l 1,8,-1
 88 375 l 1,9,-1
 195 375 l 1,10,-1
 252 730 l 1,11,-1
 408 730 l 2,12,0
 587 730 587 730 664.5 637 c 128,-1,1
566.5 107 m 128,-1,14
 667 194 667 194 694 365 c 256,15,16
 721 536 721 536 648.5 623 c 128,-1,17
 576 710 576 710 405 710 c 2,18,-1
 268 710 l 1,19,-1
 215 375 l 1,20,-1
 489 375 l 1,21,-1
 486 355 l 1,22,-1
 212 355 l 1,23,-1
 159 20 l 1,24,-1
 296 20 l 2,25,13
 466 20 466 20 566.5 107 c 128,-1,14
EndSplineSet
EndChar

StartChar: E
Encoding: 69 69 42
Width: 562
GlyphClass: 2
Flags: W
AnchorPoint: "Anchor-6" 310 730 basechar 0
AnchorPoint: "Anchor-5" 515 0 basechar 0
AnchorPoint: "Anchor-4" 310 0 basechar 0
LayerCount: 2
Fore
SplineSet
202 730 m 1,0,-1
 614 730 l 1,1,-1
 611 710 l 1,2,-1
 219 710 l 1,3,-1
 169 400 l 1,4,-1
 542 400 l 1,5,-1
 539 380 l 1,6,-1
 166 380 l 1,7,-1
 109 20 l 1,8,-1
 501 20 l 1,9,-1
 498 0 l 1,10,-1
 86 0 l 1,11,-1
 202 730 l 1,0,-1
EndSplineSet
EndChar

StartChar: Eogonek
Encoding: 280 280 60
Width: 568
GlyphClass: 2
Flags: W
AnchorPoint: "Anchor-6" 310 730 basechar 0
AnchorPoint: "Anchor-5" 515 0 basechar 0
AnchorPoint: "Anchor-4" 310 0 basechar 0
LayerCount: 2
Fore
SplineSet
552 -199 m 1,0,1
 505 -220 505 -220 449 -220 c 0,2,3
 376 -220 376 -220 354 -194 c 128,-1,4
 332 -168 332 -168 338 -135 c 0,5,6
 344 -100 344 -100 375 -65 c 128,-1,7
 406 -30 406 -30 460 0 c 1,8,-1
 86 0 l 1,9,-1
 202 730 l 1,10,-1
 614 730 l 1,11,-1
 611 710 l 1,12,-1
 219 710 l 1,13,-1
 169 400 l 1,14,-1
 542 400 l 1,15,-1
 539 380 l 1,16,-1
 166 380 l 1,17,-1
 109 20 l 1,18,-1
 501 20 l 1,19,-1
 498 0 l 1,20,21
 435 -32 435 -32 398.5 -66.5 c 128,-1,22
 362 -101 362 -101 357 -135 c 0,23,24
 351 -172 351 -172 380 -186 c 128,-1,25
 409 -200 409 -200 453 -200 c 0,26,27
 504 -200 504 -200 547 -181 c 1,28,-1
 552 -199 l 1,0,1
EndSplineSet
EndChar

StartChar: F
Encoding: 70 70 62
Width: 545
Flags: W
LayerCount: 2
Fore
SplineSet
202 730 m 1,0,-1
 614 730 l 1,1,-1
 611 710 l 1,2,-1
 219 710 l 1,3,-1
 169 400 l 1,4,-1
 542 400 l 1,5,-1
 539 380 l 1,6,-1
 166 380 l 1,7,-1
 106 0 l 1,8,-1
 86 0 l 1,9,-1
 202 730 l 1,0,-1
EndSplineSet
EndChar

StartChar: G
Encoding: 71 71 63
Width: 753
GlyphClass: 2
Flags: W
AnchorPoint: "Anchor-6" 410 730 basechar 0
AnchorPoint: "Anchor-4" 410 0 basechar 0
LayerCount: 2
Fore
SplineSet
743 400 m 1,0,-1
 687 44 l 1,1,2
 632 19 632 19 558.5 4.5 c 128,-1,3
 485 -10 485 -10 418 -10 c 0,4,5
 301 -10 301 -10 223.5 35 c 128,-1,6
 146 80 146 80 114 164.5 c 128,-1,7
 82 249 82 249 101 365 c 256,8,9
 119 481 119 481 177.5 565.5 c 128,-1,10
 236 650 236 650 328 695 c 128,-1,11
 420 740 420 740 536 740 c 0,12,13
 670 740 670 740 761 680 c 1,14,-1
 749 663 l 1,15,16
 662 720 662 720 533 720 c 0,17,18
 422 720 422 720 335 678 c 128,-1,19
 248 636 248 636 193 556 c 128,-1,20
 138 476 138 476 120 365 c 256,21,22
 102 254 102 254 132.5 174 c 128,-1,23
 163 94 163 94 236.5 52 c 128,-1,24
 310 10 310 10 421 10 c 0,25,26
 483 10 483 10 550 22.5 c 128,-1,27
 617 35 617 35 669 57 c 1,28,-1
 720 380 l 1,29,-1
 406 380 l 1,30,-1
 409 400 l 1,31,-1
 743 400 l 1,0,-1
EndSplineSet
EndChar

StartChar: H
Encoding: 72 72 69
Width: 672
GlyphClass: 2
Flags: W
AnchorPoint: "Anchor-6" 350 730 basechar 0
AnchorPoint: "Anchor-4" 350 0 basechar 0
LayerCount: 2
Fore
SplineSet
682 730 m 1,0,-1
 702 730 l 1,1,-1
 586 0 l 1,2,-1
 567 0 l 1,3,-1
 627 380 l 1,4,-1
 166 380 l 1,5,-1
 106 0 l 1,6,-1
 86 0 l 1,7,-1
 202 730 l 1,8,-1
 222 730 l 1,9,-1
 169 400 l 1,10,-1
 630 400 l 1,11,-1
 682 730 l 1,0,-1
EndSplineSet
EndChar

StartChar: Hbar
Encoding: 294 294 70
Width: 740
GlyphClass: 2
Flags: W
AnchorPoint: "Anchor-6" 380 730 basechar 0
AnchorPoint: "Anchor-4" 380 0 basechar 0
LayerCount: 2
Fore
SplineSet
809 606 m 1,0,-1
 806 586 l 1,1,-1
 713 586 l 1,2,-1
 620 0 l 1,3,-1
 601 0 l 1,4,-1
 661 380 l 1,5,-1
 200 380 l 1,6,-1
 140 0 l 1,7,-1
 120 0 l 1,8,-1
 213 586 l 1,9,-1
 120 586 l 1,10,-1
 123 606 l 1,11,-1
 216 606 l 1,12,-1
 236 730 l 1,13,-1
 256 730 l 1,14,-1
 236 606 l 1,15,-1
 697 606 l 1,16,-1
 716 730 l 1,17,-1
 736 730 l 1,18,-1
 716 606 l 1,19,-1
 809 606 l 1,0,-1
664 400 m 1,20,-1
 693 586 l 1,21,-1
 233 586 l 1,22,-1
 203 400 l 1,23,-1
 664 400 l 1,20,-1
EndSplineSet
EndChar

StartChar: I
Encoding: 73 73 72
Width: 210
GlyphClass: 2
Flags: W
AnchorPoint: "Anchor-6" 115 730 basechar 0
AnchorPoint: "Anchor-5" 125 0 basechar 0
AnchorPoint: "Anchor-4" 115 0 basechar 0
LayerCount: 2
Fore
SplineSet
211 730 m 1,0,-1
 231 730 l 1,1,-1
 115 0 l 1,2,-1
 96 0 l 1,3,-1
 211 730 l 1,0,-1
EndSplineSet
EndChar

StartChar: Iogonek
Encoding: 302 302 84
Width: 225
GlyphClass: 2
Flags: W
AnchorPoint: "Anchor-6" 115 730 basechar 0
AnchorPoint: "Anchor-5" 125 0 basechar 0
AnchorPoint: "Anchor-4" 115 0 basechar 0
LayerCount: 2
Fore
SplineSet
177 -199 m 1,0,1
 130 -220 130 -220 75 -220 c 0,2,3
 2 -220 2 -220 -20 -194 c 128,-1,4
 -42 -168 -42 -168 -37 -135 c 0,5,6
 -31 -96 -31 -96 6.5 -58.5 c 128,-1,7
 44 -21 44 -21 106 11 c 1,8,-1
 220 730 l 1,9,-1
 239 730 l 1,10,-1
 124 0 l 1,11,12
 61 -32 61 -32 24.5 -66.5 c 128,-1,13
 -12 -101 -12 -101 -17 -135 c 0,14,15
 -23 -172 -23 -172 5.5 -186 c 128,-1,16
 34 -200 34 -200 78 -200 c 0,17,18
 129 -200 129 -200 172 -181 c 1,19,-1
 177 -199 l 1,0,1
EndSplineSet
EndChar

StartChar: J
Encoding: 74 74 86
Width: 531
GlyphClass: 2
Flags: W
AnchorPoint: "Anchor-6" 275 730 basechar 0
AnchorPoint: "Anchor-4" 275 0 basechar 0
LayerCount: 2
Fore
SplineSet
106.5 6 m 128,-1,1
 55 22 55 22 21 50 c 1,2,-1
 35 66 l 1,3,4
 68 40 68 40 116.5 25 c 128,-1,5
 165 10 165 10 219 10 c 0,6,7
 330 10 330 10 393.5 76 c 128,-1,8
 457 142 457 142 478 280 c 2,9,-1
 550 730 l 1,10,-1
 569 730 l 1,11,-1
 498 280 l 2,12,13
 475 134 475 134 405.5 62 c 128,-1,14
 336 -10 336 -10 216 -10 c 0,15,0
 158 -10 158 -10 106.5 6 c 128,-1,1
EndSplineSet
EndChar

StartChar: K
Encoding: 75 75 88
Width: 583
GlyphClass: 2
Flags: W
AnchorPoint: "Anchor-6" 280 730 basechar 0
AnchorPoint: "Anchor-4" 280 0 basechar 0
LayerCount: 2
Fore
SplineSet
202 730 m 1,0,-1
 222 730 l 1,1,-1
 170 404 l 1,2,-1
 172 404 l 1,3,-1
 630 730 l 1,4,-1
 663 730 l 1,5,-1
 183 390 l 1,6,-1
 557 0 l 1,7,-1
 527 0 l 1,8,-1
 168 376 l 1,9,-1
 166 376 l 1,10,-1
 106 0 l 1,11,-1
 86 0 l 1,12,-1
 202 730 l 1,0,-1
EndSplineSet
EndChar

StartChar: L
Encoding: 76 76 90
Width: 561
GlyphClass: 2
Flags: W
AnchorPoint: "Anchor-7" 563 730 basechar 0
AnchorPoint: "Anchor-6" 292 730 basechar 0
AnchorPoint: "Anchor-4" 292 0 basechar 0
LayerCount: 2
Fore
SplineSet
202 730 m 1,0,-1
 222 730 l 1,1,-1
 109 20 l 1,2,-1
 521 20 l 1,3,-1
 518 0 l 1,4,-1
 86 0 l 1,5,-1
 202 730 l 1,0,-1
EndSplineSet
EndChar

StartChar: Lslash
Encoding: 321 321 97
Width: 647
GlyphClass: 2
Flags: W
AnchorPoint: "Anchor-7" 645 730 basechar 0
AnchorPoint: "Anchor-6" 374 730 basechar 0
AnchorPoint: "Anchor-4" 374 0 basechar 0
LayerCount: 2
Fore
SplineSet
195 20 m 1,0,-1
 607 20 l 1,1,-1
 603 0 l 1,2,-1
 172 0 l 1,3,-1
 228 350 l 1,4,-1
 69 281 l 1,5,-1
 64 299 l 1,6,-1
 231 371 l 1,7,-1
 288 730 l 1,8,-1
 307 730 l 1,9,-1
 252 380 l 1,10,-1
 411 449 l 1,11,-1
 416 431 l 1,12,-1
 249 359 l 1,13,-1
 195 20 l 1,0,-1
EndSplineSet
EndChar

StartChar: M
Encoding: 77 77 98
Width: 819
Flags: W
LayerCount: 2
Fore
SplineSet
202 730 m 1,0,-1
 232 730 l 1,1,-1
 436 174 l 1,2,-1
 438 174 l 1,3,-1
 818 730 l 1,4,-1
 849 730 l 1,5,-1
 733 0 l 1,6,-1
 714 0 l 1,7,-1
 826 709 l 1,8,-1
 824 709 l 1,9,-1
 446 155 l 1,10,-1
 423 155 l 1,11,-1
 220 709 l 1,12,-1
 218 709 l 1,13,-1
 106 0 l 1,14,-1
 86 0 l 1,15,-1
 202 730 l 1,0,-1
EndSplineSet
EndChar

StartChar: N
Encoding: 78 78 99
Width: 682
GlyphClass: 2
Flags: W
AnchorPoint: "Anchor-6" 355 730 basechar 0
AnchorPoint: "Anchor-4" 355 0 basechar 0
LayerCount: 2
Fore
SplineSet
202 730 m 1,0,-1
 233 730 l 1,1,-1
 578 21 l 1,2,-1
 580 21 l 1,3,-1
 692 730 l 1,4,-1
 712 730 l 1,5,-1
 596 0 l 1,6,-1
 565 0 l 1,7,-1
 220 709 l 1,8,-1
 218 709 l 1,9,-1
 106 0 l 1,10,-1
 86 0 l 1,11,-1
 202 730 l 1,0,-1
EndSplineSet
EndChar

StartChar: Eng
Encoding: 330 330 104
Width: 682
GlyphClass: 2
Flags: W
AnchorPoint: "Anchor-6" 355 730 basechar 0
AnchorPoint: "Anchor-4" 355 0 basechar 0
LayerCount: 2
Fore
SplineSet
712 730 m 1,0,-1
 586 -61 l 2,1,2
 574 -138 574 -138 535.5 -174.5 c 128,-1,3
 497 -211 497 -211 425 -211 c 0,4,5
 386 -211 386 -211 349 -196 c 1,6,-1
 359 -177 l 1,7,8
 390 -191 390 -191 429 -191 c 0,9,10
 492 -191 492 -191 524 -160.5 c 128,-1,11
 556 -130 556 -130 567 -61 c 2,12,-1
 574 -18 l 1,13,-1
 220 709 l 1,14,-1
 218 709 l 1,15,-1
 106 0 l 1,16,-1
 86 0 l 1,17,-1
 202 730 l 1,18,-1
 233 730 l 1,19,-1
 578 21 l 1,20,-1
 580 21 l 1,21,-1
 692 730 l 1,22,-1
 712 730 l 1,0,-1
EndSplineSet
EndChar

StartChar: O
Encoding: 79 79 107
Width: 771
GlyphClass: 2
Flags: W
AnchorPoint: "Anchor-7" 584 690 basechar 0
AnchorPoint: "Anchor-6" 397 730 basechar 0
AnchorPoint: "Anchor-5" 446 0 basechar 0
AnchorPoint: "Anchor-4" 397 0 basechar 0
LayerCount: 2
Fore
SplineSet
212.5 37 m 128,-1,1
 142 84 142 84 112.5 169.5 c 128,-1,2
 83 255 83 255 101 365 c 256,3,4
 118 475 118 475 174.5 560.5 c 128,-1,5
 231 646 231 646 316.5 693 c 128,-1,6
 402 740 402 740 503 740 c 256,7,8
 604 740 604 740 674.5 693 c 128,-1,9
 745 646 745 646 774.5 560.5 c 128,-1,10
 804 475 804 475 787 365 c 256,11,12
 770 255 770 255 713 169.5 c 128,-1,13
 656 84 656 84 570.5 37 c 128,-1,14
 485 -10 485 -10 384 -10 c 256,15,0
 283 -10 283 -10 212.5 37 c 128,-1,1
563.5 54.5 m 128,-1,17
 644 99 644 99 697 179.5 c 128,-1,18
 750 260 750 260 767 365 c 256,19,20
 784 470 784 470 756 550.5 c 128,-1,21
 728 631 728 631 662 675.5 c 128,-1,22
 596 720 596 720 500 720 c 256,23,24
 404 720 404 720 324 675.5 c 128,-1,25
 244 631 244 631 190.5 550.5 c 128,-1,26
 137 470 137 470 120 365 c 256,27,28
 103 260 103 260 131 179.5 c 128,-1,29
 159 99 159 99 225 54.5 c 128,-1,30
 291 10 291 10 387 10 c 256,31,16
 483 10 483 10 563.5 54.5 c 128,-1,17
EndSplineSet
Substitution2: "Single Substitution lookup 21 subtable" ordmasculine
Substitution2: "'aalt' Access All Alternates in Latin lookup 0 subtable" ordmasculine
EndChar

StartChar: Ohorn
Encoding: 416 416 123
Width: 780
GlyphClass: 2
Flags: W
AnchorPoint: "Anchor-7" 749 845 basechar 0
AnchorPoint: "Anchor-6" 397 730 basechar 0
AnchorPoint: "Anchor-5" 446 0 basechar 0
AnchorPoint: "Anchor-4" 397 0 basechar 0
LayerCount: 2
Fore
SplineSet
783 530.5 m 128,-1,1
 801 456 801 456 787 365 c 0,2,3
 770 255 770 255 713 169.5 c 128,-1,4
 656 84 656 84 570.5 37 c 128,-1,5
 485 -10 485 -10 384 -10 c 256,6,7
 283 -10 283 -10 212.5 37 c 128,-1,8
 142 84 142 84 112.5 169.5 c 128,-1,9
 83 255 83 255 101 365 c 256,10,11
 118 475 118 475 174.5 560.5 c 128,-1,12
 231 646 231 646 316.5 693 c 128,-1,13
 402 740 402 740 503 740 c 0,14,15
 608 740 608 740 680 689 c 0,16,17
 705 675 705 675 735 675 c 0,18,19
 799 675 799 675 811 753 c 0,20,21
 815 776 815 776 814 801.5 c 128,-1,22
 813 827 813 827 809 845 c 1,23,-1
 829 845 l 1,24,25
 837 797 837 797 830 753 c 0,26,27
 823 706 823 706 797.5 680.5 c 128,-1,28
 772 655 772 655 732 655 c 0,29,30
 723 655 723 655 718 656 c 1,31,0
 765 605 765 605 783 530.5 c 128,-1,1
563.5 54.5 m 128,-1,33
 644 99 644 99 697 179.5 c 128,-1,34
 750 260 750 260 767 365 c 256,35,36
 784 470 784 470 756 550.5 c 128,-1,37
 728 631 728 631 662 675.5 c 128,-1,38
 596 720 596 720 500 720 c 256,39,40
 404 720 404 720 324 675.5 c 128,-1,41
 244 631 244 631 190.5 550.5 c 128,-1,42
 137 470 137 470 120 365 c 256,43,44
 103 260 103 260 131 179.5 c 128,-1,45
 159 99 159 99 225 54.5 c 128,-1,46
 291 10 291 10 387 10 c 256,47,32
 483 10 483 10 563.5 54.5 c 128,-1,33
EndSplineSet
EndChar

StartChar: uni01EA
Encoding: 490 490 132
Width: 771
GlyphClass: 2
Flags: W
AnchorPoint: "Anchor-7" 584 690 basechar 0
AnchorPoint: "Anchor-6" 397 730 basechar 0
AnchorPoint: "Anchor-5" 446 0 basechar 0
AnchorPoint: "Anchor-4" 397 0 basechar 0
LayerCount: 2
Fore
SplineSet
330 -71 m 128,-1,1
 298 -103 298 -103 293 -135 c 0,2,3
 287 -172 287 -172 315.5 -186 c 128,-1,4
 344 -200 344 -200 388 -200 c 0,5,6
 439 -200 439 -200 483 -181 c 1,7,-1
 488 -199 l 1,8,9
 441 -220 441 -220 385 -220 c 0,10,11
 312 -220 312 -220 290 -194 c 128,-1,12
 268 -168 268 -168 273 -135 c 256,13,14
 278 -102 278 -102 306 -70 c 128,-1,15
 334 -38 334 -38 379 -10 c 1,16,17
 279 -9 279 -9 210 38.5 c 128,-1,18
 141 86 141 86 112 171 c 128,-1,19
 83 256 83 256 101 365 c 0,20,21
 118 475 118 475 174.5 560.5 c 128,-1,22
 231 646 231 646 316.5 693 c 128,-1,23
 402 740 402 740 503 740 c 256,24,25
 604 740 604 740 674.5 693 c 128,-1,26
 745 646 745 646 774.5 560.5 c 128,-1,27
 804 475 804 475 787 365 c 0,28,29
 771 261 771 261 719 179 c 128,-1,30
 667 97 667 97 589 48 c 128,-1,31
 511 -1 511 -1 418 -9 c 1,32,0
 362 -39 362 -39 330 -71 c 128,-1,1
131.5 179.5 m 128,-1,34
 159 99 159 99 225 54.5 c 128,-1,35
 291 10 291 10 387 10 c 256,36,37
 483 10 483 10 563.5 54.5 c 128,-1,38
 644 99 644 99 697 179.5 c 128,-1,39
 750 260 750 260 767 365 c 256,40,41
 784 470 784 470 756 550.5 c 128,-1,42
 728 631 728 631 662 675.5 c 128,-1,43
 596 720 596 720 500 720 c 256,44,45
 404 720 404 720 324 675.5 c 128,-1,46
 244 631 244 631 190.5 550.5 c 128,-1,47
 137 470 137 470 120 365 c 256,48,33
 104 260 104 260 131.5 179.5 c 128,-1,34
EndSplineSet
EndChar

StartChar: Oslash
Encoding: 216 216 133
Width: 771
GlyphClass: 2
Flags: W
AnchorPoint: "Anchor-7" 584 690 basechar 0
AnchorPoint: "Anchor-6" 397 730 basechar 0
AnchorPoint: "Anchor-5" 446 0 basechar 0
AnchorPoint: "Anchor-4" 397 0 basechar 0
LayerCount: 2
Fore
SplineSet
782.5 532.5 m 128,-1,1
 801 457 801 457 787 365 c 0,2,3
 770 255 770 255 713 169.5 c 128,-1,4
 656 84 656 84 570.5 37 c 128,-1,5
 485 -10 485 -10 384 -10 c 0,6,7
 262 -10 262 -10 183 59 c 1,8,-1
 117 -16 l 1,9,-1
 103 -4 l 1,10,-1
 171 72 l 1,11,12
 123 122 123 122 104.5 197.5 c 128,-1,13
 86 273 86 273 101 365 c 0,14,15
 118 475 118 475 174.5 560.5 c 128,-1,16
 231 646 231 646 316.5 693 c 128,-1,17
 402 740 402 740 503 740 c 0,18,19
 625 740 625 740 704 671 c 1,20,-1
 770 746 l 1,21,-1
 784 734 l 1,22,-1
 716 658 l 1,23,0
 764 608 764 608 782.5 532.5 c 128,-1,1
123.5 207 m 128,-1,25
 141 136 141 136 185 88 c 1,26,-1
 689 655 l 1,27,28
 616 720 616 720 500 720 c 0,29,30
 404 720 404 720 324 675.5 c 128,-1,31
 244 631 244 631 190.5 550.5 c 128,-1,32
 137 470 137 470 120 365 c 0,33,24
 106 278 106 278 123.5 207 c 128,-1,25
563.5 54.5 m 128,-1,35
 644 99 644 99 697 179.5 c 128,-1,36
 750 260 750 260 767 365 c 0,37,38
 781 452 781 452 763.5 523 c 128,-1,39
 746 594 746 594 702 642 c 1,40,-1
 198 75 l 1,41,42
 271 10 271 10 387 10 c 0,43,34
 483 10 483 10 563.5 54.5 c 128,-1,35
EndSplineSet
EndChar

StartChar: OE
Encoding: 338 338 137
Width: 949
GlyphClass: 2
Flags: W
AnchorPoint: "Anchor-6" 701 730 basechar 0
AnchorPoint: "Anchor-5" 906 0 basechar 0
AnchorPoint: "Anchor-4" 701 0 basechar 0
LayerCount: 2
Fore
SplineSet
605 710 m 1,0,-1
 556 400 l 1,1,-1
 928 400 l 1,2,-1
 925 380 l 1,3,-1
 553 380 l 1,4,-1
 496 20 l 1,5,-1
 888 20 l 1,6,-1
 885 0 l 1,7,-1
 473 0 l 1,8,9
 425 -10 425 -10 384 -10 c 0,10,11
 283 -10 283 -10 212.5 37 c 128,-1,12
 142 84 142 84 112.5 169.5 c 128,-1,13
 83 255 83 255 101 365 c 256,14,15
 118 475 118 475 174.5 560.5 c 128,-1,16
 231 646 231 646 316.5 693 c 128,-1,17
 402 740 402 740 503 740 c 0,18,19
 544 740 544 740 589 730 c 1,20,-1
 1000 730 l 1,21,-1
 997 710 l 1,22,-1
 605 710 l 1,0,-1
131.5 179.5 m 128,-1,24
 159 99 159 99 225 54.5 c 128,-1,25
 291 10 291 10 387 10 c 0,26,27
 435 10 435 10 476 20 c 1,28,-1
 585 710 l 1,29,30
 547 720 547 720 500 720 c 0,31,32
 404 720 404 720 324 675.5 c 128,-1,33
 244 631 244 631 190.5 550.5 c 128,-1,34
 137 470 137 470 120 365 c 256,35,23
 104 260 104 260 131.5 179.5 c 128,-1,24
EndSplineSet
EndChar

StartChar: P
Encoding: 80 80 138
Width: 544
Flags: W
LayerCount: 2
Fore
SplineSet
557 680 m 128,-1,1
 617 630 617 630 600 520 c 256,2,3
 583 410 583 410 507 360 c 128,-1,4
 431 310 431 310 283 310 c 2,5,-1
 155 310 l 1,6,-1
 106 0 l 1,7,-1
 86 0 l 1,8,-1
 202 730 l 1,9,-1
 349 730 l 2,10,0
 497 730 497 730 557 680 c 128,-1,1
495 374.5 m 128,-1,12
 564 419 564 419 580 520 c 256,13,14
 596 621 596 621 541 665.5 c 128,-1,15
 486 710 486 710 346 710 c 2,16,-1
 219 710 l 1,17,-1
 158 330 l 1,18,-1
 286 330 l 2,19,11
 426 330 426 330 495 374.5 c 128,-1,12
EndSplineSet
EndChar

StartChar: Thorn
Encoding: 222 222 139
Width: 544
Flags: W
LayerCount: 2
Fore
SplineSet
534 535 m 128,-1,1
 594 485 594 485 577 375 c 256,2,3
 560 265 560 265 484 215 c 128,-1,4
 408 165 408 165 260 165 c 2,5,-1
 132 165 l 1,6,-1
 106 0 l 1,7,-1
 86 0 l 1,8,-1
 202 730 l 1,9,-1
 222 730 l 1,10,-1
 199 585 l 1,11,-1
 326 585 l 2,12,0
 474 585 474 585 534 535 c 128,-1,1
472 229.5 m 128,-1,14
 541 274 541 274 557 375 c 256,15,16
 573 476 573 476 518 520.5 c 128,-1,17
 463 565 463 565 323 565 c 2,18,-1
 196 565 l 1,19,-1
 135 185 l 1,20,-1
 263 185 l 2,21,13
 403 185 403 185 472 229.5 c 128,-1,14
EndSplineSet
EndChar

StartChar: Q
Encoding: 81 81 140
Width: 785
Flags: W
LayerCount: 2
Fore
SplineSet
384 -10 m 0,1,2
 283 -10 283 -10 212.5 37 c 128,-1,3
 142 84 142 84 112.5 169.5 c 128,-1,4
 83 255 83 255 101 365 c 256,5,6
 118 475 118 475 174.5 560.5 c 128,-1,7
 231 646 231 646 316.5 693 c 128,-1,8
 402 740 402 740 503 740 c 256,9,10
 604 740 604 740 674.5 693 c 128,-1,11
 745 646 745 646 774.5 560.5 c 128,-1,12
 804 475 804 475 787 365 c 0,13,14
 765 229 765 229 684.5 133 c 128,-1,15
 604 37 604 37 488 5 c 1,16,-1
 488 3 l 1,17,18
 651 -17 651 -17 726 -102 c 1,19,-1
 710 -116 l 1,20,0
 618 -10 618 -10 384 -10 c 0,1,2
563.5 54.5 m 128,-1,22
 644 99 644 99 697 179.5 c 128,-1,23
 750 260 750 260 767 365 c 256,24,25
 784 470 784 470 756 550.5 c 128,-1,26
 728 631 728 631 662 675.5 c 128,-1,27
 596 720 596 720 500 720 c 256,28,29
 404 720 404 720 324 675.5 c 128,-1,30
 244 631 244 631 190.5 550.5 c 128,-1,31
 137 470 137 470 120 365 c 256,32,33
 103 260 103 260 131 179.5 c 128,-1,34
 159 99 159 99 225 54.5 c 128,-1,35
 291 10 291 10 387 10 c 256,36,21
 483 10 483 10 563.5 54.5 c 128,-1,22
EndSplineSet
EndChar

StartChar: R
Encoding: 82 82 141
Width: 571
GlyphClass: 2
Flags: W
AnchorPoint: "Anchor-6" 290 730 basechar 0
AnchorPoint: "Anchor-4" 290 0 basechar 0
LayerCount: 2
Fore
SplineSet
251 350 m 1,0,-1
 161 350 l 1,1,-1
 106 0 l 1,2,-1
 86 0 l 1,3,-1
 202 730 l 1,4,-1
 369 730 l 2,5,6
 508 730 508 730 563.5 685 c 128,-1,7
 619 640 619 640 603 540 c 256,8,9
 587 440 587 440 517.5 395 c 128,-1,10
 448 350 448 350 308 350 c 2,11,-1
 278 350 l 1,12,-1
 537 0 l 1,13,-1
 510 0 l 1,14,-1
 251 350 l 1,0,-1
165 370 m 1,15,-1
 312 370 l 2,16,17
 443 370 443 370 506 410 c 128,-1,18
 569 450 569 450 584 540 c 256,19,20
 598 630 598 630 547.5 670 c 128,-1,21
 497 710 497 710 366 710 c 2,22,-1
 219 710 l 1,23,-1
 165 370 l 1,15,-1
EndSplineSet
EndChar

StartChar: S
Encoding: 83 83 147
Width: 575
GlyphClass: 2
Flags: W
AnchorPoint: "Anchor-6" 296 730 basechar 0
AnchorPoint: "Anchor-4" 296 0 basechar 0
LayerCount: 2
Fore
SplineSet
165.5 5 m 128,-1,1
 111 20 111 20 68 48 c 1,2,-1
 81 66 l 1,3,4
 122 39 122 39 174 24.5 c 128,-1,5
 226 10 226 10 284 10 c 0,6,7
 385 10 385 10 449 55.5 c 128,-1,8
 513 101 513 101 526 183 c 0,9,10
 535 241 535 241 511.5 275.5 c 128,-1,11
 488 310 488 310 449 328.5 c 128,-1,12
 410 347 410 347 340 368 c 0,13,14
 271 389 271 389 230 408 c 128,-1,15
 189 427 189 427 164.5 463.5 c 128,-1,16
 140 500 140 500 150 561 c 0,17,18
 163 644 163 644 229.5 692 c 128,-1,19
 296 740 296 740 400 740 c 0,20,21
 457 740 457 740 516.5 726 c 128,-1,22
 576 712 576 712 609 690 c 1,23,-1
 596 672 l 1,24,25
 565 693 565 693 508.5 706.5 c 128,-1,26
 452 720 452 720 397 720 c 0,27,28
 302 720 302 720 241.5 678 c 128,-1,29
 181 636 181 636 169 561 c 0,30,31
 161 508 161 508 183 475 c 128,-1,32
 205 442 205 442 243 424.5 c 128,-1,33
 281 407 281 407 349 387 c 0,34,35
 419 366 419 366 461.5 346 c 128,-1,36
 504 326 504 326 529.5 287 c 128,-1,37
 555 248 555 248 545 183 c 0,38,39
 532 92 532 92 461.5 41 c 128,-1,40
 391 -10 391 -10 281 -10 c 0,41,0
 220 -10 220 -10 165.5 5 c 128,-1,1
EndSplineSet
EndChar

StartChar: Scedilla
Encoding: 350 350 150
Width: 575
GlyphClass: 2
Flags: W
AnchorPoint: "Anchor-6" 296 730 basechar 0
AnchorPoint: "Anchor-4" 296 0 basechar 0
LayerCount: 2
Fore
SplineSet
471 49 m 128,-1,1
 410 -1 410 -1 312 -9 c 1,2,3
 351 -38 351 -38 369 -70.5 c 128,-1,4
 387 -103 387 -103 382 -136 c 256,5,6
 377 -169 377 -169 346 -195 c 128,-1,7
 315 -221 315 -221 243 -221 c 0,8,9
 188 -221 188 -221 147 -200 c 1,10,-1
 158 -182 l 1,11,12
 195 -201 195 -201 246 -201 c 0,13,14
 290 -201 290 -201 323 -187 c 128,-1,15
 356 -173 356 -173 362 -136 c 0,16,17
 372 -73 372 -73 278 -10 c 1,18,19
 217 -9 217 -9 163 5.5 c 128,-1,20
 109 20 109 20 68 48 c 1,21,-1
 81 66 l 1,22,23
 122 39 122 39 174 24.5 c 128,-1,24
 226 10 226 10 284 10 c 0,25,26
 385 10 385 10 449 55.5 c 128,-1,27
 513 101 513 101 526 183 c 0,28,29
 535 241 535 241 511.5 275.5 c 128,-1,30
 488 310 488 310 449 328.5 c 128,-1,31
 410 347 410 347 340 368 c 0,32,33
 271 389 271 389 230 408 c 128,-1,34
 189 427 189 427 164.5 463.5 c 128,-1,35
 140 500 140 500 150 561 c 0,36,37
 163 644 163 644 229.5 692 c 128,-1,38
 296 740 296 740 400 740 c 0,39,40
 457 740 457 740 516.5 726 c 128,-1,41
 576 712 576 712 609 690 c 1,42,-1
 596 672 l 1,43,44
 565 693 565 693 508.5 706.5 c 128,-1,45
 452 720 452 720 397 720 c 0,46,47
 302 720 302 720 241.5 678 c 128,-1,48
 181 636 181 636 169 561 c 0,49,50
 161 508 161 508 183 475 c 128,-1,51
 205 442 205 442 243 424.5 c 128,-1,52
 281 407 281 407 349 387 c 0,53,54
 419 366 419 366 461.5 346 c 128,-1,55
 504 326 504 326 529.5 287 c 128,-1,56
 555 248 555 248 545 183 c 0,57,0
 532 99 532 99 471 49 c 128,-1,1
EndSplineSet
Substitution2: "'locl' Localized Forms in Latin lookup 4 subtable" uni0218
Substitution2: "'aalt' Access All Alternates in Latin lookup 0 subtable" uni0218
EndChar

StartChar: uni1E9E
Encoding: 7838 7838 153
Width: 620
Flags: W
LayerCount: 2
Fore
SplineSet
231 7 m 1,1,-1
 240 26 l 1,2,3
 290 10 290 10 354 10 c 0,4,5
 464 10 464 10 528 53.5 c 128,-1,6
 592 97 592 97 605 180 c 256,7,8
 618 263 618 263 568 306.5 c 128,-1,9
 518 350 518 350 410 350 c 2,10,-1
 391 350 l 1,11,-1
 395 379 l 1,12,-1
 582 572 l 1,13,14
 592 647 592 647 552.5 683.5 c 128,-1,15
 513 720 513 720 424 720 c 0,16,17
 319 720 319 720 261.5 668 c 128,-1,18
 204 616 204 616 186 505 c 2,19,-1
 106 0 l 1,20,-1
 86 0 l 1,21,-1
 166 505 l 2,22,23
 185 624 185 624 249 682 c 128,-1,24
 313 740 313 740 427 740 c 0,25,26
 628 740 628 740 600 565 c 1,27,-1
 414 372 l 1,28,-1
 414 370 l 1,29,30
 530 370 530 370 584.5 321 c 128,-1,31
 639 272 639 272 625 180 c 256,32,33
 610 88 610 88 539 39 c 128,-1,34
 468 -10 468 -10 350 -10 c 0,35,0
 285 -10 285 -10 231 7 c 1,1,-1
EndSplineSet
EndChar

StartChar: uni018F
Encoding: 399 399 154
Width: 730
Flags: W
LayerCount: 2
Fore
SplineSet
698.5 643 m 128,-1,1
 774 546 774 546 746 365 c 0,2,3
 727 248 727 248 675.5 163.5 c 128,-1,4
 624 79 624 79 544 34.5 c 128,-1,5
 464 -10 464 -10 363 -10 c 256,6,7
 262 -10 262 -10 196 34.5 c 128,-1,8
 130 79 130 79 105 163.5 c 128,-1,9
 80 248 80 248 99 365 c 2,10,-1
 99 368 l 1,11,-1
 726 368 l 1,12,13
 752 540 752 540 681 630 c 128,-1,14
 610 720 610 720 449 720 c 0,15,16
 381 720 381 720 312 704 c 128,-1,17
 243 688 243 688 183 658 c 1,18,-1
 177 676 l 1,19,20
 238 706 238 706 310.5 723 c 128,-1,21
 383 740 383 740 452 740 c 0,22,0
 623 740 623 740 698.5 643 c 128,-1,1
600 98.5 m 128,-1,24
 694 187 694 187 723 348 c 1,25,-1
 116 348 l 1,26,27
 94 187 94 187 160 98.5 c 128,-1,28
 226 10 226 10 366 10 c 256,29,23
 506 10 506 10 600 98.5 c 128,-1,24
EndSplineSet
EndChar

StartChar: T
Encoding: 84 84 155
Width: 599
GlyphClass: 2
Flags: W
AnchorPoint: "Anchor-8" 298 0 basechar 0
AnchorPoint: "Anchor-6" 308 730 basechar 0
AnchorPoint: "Anchor-4" 308 0 basechar 0
LayerCount: 2
Fore
SplineSet
403 710 m 1,0,-1
 138 710 l 1,1,-1
 141 730 l 1,2,-1
 690 730 l 1,3,-1
 687 710 l 1,4,-1
 422 710 l 1,5,-1
 310 0 l 1,6,-1
 290 0 l 1,7,-1
 403 710 l 1,0,-1
EndSplineSet
EndChar

StartChar: Tbar
Encoding: 358 358 156
Width: 650
GlyphClass: 2
Flags: W
AnchorPoint: "Anchor-8" 326 0 basechar 0
AnchorPoint: "Anchor-6" 336 730 basechar 0
AnchorPoint: "Anchor-4" 336 0 basechar 0
LayerCount: 2
Fore
SplineSet
712 710 m 1,0,-1
 448 710 l 1,1,-1
 387 325 l 1,2,-1
 583 325 l 1,3,-1
 579 305 l 1,4,-1
 383 305 l 1,5,-1
 335 0 l 1,6,-1
 316 0 l 1,7,-1
 364 305 l 1,8,-1
 168 305 l 1,9,-1
 171 325 l 1,10,-1
 367 325 l 1,11,-1
 428 710 l 1,12,-1
 163 710 l 1,13,-1
 167 730 l 1,14,-1
 715 730 l 1,15,-1
 712 710 l 1,0,-1
EndSplineSet
EndChar

StartChar: uni0162
Encoding: 354 354 158
Width: 599
GlyphClass: 2
Flags: W
AnchorPoint: "Anchor-8" 298 0 basechar 0
AnchorPoint: "Anchor-6" 308 730 basechar 0
AnchorPoint: "Anchor-4" 308 0 basechar 0
LayerCount: 2
Fore
SplineSet
422 710 m 1,0,-1
 311 11 l 1,1,2
 363 -21 363 -21 388.5 -58.5 c 128,-1,3
 414 -96 414 -96 408 -135 c 0,4,5
 403 -168 403 -168 372 -194 c 128,-1,6
 341 -220 341 -220 269 -220 c 0,7,8
 214 -220 214 -220 173 -199 c 1,9,-1
 184 -181 l 1,10,11
 221 -200 221 -200 272 -200 c 0,12,13
 316 -200 316 -200 349 -186 c 128,-1,14
 382 -172 382 -172 388 -135 c 0,15,16
 393 -101 393 -101 368 -66.5 c 128,-1,17
 343 -32 343 -32 290 0 c 1,18,-1
 403 710 l 1,19,-1
 138 710 l 1,20,-1
 141 730 l 1,21,-1
 690 730 l 1,22,-1
 687 710 l 1,23,-1
 422 710 l 1,0,-1
EndSplineSet
Substitution2: "'locl' Localized Forms in Latin lookup 4 subtable" uni021A
Substitution2: "'aalt' Access All Alternates in Latin lookup 0 subtable" uni021A
EndChar

StartChar: U
Encoding: 85 85 160
Width: 664
GlyphClass: 2
Flags: W
AnchorPoint: "Anchor-7" 605 690 basechar 0
AnchorPoint: "Anchor-6" 345 730 basechar 0
AnchorPoint: "Anchor-5" 454 10 basechar 0
AnchorPoint: "Anchor-4" 345 0 basechar 0
LayerCount: 2
Fore
SplineSet
151 60.5 m 128,-1,1
 98 131 98 131 120 270 c 2,2,-1
 193 730 l 1,3,-1
 213 730 l 1,4,-1
 140 270 l 2,5,6
 99 10 99 10 334 10 c 256,7,8
 569 10 569 10 610 270 c 2,9,-1
 683 730 l 1,10,-1
 703 730 l 1,11,-1
 630 270 l 2,12,13
 608 131 608 131 532.5 60.5 c 128,-1,14
 457 -10 457 -10 331 -10 c 256,15,0
 204 -10 204 -10 151 60.5 c 128,-1,1
EndSplineSet
EndChar

StartChar: Uhorn
Encoding: 431 431 169
Width: 710
GlyphClass: 2
Flags: W
AnchorPoint: "Anchor-7" 770 845 basechar 0
AnchorPoint: "Anchor-6" 345 730 basechar 0
AnchorPoint: "Anchor-5" 454 10 basechar 0
AnchorPoint: "Anchor-4" 345 0 basechar 0
LayerCount: 2
Fore
SplineSet
848 753 m 0,1,2
 841 706 841 706 815.5 680.5 c 128,-1,3
 790 655 790 655 749 655 c 0,4,5
 721 655 721 655 693 668 c 1,6,-1
 630 270 l 2,7,8
 608 131 608 131 532.5 60.5 c 128,-1,9
 457 -10 457 -10 331 -10 c 256,10,11
 205 -10 205 -10 151.5 60.5 c 128,-1,12
 98 131 98 131 120 270 c 2,13,-1
 193 730 l 1,14,-1
 213 730 l 1,15,-1
 140 270 l 2,16,17
 99 10 99 10 334 10 c 256,18,19
 569 10 569 10 610 270 c 2,20,-1
 683 730 l 1,21,-1
 703 730 l 1,22,-1
 696 690 l 1,23,24
 723 675 723 675 753 675 c 0,25,26
 817 675 817 675 829 753 c 0,27,28
 833 776 833 776 832 801.5 c 128,-1,29
 831 827 831 827 827 845 c 1,30,-1
 847 845 l 1,31,0
 855 797 855 797 848 753 c 0,1,2
EndSplineSet
EndChar

StartChar: Uogonek
Encoding: 370 370 178
Width: 664
GlyphClass: 2
Flags: W
AnchorPoint: "Anchor-7" 605 690 basechar 0
AnchorPoint: "Anchor-6" 345 730 basechar 0
AnchorPoint: "Anchor-5" 454 10 basechar 0
AnchorPoint: "Anchor-4" 345 0 basechar 0
LayerCount: 2
Fore
SplineSet
337 -61.5 m 128,-1,1
 305 -94 305 -94 300 -125 c 0,2,3
 294 -162 294 -162 322.5 -176 c 128,-1,4
 351 -190 351 -190 395 -190 c 0,5,6
 446 -190 446 -190 489 -171 c 1,7,-1
 494 -189 l 1,8,9
 447 -210 447 -210 392 -210 c 0,10,11
 319 -210 319 -210 297 -184 c 128,-1,12
 275 -158 275 -158 280 -125 c 0,13,14
 285 -95 285 -95 309 -65 c 128,-1,15
 333 -35 333 -35 374 -8 c 1,16,17
 346 -10 346 -10 331 -10 c 0,18,19
 205 -10 205 -10 151.5 60.5 c 128,-1,20
 98 131 98 131 120 270 c 2,21,-1
 193 730 l 1,22,-1
 213 730 l 1,23,-1
 140 270 l 2,24,25
 99 10 99 10 334 10 c 256,26,27
 569 10 569 10 610 270 c 2,28,-1
 683 730 l 1,29,-1
 703 730 l 1,30,-1
 630 270 l 2,31,32
 613 160 613 160 560.5 92 c 128,-1,33
 508 24 508 24 425 2 c 1,34,0
 369 -29 369 -29 337 -61.5 c 128,-1,1
EndSplineSet
EndChar

StartChar: V
Encoding: 86 86 181
Width: 632
Flags: W
LayerCount: 2
Fore
SplineSet
133 730 m 1,0,-1
 154 730 l 1,1,-1
 318 20 l 1,2,-1
 320 20 l 1,3,-1
 709 730 l 1,4,-1
 731 730 l 1,5,-1
 331 0 l 1,6,-1
 301 0 l 1,7,-1
 133 730 l 1,0,-1
EndSplineSet
EndChar

StartChar: W
Encoding: 87 87 182
Width: 867
GlyphClass: 2
Flags: W
AnchorPoint: "Anchor-6" 445 730 basechar 0
AnchorPoint: "Anchor-4" 445 0 basechar 0
LayerCount: 2
Fore
SplineSet
548 713 m 1,0,-1
 546 713 l 1,1,-1
 244 0 l 1,2,-1
 213 0 l 1,3,-1
 143 730 l 1,4,-1
 164 730 l 1,5,-1
 230 17 l 1,6,-1
 232 17 l 1,7,-1
 534 730 l 1,8,-1
 565 730 l 1,9,-1
 642 17 l 1,10,-1
 643 17 l 1,11,-1
 936 730 l 1,12,-1
 956 730 l 1,13,-1
 655 0 l 1,14,-1
 624 0 l 1,15,-1
 548 713 l 1,0,-1
EndSplineSet
EndChar

StartChar: X
Encoding: 88 88 187
Width: 665
Flags: W
LayerCount: 2
Fore
SplineSet
379 369 m 1,0,-1
 180 730 l 1,1,-1
 204 730 l 1,2,-1
 393 387 l 1,3,-1
 395 387 l 1,4,-1
 692 730 l 1,5,-1
 717 730 l 1,6,-1
 403 369 l 1,7,-1
 607 0 l 1,8,-1
 583 0 l 1,9,-1
 389 352 l 1,10,-1
 387 352 l 1,11,-1
 83 0 l 1,12,-1
 58 0 l 1,13,-1
 379 369 l 1,0,-1
EndSplineSet
EndChar

StartChar: Y
Encoding: 89 89 188
Width: 608
GlyphClass: 2
Flags: W
AnchorPoint: "Anchor-6" 311 730 basechar 0
AnchorPoint: "Anchor-4" 311 0 basechar 0
LayerCount: 2
Fore
SplineSet
344 317 m 1,0,-1
 126 730 l 1,1,-1
 149 730 l 1,2,-1
 357 338 l 1,3,-1
 359 338 l 1,4,-1
 690 730 l 1,5,-1
 714 730 l 1,6,-1
 364 317 l 1,7,-1
 314 0 l 1,8,-1
 294 0 l 1,9,-1
 344 317 l 1,0,-1
EndSplineSet
EndChar

StartChar: Z
Encoding: 90 90 197
Width: 608
GlyphClass: 2
Flags: W
AnchorPoint: "Anchor-6" 316 730 basechar 0
AnchorPoint: "Anchor-4" 316 0 basechar 0
LayerCount: 2
Fore
SplineSet
72 20 m 1,0,-1
 626 708 l 1,1,-1
 627 710 l 1,2,-1
 182 710 l 1,3,-1
 185 730 l 1,4,-1
 655 730 l 1,5,-1
 652 710 l 1,6,-1
 98 22 l 1,7,-1
 98 20 l 1,8,-1
 543 20 l 1,9,-1
 540 0 l 1,10,-1
 69 0 l 1,11,-1
 72 20 l 1,0,-1
EndSplineSet
EndChar

StartChar: a
Encoding: 97 97 201
Width: 480
GlyphClass: 2
Flags: W
AnchorPoint: "Anchor-6" 242 520 basechar 0
AnchorPoint: "Anchor-5" 438 0 basechar 0
AnchorPoint: "Anchor-4" 242 0 basechar 0
LayerCount: 2
Fore
SplineSet
448.5 484 m 128,-1,1
 480 438 480 438 463 330 c 2,2,-1
 411 0 l 1,3,-1
 392 0 l 1,4,-1
 410 116 l 1,5,-1
 408 116 l 1,6,7
 373 58 373 58 315.5 24 c 128,-1,8
 258 -10 258 -10 192 -10 c 0,9,10
 119 -10 119 -10 80.5 31 c 128,-1,11
 42 72 42 72 53 140 c 0,12,13
 67 229 67 229 153 277 c 128,-1,14
 239 325 239 325 383 325 c 2,15,-1
 443 325 l 1,16,-1
 444 330 l 2,17,18
 455 397 455 397 446.5 436 c 128,-1,19
 438 475 438 475 408 492.5 c 128,-1,20
 378 510 378 510 322 510 c 0,21,22
 224 510 224 510 131 462 c 1,23,-1
 126 480 l 1,24,25
 224 530 224 530 325 530 c 0,26,0
 417 530 417 530 448.5 484 c 128,-1,1
300.5 36 m 128,-1,28
 350 62 350 62 383 107.5 c 128,-1,29
 416 153 416 153 425 210 c 2,30,-1
 440 305 l 1,31,-1
 380 305 l 2,32,33
 244 305 244 305 164.5 262.5 c 128,-1,34
 85 220 85 220 72 140 c 0,35,36
 63 81 63 81 96 45.5 c 128,-1,37
 129 10 129 10 195 10 c 0,38,27
 251 10 251 10 300.5 36 c 128,-1,28
EndSplineSet
Substitution2: "Single Substitution lookup 21 subtable" ordfeminine
Substitution2: "'aalt' Access All Alternates in Latin lookup 0 subtable" ordfeminine
EndChar

StartChar: aogonek
Encoding: 261 261 222
Width: 483
GlyphClass: 2
Flags: W
AnchorPoint: "Anchor-6" 242 520 basechar 0
AnchorPoint: "Anchor-5" 438 0 basechar 0
AnchorPoint: "Anchor-4" 242 0 basechar 0
LayerCount: 2
Fore
SplineSet
461 -199 m 1,0,1
 415 -220 415 -220 362 -220 c 0,2,3
 292 -220 292 -220 270.5 -194 c 128,-1,4
 249 -168 249 -168 254 -135 c 0,5,6
 260 -96 260 -96 296.5 -58.5 c 128,-1,7
 333 -21 333 -21 393 11 c 1,8,-1
 410 116 l 1,9,-1
 408 116 l 1,10,11
 373 58 373 58 315.5 24 c 128,-1,12
 258 -10 258 -10 192 -10 c 0,13,14
 119 -10 119 -10 80.5 31 c 128,-1,15
 42 72 42 72 53 140 c 0,16,17
 67 229 67 229 153 277 c 128,-1,18
 239 325 239 325 383 325 c 2,19,-1
 443 325 l 1,20,-1
 444 330 l 2,21,22
 455 397 455 397 446 436 c 128,-1,23
 437 475 437 475 407.5 492.5 c 128,-1,24
 378 510 378 510 322 510 c 0,25,26
 224 510 224 510 131 462 c 1,27,-1
 126 480 l 1,28,29
 224 530 224 530 325 530 c 0,30,31
 416 530 416 530 448 484 c 128,-1,32
 480 438 480 438 463 330 c 2,33,-1
 410 0 l 1,34,35
 349 -32 349 -32 314 -66.5 c 128,-1,36
 279 -101 279 -101 273 -135 c 0,37,38
 267 -172 267 -172 295 -186 c 128,-1,39
 323 -200 323 -200 365 -200 c 0,40,41
 414 -200 414 -200 457 -181 c 1,42,-1
 461 -199 l 1,0,1
300.5 36 m 128,-1,44
 350 62 350 62 383 107.5 c 128,-1,45
 416 153 416 153 425 210 c 2,46,-1
 440 305 l 1,47,-1
 380 305 l 2,48,49
 244 305 244 305 164.5 262.5 c 128,-1,50
 85 220 85 220 72 140 c 0,51,52
 63 81 63 81 96 45.5 c 128,-1,53
 129 10 129 10 195 10 c 0,54,43
 251 10 251 10 300.5 36 c 128,-1,44
EndSplineSet
EndChar

StartChar: aring
Encoding: 229 229 223
Width: 480
GlyphClass: 2
Flags: W
AnchorPoint: "Anchor-6" 242 710 basechar 0
AnchorPoint: "Anchor-5" 438 0 basechar 0
AnchorPoint: "Anchor-4" 242 0 basechar 0
LayerCount: 2
Fore
SplineSet
451 479.5 m 128,-1,1
 479 433 479 433 462 330 c 2,2,-1
 410 0 l 1,3,-1
 391 0 l 1,4,-1
 410 116 l 1,5,-1
 408 116 l 1,6,7
 373 58 373 58 315.5 24 c 128,-1,8
 258 -10 258 -10 192 -10 c 0,9,10
 119 -10 119 -10 80.5 31 c 128,-1,11
 42 72 42 72 53 140 c 0,12,13
 67 229 67 229 153 277 c 128,-1,14
 239 325 239 325 383 325 c 2,15,-1
 443 325 l 1,16,-1
 444 330 l 2,17,18
 455 397 455 397 446 436 c 128,-1,19
 437 475 437 475 407.5 492.5 c 128,-1,20
 378 510 378 510 322 510 c 0,21,22
 224 510 224 510 131 462 c 1,23,-1
 126 480 l 1,24,25
 203 519 203 519 284 528 c 1,26,27
 246 537 246 537 225 571 c 128,-1,28
 204 605 204 605 211 650 c 0,29,30
 219 702 219 702 259.5 738.5 c 128,-1,31
 300 775 300 775 349 775 c 256,32,33
 398 775 398 775 427 738.5 c 128,-1,34
 456 702 456 702 448 650 c 0,35,36
 441 607 441 607 411.5 574 c 128,-1,37
 382 541 382 541 342 530 c 1,38,0
 423 526 423 526 451 479.5 c 128,-1,1
247.5 576 m 128,-1,40
 272 545 272 545 313 545 c 0,41,42
 355 545 355 545 388.5 576 c 128,-1,43
 422 607 422 607 429 650 c 0,44,45
 436 694 436 694 412 724.5 c 128,-1,46
 388 755 388 755 346 755 c 0,47,48
 305 755 305 755 270.5 724.5 c 128,-1,49
 236 694 236 694 229 650 c 0,50,39
 223 607 223 607 247.5 576 c 128,-1,40
300.5 36 m 128,-1,52
 350 62 350 62 383 107.5 c 128,-1,53
 416 153 416 153 425 210 c 2,54,-1
 440 305 l 1,55,-1
 380 305 l 2,56,57
 244 305 244 305 164.5 262.5 c 128,-1,58
 85 220 85 220 72 140 c 0,59,60
 63 81 63 81 96 45.5 c 128,-1,61
 129 10 129 10 195 10 c 0,62,51
 251 10 251 10 300.5 36 c 128,-1,52
EndSplineSet
EndChar

StartChar: aringacute
Encoding: 507 507 224
Width: 480
GlyphClass: 2
Flags: W
AnchorPoint: "Anchor-6" 242 710 basechar 0
AnchorPoint: "Anchor-5" 438 0 basechar 0
AnchorPoint: "Anchor-4" 242 0 basechar 0
LayerCount: 2
Fore
SplineSet
451 479.5 m 128,-1,1
 479 433 479 433 462 330 c 2,2,-1
 410 0 l 1,3,-1
 391 0 l 1,4,-1
 410 116 l 1,5,-1
 408 116 l 1,6,7
 373 58 373 58 315.5 24 c 128,-1,8
 258 -10 258 -10 192 -10 c 0,9,10
 119 -10 119 -10 80.5 31 c 128,-1,11
 42 72 42 72 53 140 c 0,12,13
 67 229 67 229 153 277 c 128,-1,14
 239 325 239 325 383 325 c 2,15,-1
 443 325 l 1,16,-1
 444 330 l 2,17,18
 455 397 455 397 446 436 c 128,-1,19
 437 475 437 475 407.5 492.5 c 128,-1,20
 378 510 378 510 322 510 c 0,21,22
 224 510 224 510 131 462 c 1,23,-1
 126 480 l 1,24,25
 203 519 203 519 284 528 c 1,26,27
 246 537 246 537 225 571 c 128,-1,28
 204 605 204 605 211 650 c 0,29,30
 216 682 216 682 234.5 709 c 128,-1,31
 253 736 253 736 279 754 c 1,32,-1
 425 960 l 1,33,-1
 447 960 l 1,34,-1
 312 769 l 1,35,36
 330 775 330 775 349 775 c 0,37,38
 398 775 398 775 427 738.5 c 128,-1,39
 456 702 456 702 448 650 c 0,40,41
 441 607 441 607 411.5 574 c 128,-1,42
 382 541 382 541 342 530 c 1,43,0
 423 526 423 526 451 479.5 c 128,-1,1
247.5 576 m 128,-1,45
 272 545 272 545 313 545 c 0,46,47
 355 545 355 545 388.5 576 c 128,-1,48
 422 607 422 607 429 650 c 0,49,50
 436 694 436 694 412 724.5 c 128,-1,51
 388 755 388 755 346 755 c 0,52,53
 305 755 305 755 270.5 724.5 c 128,-1,54
 236 694 236 694 229 650 c 0,55,44
 223 607 223 607 247.5 576 c 128,-1,45
300.5 36 m 128,-1,57
 350 62 350 62 383 107.5 c 128,-1,58
 416 153 416 153 425 210 c 2,59,-1
 440 305 l 1,60,-1
 380 305 l 2,61,62
 244 305 244 305 164.5 262.5 c 128,-1,63
 85 220 85 220 72 140 c 0,64,65
 63 81 63 81 96 45.5 c 128,-1,66
 129 10 129 10 195 10 c 0,67,56
 251 10 251 10 300.5 36 c 128,-1,57
EndSplineSet
EndChar

StartChar: ae
Encoding: 230 230 226
Width: 846
GlyphClass: 2
Flags: W
AnchorPoint: "Anchor-6" 452 520 basechar 0
AnchorPoint: "Anchor-4" 452 0 basechar 0
LayerCount: 2
Fore
SplineSet
850 258 m 1,0,-1
 451 258 l 1,1,2
 433 138 433 138 477 74 c 128,-1,3
 521 10 521 10 621 10 c 0,4,5
 664 10 664 10 707.5 21.5 c 128,-1,6
 751 33 751 33 789 53 c 1,7,-1
 796 36 l 1,8,9
 756 14 756 14 710 2 c 128,-1,10
 664 -10 664 -10 618 -10 c 0,11,12
 534 -10 534 -10 486 32 c 128,-1,13
 438 74 438 74 428 154 c 1,14,15
 399 81 399 81 334.5 35.5 c 128,-1,16
 270 -10 270 -10 192 -10 c 0,17,18
 119 -10 119 -10 80.5 31 c 128,-1,19
 42 72 42 72 53 140 c 0,20,21
 67 229 67 229 153 277 c 128,-1,22
 239 325 239 325 383 325 c 2,23,-1
 443 325 l 1,24,-1
 444 330 l 2,25,26
 455 397 455 397 446.5 436 c 128,-1,27
 438 475 438 475 408 492.5 c 128,-1,28
 378 510 378 510 322 510 c 0,29,30
 224 510 224 510 131 462 c 1,31,-1
 126 480 l 1,32,33
 224 530 224 530 325 530 c 0,34,35
 405 530 405 530 438.5 495.5 c 128,-1,36
 472 461 472 461 468 383 c 1,37,38
 501 455 501 455 556.5 492.5 c 128,-1,39
 612 530 612 530 684 530 c 0,40,41
 784 530 784 530 827.5 459.5 c 128,-1,42
 871 389 871 389 851 260 c 2,43,-1
 850 258 l 1,0,-1
535 450.5 m 128,-1,45
 476 391 476 391 455 278 c 1,46,-1
 835 278 l 1,47,48
 849 391 849 391 809 450.5 c 128,-1,49
 769 510 769 510 681 510 c 256,50,44
 594 510 594 510 535 450.5 c 128,-1,45
440 305 m 1,51,-1
 380 305 l 2,52,53
 244 305 244 305 164.5 262.5 c 128,-1,54
 85 220 85 220 72 140 c 0,55,56
 63 81 63 81 96 45.5 c 128,-1,57
 129 10 129 10 195 10 c 0,58,59
 251 10 251 10 300.5 36 c 128,-1,60
 350 62 350 62 383 107.5 c 128,-1,61
 416 153 416 153 425 210 c 2,62,-1
 440 305 l 1,51,-1
EndSplineSet
EndChar

StartChar: b
Encoding: 98 98 228
Width: 518
Flags: W
LayerCount: 2
Fore
SplineSet
495.5 458 m 128,-1,1
 537 386 537 386 517 260 c 256,2,3
 497 134 497 134 432.5 62 c 128,-1,4
 368 -10 368 -10 275 -10 c 0,5,6
 212 -10 212 -10 171 24.5 c 128,-1,7
 130 59 130 59 117 120 c 1,8,-1
 115 120 l 1,9,-1
 96 0 l 1,10,-1
 77 0 l 1,11,-1
 196 750 l 1,12,-1
 215 750 l 1,13,-1
 160 400 l 1,14,-1
 161 400 l 1,15,16
 193 461 193 461 245.5 495.5 c 128,-1,17
 298 530 298 530 360 530 c 0,18,0
 454 530 454 530 495.5 458 c 128,-1,1
421.5 76.5 m 128,-1,20
 480 143 480 143 498 260 c 256,21,22
 517 377 517 377 479.5 443.5 c 128,-1,23
 442 510 442 510 357 510 c 0,24,25
 275 510 275 510 216.5 449 c 128,-1,26
 158 388 158 388 141 285 c 2,27,-1
 133 235 l 2,28,29
 117 132 117 132 157 71 c 128,-1,30
 197 10 197 10 278 10 c 0,31,19
 363 10 363 10 421.5 76.5 c 128,-1,20
EndSplineSet
EndChar

StartChar: c
Encoding: 99 99 229
Width: 479
GlyphClass: 2
Flags: W
AnchorPoint: "Anchor-6" 268 520 basechar 0
AnchorPoint: "Anchor-4" 268 0 basechar 0
LayerCount: 2
Fore
SplineSet
154.5 23 m 128,-1,1
 106 56 106 56 86.5 117 c 128,-1,2
 67 178 67 178 80 260 c 256,3,4
 93 342 93 342 132 403 c 128,-1,5
 171 464 171 464 229.5 497 c 128,-1,6
 288 530 288 530 360 530 c 0,7,8
 429 530 429 530 488 495 c 1,9,-1
 476 477 l 1,10,11
 421 510 421 510 357 510 c 0,12,13
 255 510 255 510 186 443 c 128,-1,14
 117 376 117 376 99 260 c 256,15,16
 81 144 81 144 128.5 77 c 128,-1,17
 176 10 176 10 278 10 c 0,18,19
 343 10 343 10 408 43 c 1,20,-1
 413 25 l 1,21,22
 344 -10 344 -10 275 -10 c 0,23,0
 203 -10 203 -10 154.5 23 c 128,-1,1
EndSplineSet
EndChar

StartChar: ccedilla
Encoding: 231 231 232
Width: 479
GlyphClass: 2
Flags: W
AnchorPoint: "Anchor-6" 268 520 basechar 0
AnchorPoint: "Anchor-4" 268 0 basechar 0
LayerCount: 2
Fore
SplineSet
413 25 m 1,0,1
 345 -10 345 -10 277 -10 c 1,2,3
 352 -70 352 -70 341 -136 c 0,4,5
 336 -169 336 -169 306 -195 c 128,-1,6
 276 -221 276 -221 206 -221 c 0,7,8
 153 -221 153 -221 114 -200 c 1,9,-1
 124 -182 l 1,10,11
 160 -201 160 -201 209 -201 c 0,12,13
 252 -201 252 -201 284 -187 c 128,-1,14
 316 -173 316 -173 322 -136 c 0,15,16
 332 -72 332 -72 238 -8 c 1,17,18
 146 5 146 5 104 76 c 128,-1,19
 62 147 62 147 80 260 c 0,20,21
 93 342 93 342 132 403 c 128,-1,22
 171 464 171 464 229.5 497 c 128,-1,23
 288 530 288 530 360 530 c 0,24,25
 429 530 429 530 488 495 c 1,26,-1
 476 477 l 1,27,28
 421 510 421 510 357 510 c 0,29,30
 255 510 255 510 186 443 c 128,-1,31
 117 376 117 376 99 260 c 256,32,33
 81 144 81 144 128.5 77 c 128,-1,34
 176 10 176 10 278 10 c 0,35,36
 343 10 343 10 407 43 c 1,37,-1
 413 25 l 1,0,1
EndSplineSet
EndChar

StartChar: d
Encoding: 100 100 235
Width: 518
Flags: W
LayerCount: 2
Fore
SplineSet
560 750 m 1,0,-1
 441 0 l 1,1,-1
 423 0 l 1,2,-1
 442 120 l 1,3,-1
 440 120 l 1,4,5
 408 59 408 59 355.5 24.5 c 128,-1,6
 303 -10 303 -10 241 -10 c 0,7,8
 148 -10 148 -10 106 62 c 128,-1,9
 64 134 64 134 84 260 c 256,10,11
 104 386 104 386 168.5 458 c 128,-1,12
 233 530 233 530 326 530 c 0,13,14
 389 530 389 530 430 495.5 c 128,-1,15
 471 461 471 461 484 400 c 1,16,-1
 486 400 l 1,17,-1
 541 750 l 1,18,-1
 560 750 l 1,0,-1
384 71 m 128,-1,20
 443 132 443 132 460 235 c 2,21,-1
 468 285 l 2,22,23
 484 388 484 388 444.5 449 c 128,-1,24
 405 510 405 510 323 510 c 0,25,26
 238 510 238 510 179.5 443.5 c 128,-1,27
 121 377 121 377 103 260 c 256,28,29
 84 143 84 143 121.5 76.5 c 128,-1,30
 159 10 159 10 244 10 c 0,31,19
 325 10 325 10 384 71 c 128,-1,20
EndSplineSet
EndChar

StartChar: eth
Encoding: 240 240 236
Width: 538
Flags: W
LayerCount: 2
Fore
SplineSet
445 626 m 1,0,1
 494 537 494 537 515.5 431.5 c 128,-1,2
 537 326 537 326 522 235 c 0,3,4
 504 122 504 122 434 56 c 128,-1,5
 364 -10 364 -10 261 -10 c 256,6,7
 158 -10 158 -10 108 56 c 128,-1,8
 58 122 58 122 76 235 c 256,9,10
 94 348 94 348 164.5 414 c 128,-1,11
 235 480 235 480 338 480 c 0,12,13
 395 480 395 480 436 459 c 128,-1,14
 477 438 477 438 500 398 c 1,15,-1
 502 399 l 1,16,17
 483 516 483 516 426 619 c 1,18,-1
 180 522 l 1,19,-1
 175 540 l 1,20,-1
 417 635 l 1,21,22
 351 745 351 745 275 772 c 1,23,-1
 285 790 l 1,24,25
 326 775 326 775 364.5 736 c 128,-1,26
 403 697 403 697 435 642 c 1,27,-1
 620 715 l 1,28,-1
 625 697 l 1,29,-1
 445 626 l 1,0,1
423 70 m 128,-1,31
 487 130 487 130 504 235 c 256,32,33
 521 340 521 340 475.5 400 c 128,-1,34
 430 460 430 460 335 460 c 256,35,36
 240 460 240 460 176 400 c 128,-1,37
 112 340 112 340 95 235 c 256,38,39
 78 130 78 130 123.5 70 c 128,-1,40
 169 10 169 10 264 10 c 256,41,30
 359 10 359 10 423 70 c 128,-1,31
EndSplineSet
EndChar

StartChar: dcroat
Encoding: 273 273 238
Width: 582
Flags: W
LayerCount: 2
Fore
SplineSet
653 615 m 1,0,-1
 539 615 l 1,1,-1
 441 0 l 1,2,-1
 423 0 l 1,3,-1
 442 120 l 1,4,-1
 440 120 l 1,5,6
 408 59 408 59 355.5 24.5 c 128,-1,7
 303 -10 303 -10 241 -10 c 0,8,9
 148 -10 148 -10 106 62 c 128,-1,10
 64 134 64 134 84 260 c 256,11,12
 104 386 104 386 168.5 458 c 128,-1,13
 233 530 233 530 326 530 c 0,14,15
 389 530 389 530 430 495.5 c 128,-1,16
 471 461 471 461 484 400 c 1,17,-1
 486 400 l 1,18,-1
 520 615 l 1,19,-1
 254 615 l 1,20,-1
 257 635 l 1,21,-1
 523 635 l 1,22,-1
 541 750 l 1,23,-1
 560 750 l 1,24,-1
 542 635 l 1,25,-1
 656 635 l 1,26,-1
 653 615 l 1,0,-1
384 71 m 128,-1,28
 443 132 443 132 460 235 c 2,29,-1
 468 285 l 2,30,31
 484 388 484 388 444.5 449 c 128,-1,32
 405 510 405 510 323 510 c 0,33,34
 238 510 238 510 179.5 443.5 c 128,-1,35
 121 377 121 377 103 260 c 256,36,37
 84 143 84 143 121.5 76.5 c 128,-1,38
 159 10 159 10 244 10 c 0,39,27
 325 10 325 10 384 71 c 128,-1,28
EndSplineSet
EndChar

StartChar: e
Encoding: 101 101 240
Width: 494
GlyphClass: 2
Flags: W
AnchorPoint: "Anchor-6" 267 520 basechar 0
AnchorPoint: "Anchor-5" 467 36 basechar 0
AnchorPoint: "Anchor-4" 267 0 basechar 0
LayerCount: 2
Fore
SplineSet
498 258 m 1,0,-1
 99 258 l 1,1,2
 81 137 81 137 126 73.5 c 128,-1,3
 171 10 171 10 273 10 c 0,4,5
 357 10 357 10 437 48 c 1,6,-1
 443 30 l 1,7,8
 358 -10 358 -10 270 -10 c 0,9,10
 158 -10 158 -10 109 60 c 128,-1,11
 60 130 60 130 80 260 c 0,12,13
 100 389 100 389 166 459.5 c 128,-1,14
 232 530 232 530 332 530 c 256,15,16
 432 530 432 530 475 459.5 c 128,-1,17
 518 389 518 389 498 260 c 2,18,-1
 498 258 l 1,0,-1
182.5 450.5 m 128,-1,20
 124 391 124 391 102 278 c 1,21,-1
 482 278 l 1,22,23
 496 391 496 391 456 450.5 c 128,-1,24
 416 510 416 510 329 510 c 256,25,19
 241 510 241 510 182.5 450.5 c 128,-1,20
EndSplineSet
EndChar

StartChar: eogonek
Encoding: 281 281 258
Width: 496
GlyphClass: 2
Flags: W
AnchorPoint: "Anchor-6" 267 520 basechar 0
AnchorPoint: "Anchor-5" 467 36 basechar 0
AnchorPoint: "Anchor-4" 267 0 basechar 0
LayerCount: 2
Fore
SplineSet
494 -163 m 1,0,1
 448 -184 448 -184 395 -184 c 0,2,3
 325 -184 325 -184 303.5 -158 c 128,-1,4
 282 -132 282 -132 287 -99 c 0,5,6
 295 -48 295 -48 353 0 c 1,7,8
 313 -10 313 -10 270 -10 c 0,9,10
 158 -10 158 -10 109 60 c 128,-1,11
 60 130 60 130 80 260 c 0,12,13
 100 389 100 389 166 459.5 c 128,-1,14
 232 530 232 530 332 530 c 256,15,16
 432 530 432 530 475 459.5 c 128,-1,17
 518 389 518 389 498 260 c 2,18,-1
 497 258 l 1,19,-1
 99 258 l 1,20,21
 81 137 81 137 126 73.5 c 128,-1,22
 171 10 171 10 273 10 c 0,23,24
 339 10 339 10 402 34 c 1,25,-1
 426 47 l 1,26,-1
 430 45 l 1,27,-1
 437 48 l 1,28,-1
 440 38 l 1,29,-1
 443 36 l 1,30,-1
 441 35 l 1,31,-1
 442 30 l 1,32,-1
 407 15 l 1,33,34
 315 -41 315 -41 306 -99 c 0,35,36
 300 -136 300 -136 328 -150 c 128,-1,37
 356 -164 356 -164 398 -164 c 0,38,39
 447 -164 447 -164 490 -145 c 1,40,-1
 494 -163 l 1,0,1
182.5 450.5 m 128,-1,42
 124 391 124 391 102 278 c 1,43,-1
 482 278 l 1,44,45
 496 391 496 391 456 450.5 c 128,-1,46
 416 510 416 510 329 510 c 256,47,41
 241 510 241 510 182.5 450.5 c 128,-1,42
EndSplineSet
EndChar

StartChar: uni0259
Encoding: 601 601 260
Width: 494
GlyphClass: 2
Flags: W
AnchorPoint: "Anchor-6" 263 520 basechar 0
AnchorPoint: "Anchor-5" 61 484 basechar 0
AnchorPoint: "Anchor-4" 263 0 basechar 0
LayerCount: 2
Fore
SplineSet
467.5 460 m 128,-1,1
 517 390 517 390 496 260 c 0,2,3
 476 131 476 131 410 60.5 c 128,-1,4
 344 -10 344 -10 245 -10 c 256,5,6
 145 -10 145 -10 101.5 60.5 c 128,-1,7
 58 131 58 131 78 260 c 2,8,-1
 79 262 l 1,9,-1
 478 262 l 1,10,11
 496 383 496 383 451 446.5 c 128,-1,12
 406 510 406 510 303 510 c 0,13,14
 219 510 219 510 139 472 c 1,15,-1
 134 490 l 1,16,17
 219 530 219 530 306 530 c 0,18,0
 418 530 418 530 467.5 460 c 128,-1,1
394 69.5 m 128,-1,20
 453 129 453 129 474 242 c 1,21,-1
 94 242 l 1,22,23
 80 129 80 129 120 69.5 c 128,-1,24
 160 10 160 10 248 10 c 256,25,19
 335 10 335 10 394 69.5 c 128,-1,20
EndSplineSet
EndChar

StartChar: f
Encoding: 102 102 261
Width: 386
Flags: W
LayerCount: 2
Fore
SplineSet
103 500 m 1,0,-1
 106 520 l 1,1,-1
 253 520 l 1,2,-1
 268 610 l 2,3,4
 280 686 280 686 315.5 723 c 128,-1,5
 351 760 351 760 413 760 c 0,6,7
 448 760 448 760 481 745 c 1,8,-1
 470 726 l 1,9,10
 442 740 442 740 410 740 c 0,11,12
 357 740 357 740 327 709 c 128,-1,13
 297 678 297 678 286 610 c 2,14,-1
 272 520 l 1,15,-1
 443 520 l 1,16,-1
 440 500 l 1,17,-1
 269 500 l 1,18,-1
 190 0 l 1,19,-1
 171 0 l 1,20,-1
 250 500 l 1,21,-1
 103 500 l 1,0,-1
EndSplineSet
EndChar

StartChar: g
Encoding: 103 103 262
Width: 518
GlyphClass: 2
Flags: W
AnchorPoint: "Anchor-6" 273 520 basechar 0
AnchorPoint: "Anchor-4" 273 -140 basechar 0
LayerCount: 2
Fore
SplineSet
524 520 m 1,0,-1
 446 30 l 2,1,2
 425 -103 425 -103 362 -166.5 c 128,-1,3
 299 -230 299 -230 188 -230 c 0,4,5
 97 -230 97 -230 26 -188 c 1,6,-1
 37 -170 l 1,7,8
 103 -210 103 -210 191 -210 c 0,9,10
 294 -210 294 -210 351 -152 c 128,-1,11
 408 -94 408 -94 427 30 c 2,12,-1
 442 120 l 1,13,-1
 440 120 l 1,14,15
 408 59 408 59 355.5 24.5 c 128,-1,16
 303 -10 303 -10 241 -10 c 0,17,18
 148 -10 148 -10 106 62 c 128,-1,19
 64 134 64 134 84 260 c 256,20,21
 104 386 104 386 168.5 458 c 128,-1,22
 233 530 233 530 326 530 c 0,23,24
 389 530 389 530 430 495.5 c 128,-1,25
 471 461 471 461 484 400 c 1,26,-1
 486 400 l 1,27,-1
 505 520 l 1,28,-1
 524 520 l 1,0,-1
384 71 m 128,-1,30
 443 132 443 132 460 235 c 2,31,-1
 468 285 l 2,32,33
 484 388 484 388 444.5 449 c 128,-1,34
 405 510 405 510 323 510 c 0,35,36
 238 510 238 510 179.5 443.5 c 128,-1,37
 121 377 121 377 103 260 c 256,38,39
 84 143 84 143 121.5 76.5 c 128,-1,40
 159 10 159 10 244 10 c 0,41,29
 325 10 325 10 384 71 c 128,-1,30
EndSplineSet
EndChar

StartChar: h
Encoding: 104 104 268
Width: 527
GlyphClass: 2
Flags: W
AnchorPoint: "Anchor-6" 273 750 basechar 0
AnchorPoint: "Anchor-4" 273 0 basechar 0
LayerCount: 2
Fore
SplineSet
492 476 m 128,-1,1
 524 422 524 422 508 320 c 2,2,-1
 457 0 l 1,3,-1
 438 0 l 1,4,-1
 489 320 l 2,5,6
 504 414 504 414 476.5 462 c 128,-1,7
 449 510 449 510 380 510 c 0,8,9
 325 510 325 510 274 480.5 c 128,-1,10
 223 451 223 451 187.5 400.5 c 128,-1,11
 152 350 152 350 142 290 c 2,12,-1
 96 0 l 1,13,-1
 77 0 l 1,14,-1
 196 750 l 1,15,-1
 215 750 l 1,16,-1
 158 388 l 1,17,-1
 160 388 l 1,18,19
 197 452 197 452 257 491 c 128,-1,20
 317 530 317 530 383 530 c 0,21,0
 460 530 460 530 492 476 c 128,-1,1
EndSplineSet
EndChar

StartChar: hbar
Encoding: 295 295 269
Width: 590
GlyphClass: 2
Flags: W
AnchorPoint: "Anchor-6" 338 750 basechar 0
AnchorPoint: "Anchor-4" 338 0 basechar 0
LayerCount: 2
Fore
SplineSet
556 476 m 128,-1,1
 588 422 588 422 572 320 c 2,2,-1
 521 0 l 1,3,-1
 502 0 l 1,4,-1
 553 320 l 2,5,6
 568 414 568 414 540.5 462 c 128,-1,7
 513 510 513 510 444 510 c 0,8,9
 389 510 389 510 338 480.5 c 128,-1,10
 287 451 287 451 251.5 400.5 c 128,-1,11
 216 350 216 350 206 290 c 2,12,-1
 160 0 l 1,13,-1
 141 0 l 1,14,-1
 239 615 l 1,15,-1
 125 615 l 1,16,-1
 128 635 l 1,17,-1
 242 635 l 1,18,-1
 260 750 l 1,19,-1
 279 750 l 1,20,-1
 261 635 l 1,21,-1
 527 635 l 1,22,-1
 524 615 l 1,23,-1
 258 615 l 1,24,-1
 222 388 l 1,25,-1
 223 388 l 1,26,27
 260 452 260 452 320.5 491 c 128,-1,28
 381 530 381 530 447 530 c 0,29,0
 524 530 524 530 556 476 c 128,-1,1
EndSplineSet
EndChar

StartChar: i
Encoding: 105 105 271
Width: 227
GlyphClass: 2
Flags: W
AnchorPoint: "Anchor-6" 124 520 basechar 0
AnchorPoint: "Anchor-5" 134 0 basechar 0
AnchorPoint: "Anchor-4" 124 0 basechar 0
LayerCount: 2
Fore
SplineSet
201 730 m 1,0,-1
 258 730 l 1,1,-1
 248 670 l 1,2,-1
 192 670 l 1,3,-1
 201 730 l 1,0,-1
187 520 m 1,4,-1
 206 520 l 1,5,-1
 123 0 l 1,6,-1
 104 0 l 1,7,-1
 187 520 l 1,4,-1
EndSplineSet
Substitution2: "Single Substitution lookup 19 subtable" dotlessi
Substitution2: "'locl' Localized Forms in Latin lookup 3 subtable" i.loclTRK
Substitution2: "'aalt' Access All Alternates in Latin lookup 0 subtable" i.loclTRK
EndChar

StartChar: dotlessi
Encoding: 305 305 272
Width: 189
GlyphClass: 2
Flags: W
AnchorPoint: "Anchor-6" 104 520 basechar 0
AnchorPoint: "Anchor-5" 114 0 basechar 0
AnchorPoint: "Anchor-4" 104 0 basechar 0
LayerCount: 2
Fore
SplineSet
168 520 m 1,0,-1
 187 520 l 1,1,-1
 104 0 l 1,2,-1
 86 0 l 1,3,-1
 168 520 l 1,0,-1
EndSplineSet
EndChar

StartChar: iogonek
Encoding: 303 303 284
Width: 197
GlyphClass: 2
Flags: W
AnchorPoint: "Anchor-6" 105 695 basechar 0
AnchorPoint: "Anchor-5" 115 0 basechar 0
AnchorPoint: "Anchor-4" 105 0 basechar 0
LayerCount: 2
Fore
SplineSet
238 695 m 1,0,-1
 228 635 l 1,1,-1
 172 635 l 1,2,-1
 181 695 l 1,3,-1
 238 695 l 1,0,-1
160 -199 m 1,4,5
 114 -220 114 -220 61 -220 c 0,6,7
 -9 -220 -9 -220 -30.5 -194 c 128,-1,8
 -52 -168 -52 -168 -47 -135 c 0,9,10
 -41 -96 -41 -96 -4.5 -58.5 c 128,-1,11
 32 -21 32 -21 92 11 c 1,12,-1
 172 520 l 1,13,-1
 191 520 l 1,14,-1
 109 0 l 1,15,16
 48 -32 48 -32 12.5 -66.5 c 128,-1,17
 -23 -101 -23 -101 -28 -135 c 0,18,19
 -34 -172 -34 -172 -6.5 -186 c 128,-1,20
 21 -200 21 -200 64 -200 c 0,21,22
 113 -200 113 -200 155 -181 c 1,23,-1
 160 -199 l 1,4,5
EndSplineSet
EndChar

StartChar: j
Encoding: 106 106 286
Width: 281
GlyphClass: 2
Flags: W
AnchorPoint: "Anchor-6" 140 520 basechar 0
AnchorPoint: "Anchor-4" 140 -140 basechar 0
LayerCount: 2
Fore
SplineSet
255 730 m 1,0,-1
 312 730 l 1,1,-1
 302 670 l 1,2,-1
 246 670 l 1,3,-1
 255 730 l 1,0,-1
45 -192.5 m 128,-1,5
 95 -175 95 -175 120 -131.5 c 128,-1,6
 145 -88 145 -88 158 0 c 2,7,-1
 241 520 l 1,8,-1
 260 520 l 1,9,-1
 177 0 l 2,10,11
 162 -93 162 -93 133.5 -141.5 c 128,-1,12
 105 -190 105 -190 51 -210 c 128,-1,13
 -3 -230 -3 -230 -101 -230 c 1,14,-1
 -98 -210 l 1,15,4
 -5 -210 -5 -210 45 -192.5 c 128,-1,5
EndSplineSet
Substitution2: "Single Substitution lookup 19 subtable" uni0237
EndChar

StartChar: uni0237
Encoding: 567 567 287
Width: 262
GlyphClass: 2
Flags: W
AnchorPoint: "Anchor-6" 140 520 basechar 0
AnchorPoint: "Anchor-4" 140 -140 basechar 0
LayerCount: 2
Fore
SplineSet
45 -192.5 m 128,-1,1
 95 -175 95 -175 120 -131.5 c 128,-1,2
 145 -88 145 -88 159 0 c 2,3,-1
 241 520 l 1,4,-1
 260 520 l 1,5,-1
 177 0 l 2,6,7
 162 -93 162 -93 134 -141.5 c 128,-1,8
 106 -190 106 -190 51.5 -210 c 128,-1,9
 -3 -230 -3 -230 -101 -230 c 1,10,-1
 -98 -210 l 1,11,0
 -5 -210 -5 -210 45 -192.5 c 128,-1,1
EndSplineSet
EndChar

StartChar: k
Encoding: 107 107 289
Width: 486
GlyphClass: 2
Flags: W
AnchorPoint: "Anchor-6" 222 750 basechar 0
AnchorPoint: "Anchor-4" 222 0 basechar 0
LayerCount: 2
Fore
SplineSet
196 750 m 1,0,-1
 215 750 l 1,1,-1
 140 277 l 1,2,-1
 142 277 l 1,3,-1
 483 520 l 1,4,-1
 515 520 l 1,5,-1
 162 270 l 1,6,-1
 448 0 l 1,7,-1
 416 0 l 1,8,-1
 140 263 l 1,9,-1
 138 263 l 1,10,-1
 96 0 l 1,11,-1
 77 0 l 1,12,-1
 196 750 l 1,0,-1
EndSplineSet
EndChar

StartChar: kgreenlandic
Encoding: 312 312 291
Width: 486
GlyphClass: 2
Flags: W
AnchorPoint: "Anchor-6" 222 520 basechar 0
AnchorPoint: "Anchor-4" 222 0 basechar 0
LayerCount: 2
Fore
SplineSet
160 520 m 1,0,-1
 179 520 l 1,1,-1
 140 277 l 1,2,-1
 142 277 l 1,3,-1
 483 520 l 1,4,-1
 515 520 l 1,5,-1
 162 270 l 1,6,-1
 448 0 l 1,7,-1
 416 0 l 1,8,-1
 140 263 l 1,9,-1
 138 263 l 1,10,-1
 96 0 l 1,11,-1
 77 0 l 1,12,-1
 160 520 l 1,0,-1
EndSplineSet
EndChar

StartChar: l
Encoding: 108 108 292
Width: 189
GlyphClass: 2
Flags: W
AnchorPoint: "Anchor-7" 188 750 basechar 0
AnchorPoint: "Anchor-6" 104 750 basechar 0
AnchorPoint: "Anchor-4" 104 0 basechar 0
LayerCount: 2
Fore
SplineSet
204 750 m 1,0,-1
 223 750 l 1,1,-1
 104 0 l 1,2,-1
 86 0 l 1,3,-1
 204 750 l 1,0,-1
EndSplineSet
EndChar

StartChar: lslash
Encoding: 322 322 298
Width: 353
GlyphClass: 2
Flags: W
AnchorPoint: "Anchor-7" 274 750 basechar 0
AnchorPoint: "Anchor-6" 189 750 basechar 0
AnchorPoint: "Anchor-4" 189 0 basechar 0
LayerCount: 2
Fore
SplineSet
406 431 m 1,0,-1
 243 359 l 1,1,-1
 186 0 l 1,2,-1
 167 0 l 1,3,-1
 223 350 l 1,4,-1
 68 281 l 1,5,-1
 64 299 l 1,6,-1
 226 371 l 1,7,-1
 286 750 l 1,8,-1
 305 750 l 1,9,-1
 246 380 l 1,10,-1
 401 449 l 1,11,-1
 406 431 l 1,0,-1
EndSplineSet
EndChar

StartChar: m
Encoding: 109 109 299
Width: 735
Flags: W
CounterMasks: 1 1c
LayerCount: 2
Fore
SplineSet
709.5 476.5 m 128,-1,1
 733 423 733 423 716 320 c 2,2,-1
 666 0 l 1,3,-1
 647 0 l 1,4,-1
 698 320 l 2,5,6
 728 510 728 510 620 510 c 0,7,8
 578 510 578 510 537.5 483.5 c 128,-1,9
 497 457 497 457 468 412.5 c 128,-1,10
 439 368 439 368 431 318 c 2,11,-1
 381 0 l 1,12,-1
 362 0 l 1,13,-1
 413 320 l 2,14,15
 443 510 443 510 336 510 c 0,16,17
 292 510 292 510 251 480.5 c 128,-1,18
 210 451 210 451 181 400.5 c 128,-1,19
 152 350 152 350 142 290 c 2,20,-1
 96 0 l 1,21,-1
 77 0 l 1,22,-1
 160 520 l 1,23,-1
 179 520 l 1,24,-1
 159 399 l 1,25,-1
 161 399 l 1,26,27
 193 459 193 459 240 494.5 c 128,-1,28
 287 530 287 530 338 530 c 0,29,30
 388 530 388 530 413 497 c 128,-1,31
 438 464 438 464 439 399 c 1,32,-1
 440 399 l 1,33,34
 471 456 471 456 521.5 493 c 128,-1,35
 572 530 572 530 623 530 c 0,36,0
 686 530 686 530 709.5 476.5 c 128,-1,1
EndSplineSet
EndChar

StartChar: n
Encoding: 110 110 300
Width: 527
GlyphClass: 2
Flags: W
AnchorPoint: "Anchor-6" 284 520 basechar 0
AnchorPoint: "Anchor-4" 284 0 basechar 0
LayerCount: 2
Fore
SplineSet
492 476 m 128,-1,1
 524 422 524 422 508 320 c 2,2,-1
 457 0 l 1,3,-1
 438 0 l 1,4,-1
 489 320 l 2,5,6
 519 510 519 510 380 510 c 0,7,8
 324 510 324 510 273 480.5 c 128,-1,9
 222 451 222 451 187 400.5 c 128,-1,10
 152 350 152 350 142 290 c 2,11,-1
 96 0 l 1,12,-1
 77 0 l 1,13,-1
 160 520 l 1,14,-1
 179 520 l 1,15,-1
 158 388 l 1,16,-1
 160 388 l 1,17,18
 196 452 196 452 256.5 491 c 128,-1,19
 317 530 317 530 383 530 c 0,20,0
 460 530 460 530 492 476 c 128,-1,1
EndSplineSet
EndChar

StartChar: eng
Encoding: 331 331 304
Width: 527
GlyphClass: 2
Flags: W
AnchorPoint: "Anchor-6" 284 520 basechar 0
AnchorPoint: "Anchor-4" 284 0 basechar 0
LayerCount: 2
Fore
SplineSet
492 476 m 128,-1,1
 524 422 524 422 508 320 c 2,2,-1
 447 -61 l 2,3,4
 435 -138 435 -138 397.5 -174.5 c 128,-1,5
 360 -211 360 -211 291 -211 c 0,6,7
 253 -211 253 -211 217 -196 c 1,8,-1
 227 -177 l 1,9,10
 257 -191 257 -191 294 -191 c 0,11,12
 355 -191 355 -191 386.5 -160.5 c 128,-1,13
 418 -130 418 -130 428 -61 c 2,14,-1
 489 320 l 2,15,16
 519 510 519 510 380 510 c 0,17,18
 324 510 324 510 273 480.5 c 128,-1,19
 222 451 222 451 187 400.5 c 128,-1,20
 152 350 152 350 142 290 c 2,21,-1
 96 0 l 1,22,-1
 77 0 l 1,23,-1
 160 520 l 1,24,-1
 179 520 l 1,25,-1
 158 388 l 1,26,-1
 160 388 l 1,27,28
 196 452 196 452 256.5 491 c 128,-1,29
 317 530 317 530 383 530 c 0,30,0
 460 530 460 530 492 476 c 128,-1,1
EndSplineSet
EndChar

StartChar: o
Encoding: 111 111 307
Width: 514
GlyphClass: 2
Flags: W
AnchorPoint: "Anchor-7" 422 480 basechar 0
AnchorPoint: "Anchor-6" 276 520 basechar 0
AnchorPoint: "Anchor-5" 323 0 basechar 0
AnchorPoint: "Anchor-4" 276 0 basechar 0
LayerCount: 2
Fore
SplineSet
107 62 m 128,-1,1
 60 134 60 134 80 260 c 256,2,3
 100 386 100 386 170 458 c 128,-1,4
 240 530 240 530 341 530 c 256,5,6
 443 530 443 530 490 458 c 128,-1,7
 537 386 537 386 517 260 c 256,8,9
 497 134 497 134 427 62 c 128,-1,10
 357 -10 357 -10 256 -10 c 256,11,0
 154 -10 154 -10 107 62 c 128,-1,1
416 76 m 128,-1,13
 479 142 479 142 498 260 c 256,14,15
 517 378 517 378 474.5 444 c 128,-1,16
 432 510 432 510 338 510 c 256,17,18
 244 510 244 510 181 444 c 128,-1,19
 118 378 118 378 99 260 c 256,20,21
 80 142 80 142 122.5 76 c 128,-1,22
 165 10 165 10 259 10 c 256,23,12
 353 10 353 10 416 76 c 128,-1,13
EndSplineSet
Substitution2: "Single Substitution lookup 21 subtable" ordmasculine
Substitution2: "'aalt' Access All Alternates in Latin lookup 0 subtable" ordmasculine
EndChar

StartChar: ohorn
Encoding: 417 417 323
Width: 526
GlyphClass: 2
Flags: W
AnchorPoint: "Anchor-7" 588 635 basechar 0
AnchorPoint: "Anchor-6" 276 520 basechar 0
AnchorPoint: "Anchor-5" 323 0 basechar 0
AnchorPoint: "Anchor-4" 276 0 basechar 0
LayerCount: 2
Fore
SplineSet
586 470.5 m 128,-1,1
 561 445 561 445 523 445 c 0,2,3
 510 445 510 445 497 448 c 1,4,5
 536 376 536 376 517 260 c 0,6,7
 497 134 497 134 427 62 c 128,-1,8
 357 -10 357 -10 256 -10 c 256,9,10
 154 -10 154 -10 107 62 c 128,-1,11
 60 134 60 134 80 260 c 256,12,13
 100 386 100 386 170 458 c 128,-1,14
 240 530 240 530 341 530 c 0,15,16
 427 530 427 530 475 478 c 1,17,18
 500 465 500 465 526 465 c 0,19,20
 588 465 588 465 600 543 c 0,21,22
 604 566 604 566 603 591.5 c 128,-1,23
 602 617 602 617 598 635 c 1,24,-1
 618 635 l 1,25,26
 625 587 625 587 619 543 c 0,27,0
 611 496 611 496 586 470.5 c 128,-1,1
416 76 m 128,-1,29
 479 142 479 142 498 260 c 256,30,31
 517 378 517 378 474.5 444 c 128,-1,32
 432 510 432 510 338 510 c 256,33,34
 244 510 244 510 181 444 c 128,-1,35
 118 378 118 378 99 260 c 256,36,37
 80 142 80 142 122.5 76 c 128,-1,38
 165 10 165 10 259 10 c 256,39,28
 353 10 353 10 416 76 c 128,-1,29
EndSplineSet
EndChar

StartChar: uni01EB
Encoding: 491 491 332
Width: 514
GlyphClass: 2
Flags: W
AnchorPoint: "Anchor-7" 422 480 basechar 0
AnchorPoint: "Anchor-6" 276 520 basechar 0
AnchorPoint: "Anchor-5" 323 0 basechar 0
AnchorPoint: "Anchor-4" 276 0 basechar 0
LayerCount: 2
Fore
SplineSet
201 -71.5 m 128,-1,1
 170 -104 170 -104 165 -135 c 0,2,3
 159 -172 159 -172 186.5 -186 c 128,-1,4
 214 -200 214 -200 257 -200 c 0,5,6
 306 -200 306 -200 348 -181 c 1,7,-1
 353 -199 l 1,8,9
 307 -220 307 -220 254 -220 c 0,10,11
 184 -220 184 -220 162.5 -194 c 128,-1,12
 141 -168 141 -168 146 -135 c 256,13,14
 151 -102 151 -102 178 -70 c 128,-1,15
 205 -38 205 -38 249 -10 c 1,16,17
 151 -8 151 -8 106 64 c 128,-1,18
 61 136 61 136 80 260 c 0,19,20
 100 386 100 386 170 458 c 128,-1,21
 240 530 240 530 341 530 c 256,22,23
 443 530 443 530 490 458 c 128,-1,24
 537 386 537 386 517 260 c 0,25,26
 499 144 499 144 437.5 73.5 c 128,-1,27
 376 3 376 3 287 -8 c 1,28,0
 232 -39 232 -39 201 -71.5 c 128,-1,1
122.5 76 m 128,-1,30
 165 10 165 10 259 10 c 256,31,32
 353 10 353 10 416 76 c 128,-1,33
 479 142 479 142 498 260 c 256,34,35
 517 378 517 378 474.5 444 c 128,-1,36
 432 510 432 510 338 510 c 256,37,38
 244 510 244 510 181 444 c 128,-1,39
 118 378 118 378 99 260 c 256,40,29
 80 142 80 142 122.5 76 c 128,-1,30
EndSplineSet
EndChar

StartChar: oslash
Encoding: 248 248 333
Width: 514
GlyphClass: 2
Flags: W
AnchorPoint: "Anchor-7" 422 480 basechar 0
AnchorPoint: "Anchor-6" 276 520 basechar 0
AnchorPoint: "Anchor-5" 323 0 basechar 0
AnchorPoint: "Anchor-4" 276 0 basechar 0
LayerCount: 2
Fore
SplineSet
517 260 m 0,1,2
 497 134 497 134 427 62 c 128,-1,3
 357 -10 357 -10 256 -10 c 0,4,5
 170 -10 170 -10 123 42 c 1,6,-1
 72 -16 l 1,7,-1
 59 -4 l 1,8,-1
 111 56 l 1,9,10
 59 129 59 129 80 260 c 0,11,12
 100 386 100 386 170 458 c 128,-1,13
 240 530 240 530 341 530 c 0,14,15
 427 530 427 530 475 478 c 1,16,-1
 525 536 l 1,17,-1
 538 524 l 1,18,-1
 486 464 l 1,19,0
 538 391 538 391 517 260 c 0,1,2
126 73 m 1,21,-1
 461 462 l 1,22,23
 417 510 417 510 338 510 c 0,24,25
 244 510 244 510 181 444 c 128,-1,26
 118 378 118 378 99 260 c 0,27,20
 80 138 80 138 126 73 c 1,21,-1
416 76 m 128,-1,29
 479 142 479 142 498 260 c 0,30,31
 517 382 517 382 472 447 c 1,32,-1
 136 58 l 1,33,34
 180 10 180 10 259 10 c 0,35,28
 353 10 353 10 416 76 c 128,-1,29
EndSplineSet
EndChar

StartChar: oe
Encoding: 339 339 337
Width: 911
Flags: W
LayerCount: 2
Fore
SplineSet
915 258 m 1,0,-1
 517 258 l 1,1,2
 499 138 499 138 543 74 c 128,-1,3
 587 10 587 10 686 10 c 0,4,5
 729 10 729 10 772.5 21.5 c 128,-1,6
 816 33 816 33 855 53 c 1,7,-1
 861 36 l 1,8,9
 821 14 821 14 775 2 c 128,-1,10
 729 -10 729 -10 683 -10 c 0,11,12
 596 -10 596 -10 547 36 c 128,-1,13
 498 82 498 82 493 168 c 1,14,15
 461 83 461 83 399 36.5 c 128,-1,16
 337 -10 337 -10 256 -10 c 0,17,18
 154 -10 154 -10 107 62 c 128,-1,19
 60 134 60 134 80 260 c 256,20,21
 100 386 100 386 170 458 c 128,-1,22
 240 530 240 530 341 530 c 0,23,24
 422 530 422 530 469 484 c 128,-1,25
 516 438 516 438 521 354 c 1,26,27
 552 439 552 439 611 484.5 c 128,-1,28
 670 530 670 530 750 530 c 0,29,30
 850 530 850 530 893 459.5 c 128,-1,31
 936 389 936 389 916 260 c 2,32,-1
 915 258 l 1,0,-1
416 76 m 128,-1,34
 479 142 479 142 498 260 c 256,35,36
 517 378 517 378 474.5 444 c 128,-1,37
 432 510 432 510 338 510 c 256,38,39
 244 510 244 510 181 444 c 128,-1,40
 118 378 118 378 99 260 c 256,41,42
 80 142 80 142 122.5 76 c 128,-1,43
 165 10 165 10 259 10 c 256,44,33
 353 10 353 10 416 76 c 128,-1,34
600 450.5 m 128,-1,46
 541 391 541 391 520 278 c 1,47,-1
 900 278 l 1,48,49
 914 391 914 391 874 450.5 c 128,-1,50
 834 510 834 510 747 510 c 256,51,45
 659 510 659 510 600 450.5 c 128,-1,46
EndSplineSet
EndChar

StartChar: p
Encoding: 112 112 338
Width: 515
Flags: W
LayerCount: 2
Fore
SplineSet
495.5 458 m 128,-1,1
 537 386 537 386 517 260 c 256,2,3
 497 134 497 134 432.5 62 c 128,-1,4
 368 -10 368 -10 275 -10 c 0,5,6
 212 -10 212 -10 171 24.5 c 128,-1,7
 130 59 130 59 117 120 c 1,8,-1
 115 120 l 1,9,-1
 61 -220 l 1,10,-1
 43 -220 l 1,11,-1
 160 520 l 1,12,-1
 179 520 l 1,13,-1
 160 400 l 1,14,-1
 161 400 l 1,15,16
 193 461 193 461 245.5 495.5 c 128,-1,17
 298 530 298 530 360 530 c 0,18,0
 454 530 454 530 495.5 458 c 128,-1,1
421.5 76.5 m 128,-1,20
 480 143 480 143 498 260 c 256,21,22
 517 377 517 377 479.5 443.5 c 128,-1,23
 442 510 442 510 357 510 c 0,24,25
 275 510 275 510 216.5 449 c 128,-1,26
 158 388 158 388 141 285 c 2,27,-1
 133 235 l 2,28,29
 117 132 117 132 157 71 c 128,-1,30
 197 10 197 10 278 10 c 0,31,19
 363 10 363 10 421.5 76.5 c 128,-1,20
EndSplineSet
EndChar

StartChar: thorn
Encoding: 254 254 339
Width: 518
Flags: W
LayerCount: 2
Fore
SplineSet
495.5 458 m 128,-1,1
 537 386 537 386 517 260 c 256,2,3
 497 134 497 134 432.5 62 c 128,-1,4
 368 -10 368 -10 275 -10 c 0,5,6
 212 -10 212 -10 171 24.5 c 128,-1,7
 130 59 130 59 117 120 c 1,8,-1
 115 120 l 1,9,-1
 61 -220 l 1,10,-1
 43 -220 l 1,11,-1
 196 750 l 1,12,-1
 215 750 l 1,13,-1
 160 400 l 1,14,-1
 161 400 l 1,15,16
 193 461 193 461 245.5 495.5 c 128,-1,17
 298 530 298 530 360 530 c 0,18,0
 454 530 454 530 495.5 458 c 128,-1,1
421.5 76.5 m 128,-1,20
 480 143 480 143 498 260 c 256,21,22
 517 377 517 377 479.5 443.5 c 128,-1,23
 442 510 442 510 357 510 c 0,24,25
 275 510 275 510 216.5 449 c 128,-1,26
 158 388 158 388 141 285 c 2,27,-1
 133 235 l 2,28,29
 117 132 117 132 157 71 c 128,-1,30
 197 10 197 10 278 10 c 0,31,19
 363 10 363 10 421.5 76.5 c 128,-1,20
EndSplineSet
EndChar

StartChar: q
Encoding: 113 113 340
Width: 515
Flags: W
LayerCount: 2
Fore
SplineSet
520 520 m 1,0,-1
 403 -220 l 1,1,-1
 384 -220 l 1,2,-1
 438 120 l 1,3,-1
 436 120 l 1,4,5
 404 59 404 59 352 24.5 c 128,-1,6
 300 -10 300 -10 237 -10 c 0,7,8
 144 -10 144 -10 102 62 c 128,-1,9
 60 134 60 134 80 260 c 256,10,11
 100 386 100 386 164.5 458 c 128,-1,12
 229 530 229 530 322 530 c 0,13,14
 385 530 385 530 426 495.5 c 128,-1,15
 467 461 467 461 480 400 c 1,16,-1
 482 400 l 1,17,-1
 501 520 l 1,18,-1
 520 520 l 1,0,-1
381 71 m 128,-1,20
 440 132 440 132 456 235 c 2,21,-1
 464 285 l 2,22,23
 480 388 480 388 440.5 449 c 128,-1,24
 401 510 401 510 319 510 c 0,25,26
 234 510 234 510 176 443.5 c 128,-1,27
 118 377 118 377 99 260 c 256,28,29
 80 143 80 143 117.5 76.5 c 128,-1,30
 155 10 155 10 240 10 c 0,31,19
 322 10 322 10 381 71 c 128,-1,20
EndSplineSet
EndChar

StartChar: r
Encoding: 114 114 341
Width: 349
GlyphClass: 2
Flags: W
AnchorPoint: "Anchor-6" 202 520 basechar 0
AnchorPoint: "Anchor-4" 202 0 basechar 0
LayerCount: 2
Fore
SplineSet
268 487.5 m 128,-1,1
 339 530 339 530 418 530 c 1,2,-1
 414 510 l 1,3,4
 349 510 349 510 290 479.5 c 128,-1,5
 231 449 231 449 190.5 396 c 128,-1,6
 150 343 150 343 140 280 c 2,7,-1
 96 0 l 1,8,-1
 77 0 l 1,9,-1
 160 520 l 1,10,-1
 179 520 l 1,11,-1
 156 376 l 1,12,-1
 158 376 l 1,13,0
 197 445 197 445 268 487.5 c 128,-1,1
EndSplineSet
EndChar

StartChar: s
Encoding: 115 115 347
Width: 427
GlyphClass: 2
Flags: W
AnchorPoint: "Anchor-6" 229 520 basechar 0
AnchorPoint: "Anchor-4" 229 0 basechar 0
LayerCount: 2
Fore
SplineSet
44 31 m 1,1,-1
 56 49 l 1,2,3
 121 10 121 10 211 10 c 0,4,5
 288 10 288 10 335 41.5 c 128,-1,6
 382 73 382 73 391 130 c 0,7,8
 397 170 397 170 379.5 194.5 c 128,-1,9
 362 219 362 219 332.5 232 c 128,-1,10
 303 245 303 245 249 260 c 256,11,12
 195 275 195 275 164.5 288.5 c 128,-1,13
 134 302 134 302 114.5 329 c 128,-1,14
 95 356 95 356 102 400 c 0,15,16
 112 461 112 461 163 495.5 c 128,-1,17
 214 530 214 530 293 530 c 0,18,19
 338 530 338 530 383 520 c 128,-1,20
 428 510 428 510 453 494 c 1,21,-1
 441 476 l 1,22,23
 418 491 418 491 375.5 500.5 c 128,-1,24
 333 510 333 510 290 510 c 0,25,26
 218 510 218 510 173.5 481 c 128,-1,27
 129 452 129 452 120 400 c 0,28,29
 114 363 114 363 131 340.5 c 128,-1,30
 148 318 148 318 177 305.5 c 128,-1,31
 206 293 206 293 257 279 c 0,32,33
 311 263 311 263 344 248.5 c 128,-1,34
 377 234 377 234 397 205.5 c 128,-1,35
 417 177 417 177 410 130 c 0,36,37
 400 64 400 64 346 27 c 128,-1,38
 292 -10 292 -10 207 -10 c 0,39,0
 112 -10 112 -10 44 31 c 1,1,-1
EndSplineSet
EndChar

StartChar: scedilla
Encoding: 351 351 350
Width: 427
GlyphClass: 2
Flags: W
AnchorPoint: "Anchor-6" 229 520 basechar 0
AnchorPoint: "Anchor-4" 229 0 basechar 0
LayerCount: 2
Fore
SplineSet
354 33.5 m 128,-1,1
 308 -3 308 -3 234 -9 c 1,2,3
 271 -38 271 -38 288.5 -70.5 c 128,-1,4
 306 -103 306 -103 300 -136 c 256,5,6
 295 -169 295 -169 265.5 -195 c 128,-1,7
 236 -221 236 -221 165 -221 c 0,8,9
 112 -221 112 -221 73 -200 c 1,10,-1
 83 -182 l 1,11,12
 119 -201 119 -201 169 -201 c 0,13,14
 212 -201 212 -201 244 -187 c 128,-1,15
 276 -173 276 -173 282 -136 c 0,16,17
 287 -104 287 -104 266 -72 c 128,-1,18
 245 -40 245 -40 201 -10 c 1,19,20
 110 -8 110 -8 44 31 c 1,21,-1
 56 49 l 1,22,23
 121 10 121 10 211 10 c 0,24,25
 288 10 288 10 335 41.5 c 128,-1,26
 382 73 382 73 391 130 c 0,27,28
 397 170 397 170 379.5 194.5 c 128,-1,29
 362 219 362 219 332.5 232 c 128,-1,30
 303 245 303 245 249 260 c 256,31,32
 195 275 195 275 164 288.5 c 128,-1,33
 133 302 133 302 114 329 c 128,-1,34
 95 356 95 356 102 400 c 0,35,36
 112 461 112 461 163 495.5 c 128,-1,37
 214 530 214 530 293 530 c 0,38,39
 338 530 338 530 382.5 520 c 128,-1,40
 427 510 427 510 453 494 c 1,41,-1
 441 476 l 1,42,43
 418 491 418 491 375 500.5 c 128,-1,44
 332 510 332 510 290 510 c 0,45,46
 218 510 218 510 173.5 481 c 128,-1,47
 129 452 129 452 120 400 c 0,48,49
 114 363 114 363 131 340.5 c 128,-1,50
 148 318 148 318 177 305.5 c 128,-1,51
 206 293 206 293 257 279 c 0,52,53
 311 263 311 263 344 248.5 c 128,-1,54
 377 234 377 234 397 205.5 c 128,-1,55
 417 177 417 177 410 130 c 0,56,0
 400 70 400 70 354 33.5 c 128,-1,1
EndSplineSet
Substitution2: "'locl' Localized Forms in Latin lookup 4 subtable" uni0219
Substitution2: "'aalt' Access All Alternates in Latin lookup 0 subtable" uni0219
EndChar

StartChar: germandbls
Encoding: 223 223 353
Width: 535
Flags: W
LayerCount: 2
Fore
SplineSet
245.5 -3 m 128,-1,1
 205 4 205 4 167 15 c 1,2,-1
 176 35 l 1,3,4
 210 24 210 24 250 17 c 128,-1,5
 290 10 290 10 321 10 c 0,6,7
 393 10 393 10 441.5 51 c 128,-1,8
 490 92 490 92 501 160 c 0,9,10
 506 190 506 190 500 214 c 128,-1,11
 494 238 494 238 474.5 267 c 128,-1,12
 455 296 455 296 415 345 c 0,13,14
 388 377 388 377 379 392 c 128,-1,15
 370 407 370 407 372 420 c 0,16,17
 374 431 374 431 385 445 c 128,-1,18
 396 459 396 459 424 486 c 0,19,20
 480 540 480 540 502 572.5 c 128,-1,21
 524 605 524 605 530 640 c 0,22,23
 546 740 546 740 384 740 c 0,24,25
 318 740 318 740 278.5 723 c 128,-1,26
 239 706 239 706 217 666.5 c 128,-1,27
 195 627 195 627 184 555 c 2,28,-1
 96 0 l 1,29,-1
 77 0 l 1,30,-1
 165 555 l 2,31,32
 177 632 177 632 202.5 676 c 128,-1,33
 228 720 228 720 272 740 c 128,-1,34
 316 760 316 760 387 760 c 0,35,36
 475 760 475 760 516.5 729.5 c 128,-1,37
 558 699 558 699 549 640 c 0,38,39
 543 601 543 601 518.5 565 c 128,-1,40
 494 529 494 529 436 473 c 0,41,42
 409 446 409 446 400 435.5 c 128,-1,43
 391 425 391 425 390 420 c 0,44,45
 389 413 389 413 397 402 c 128,-1,46
 405 391 405 391 430 360 c 0,47,48
 472 311 472 311 493 279 c 128,-1,49
 514 247 514 247 519.5 220 c 128,-1,50
 525 193 525 193 520 160 c 0,51,52
 508 83 508 83 452 36.5 c 128,-1,53
 396 -10 396 -10 318 -10 c 0,54,0
 286 -10 286 -10 245.5 -3 c 128,-1,1
EndSplineSet
EndChar

StartChar: t
Encoding: 116 116 354
Width: 414
GlyphClass: 2
Flags: W
AnchorPoint: "Anchor-8" 251 0 basechar 0
AnchorPoint: "Anchor-7" 421 520 basechar 0
AnchorPoint: "Anchor-6" 232 520 basechar 0
AnchorPoint: "Anchor-4" 232 0 basechar 0
LayerCount: 2
Fore
SplineSet
193 23.5 m 128,-1,1
 171 57 171 57 184 140 c 2,2,-1
 241 500 l 1,3,-1
 112 500 l 1,4,-1
 115 520 l 1,5,-1
 244 520 l 1,6,-1
 274 710 l 1,7,-1
 293 710 l 1,8,-1
 263 520 l 1,9,-1
 452 520 l 1,10,-1
 449 500 l 1,11,-1
 260 500 l 1,12,-1
 203 140 l 2,13,14
 195 90 195 90 200 62 c 128,-1,15
 205 34 205 34 225 22 c 128,-1,16
 245 10 245 10 285 10 c 0,17,18
 324 10 324 10 371 24 c 1,19,-1
 373 5 l 1,20,21
 327 -10 327 -10 282 -10 c 0,22,0
 215 -10 215 -10 193 23.5 c 128,-1,1
EndSplineSet
EndChar

StartChar: tbar
Encoding: 359 359 355
Width: 397
GlyphClass: 2
Flags: W
AnchorPoint: "Anchor-8" 251 0 basechar 0
AnchorPoint: "Anchor-7" 421 520 basechar 0
AnchorPoint: "Anchor-6" 232 520 basechar 0
AnchorPoint: "Anchor-4" 232 0 basechar 0
LayerCount: 2
Fore
SplineSet
373 5 m 1,0,1
 327 -10 327 -10 282 -10 c 0,2,3
 216 -10 216 -10 193.5 23.5 c 128,-1,4
 171 57 171 57 184 140 c 2,5,-1
 200 240 l 1,6,-1
 70 240 l 1,7,-1
 73 260 l 1,8,-1
 203 260 l 1,9,-1
 241 500 l 1,10,-1
 112 500 l 1,11,-1
 115 520 l 1,12,-1
 244 520 l 1,13,-1
 274 710 l 1,14,-1
 293 710 l 1,15,-1
 263 520 l 1,16,-1
 452 520 l 1,17,-1
 449 500 l 1,18,-1
 260 500 l 1,19,-1
 222 260 l 1,20,-1
 396 260 l 1,21,-1
 393 240 l 1,22,-1
 219 240 l 1,23,-1
 203 140 l 2,24,25
 195 90 195 90 200 62 c 128,-1,26
 205 34 205 34 225 22 c 128,-1,27
 245 10 245 10 285 10 c 0,28,29
 324 10 324 10 371 24 c 1,30,-1
 373 5 l 1,0,1
EndSplineSet
EndChar

StartChar: uni0163
Encoding: 355 355 357
Width: 414
GlyphClass: 2
Flags: W
AnchorPoint: "Anchor-8" 251 0 basechar 0
AnchorPoint: "Anchor-7" 421 520 basechar 0
AnchorPoint: "Anchor-6" 232 520 basechar 0
AnchorPoint: "Anchor-4" 232 0 basechar 0
LayerCount: 2
Fore
SplineSet
336.5 -70 m 128,-1,1
 353 -102 353 -102 348 -135 c 256,2,3
 343 -168 343 -168 313.5 -194 c 128,-1,4
 284 -220 284 -220 213 -220 c 0,5,6
 160 -220 160 -220 121 -199 c 1,7,-1
 131 -181 l 1,8,9
 167 -200 167 -200 217 -200 c 0,10,11
 260 -200 260 -200 292 -186 c 128,-1,12
 324 -172 324 -172 329 -135 c 0,13,14
 334 -103 334 -103 313 -70.5 c 128,-1,15
 292 -38 292 -38 246 -7 c 1,16,17
 202 0 202 0 187.5 34.5 c 128,-1,18
 173 69 173 69 184 140 c 2,19,-1
 241 500 l 1,20,-1
 112 500 l 1,21,-1
 115 520 l 1,22,-1
 244 520 l 1,23,-1
 274 710 l 1,24,-1
 293 710 l 1,25,-1
 263 520 l 1,26,-1
 452 520 l 1,27,-1
 449 500 l 1,28,-1
 260 500 l 1,29,-1
 203 140 l 2,30,31
 195 90 195 90 200 62 c 128,-1,32
 205 34 205 34 225 22 c 128,-1,33
 245 10 245 10 285 10 c 0,34,35
 324 10 324 10 371 24 c 1,36,-1
 373 5 l 1,37,38
 328 -10 328 -10 285 -10 c 1,39,0
 320 -38 320 -38 336.5 -70 c 128,-1,1
EndSplineSet
Substitution2: "'locl' Localized Forms in Latin lookup 4 subtable" uni021B
Substitution2: "'aalt' Access All Alternates in Latin lookup 0 subtable" uni021B
EndChar

StartChar: u
Encoding: 117 117 359
Width: 517
GlyphClass: 2
Flags: W
AnchorPoint: "Anchor-7" 471 480 basechar 0
AnchorPoint: "Anchor-6" 279 520 basechar 0
AnchorPoint: "Anchor-5" 471 0 basechar 0
AnchorPoint: "Anchor-4" 279 0 basechar 0
LayerCount: 2
Fore
SplineSet
523 520 m 1,0,-1
 440 0 l 1,1,-1
 421 0 l 1,2,-1
 442 128 l 1,3,-1
 440 128 l 1,4,5
 404 65 404 65 348.5 27.5 c 128,-1,6
 293 -10 293 -10 231 -10 c 0,7,8
 155 -10 155 -10 120.5 46 c 128,-1,9
 86 102 86 102 102 200 c 2,10,-1
 152 520 l 1,11,-1
 171 520 l 1,12,-1
 121 200 l 2,13,14
 107 110 107 110 136.5 60 c 128,-1,15
 166 10 166 10 234 10 c 0,16,17
 286 10 286 10 334 39.5 c 128,-1,18
 382 69 382 69 415 119 c 128,-1,19
 448 169 448 169 458 230 c 2,20,-1
 504 520 l 1,21,-1
 523 520 l 1,0,-1
EndSplineSet
EndChar

StartChar: uhorn
Encoding: 432 432 368
Width: 541
GlyphClass: 2
Flags: W
AnchorPoint: "Anchor-7" 638 635 basechar 0
AnchorPoint: "Anchor-6" 279 520 basechar 0
AnchorPoint: "Anchor-5" 472 0 basechar 0
AnchorPoint: "Anchor-4" 279 0 basechar 0
LayerCount: 2
Fore
SplineSet
664 543 m 0,1,2
 657 496 657 496 631.5 470.5 c 128,-1,3
 606 445 606 445 568 445 c 0,4,5
 540 445 540 445 513 458 c 1,6,-1
 440 0 l 1,7,-1
 421 0 l 1,8,-1
 442 128 l 1,9,-1
 440 128 l 1,10,11
 404 65 404 65 348.5 27.5 c 128,-1,12
 293 -10 293 -10 231 -10 c 0,13,14
 155 -10 155 -10 120.5 46 c 128,-1,15
 86 102 86 102 102 200 c 2,16,-1
 152 520 l 1,17,-1
 171 520 l 1,18,-1
 121 200 l 2,19,20
 107 110 107 110 136.5 60 c 128,-1,21
 166 10 166 10 234 10 c 0,22,23
 286 10 286 10 334 39.5 c 128,-1,24
 382 69 382 69 415 119 c 128,-1,25
 448 169 448 169 458 230 c 2,26,-1
 504 520 l 1,27,-1
 523 520 l 1,28,-1
 516 480 l 1,29,30
 542 465 542 465 571 465 c 0,31,32
 633 465 633 465 645 543 c 0,33,34
 649 566 649 566 648 591.5 c 128,-1,35
 647 617 647 617 643 635 c 1,36,-1
 663 635 l 1,37,0
 671 587 671 587 664 543 c 0,1,2
EndSplineSet
EndChar

StartChar: uogonek
Encoding: 371 371 377
Width: 520
GlyphClass: 2
Flags: W
AnchorPoint: "Anchor-7" 471 480 basechar 0
AnchorPoint: "Anchor-6" 279 520 basechar 0
AnchorPoint: "Anchor-5" 471 0 basechar 0
AnchorPoint: "Anchor-4" 279 0 basechar 0
LayerCount: 2
Fore
SplineSet
491 -199 m 1,0,1
 445 -220 445 -220 392 -220 c 0,2,3
 322 -220 322 -220 300.5 -194 c 128,-1,4
 279 -168 279 -168 284 -135 c 0,5,6
 290 -96 290 -96 326.5 -58.5 c 128,-1,7
 363 -21 363 -21 423 11 c 1,8,-1
 441 128 l 1,9,-1
 440 128 l 1,10,11
 404 65 404 65 348 27.5 c 128,-1,12
 292 -10 292 -10 231 -10 c 0,13,14
 155 -10 155 -10 120.5 46 c 128,-1,15
 86 102 86 102 102 200 c 2,16,-1
 152 520 l 1,17,-1
 171 520 l 1,18,-1
 121 200 l 2,19,20
 107 110 107 110 136.5 60 c 128,-1,21
 166 10 166 10 234 10 c 0,22,23
 286 10 286 10 334 39.5 c 128,-1,24
 382 69 382 69 415 119 c 128,-1,25
 448 169 448 169 458 230 c 2,26,-1
 504 520 l 1,27,-1
 522 520 l 1,28,-1
 440 0 l 1,29,30
 379 -32 379 -32 343.5 -66.5 c 128,-1,31
 308 -101 308 -101 303 -135 c 0,32,33
 297 -172 297 -172 324.5 -186 c 128,-1,34
 352 -200 352 -200 395 -200 c 0,35,36
 444 -200 444 -200 486 -181 c 1,37,-1
 491 -199 l 1,0,1
EndSplineSet
EndChar

StartChar: v
Encoding: 118 118 380
Width: 458
Flags: W
LayerCount: 2
Fore
SplineSet
98 520 m 1,0,-1
 119 520 l 1,1,-1
 231 17 l 1,2,-1
 233 17 l 1,3,-1
 504 520 l 1,4,-1
 525 520 l 1,5,-1
 243 0 l 1,6,-1
 215 0 l 1,7,-1
 98 520 l 1,0,-1
EndSplineSet
EndChar

StartChar: w
Encoding: 119 119 381
Width: 707
GlyphClass: 2
Flags: W
AnchorPoint: "Anchor-6" 378 520 basechar 0
AnchorPoint: "Anchor-4" 378 0 basechar 0
LayerCount: 2
Fore
SplineSet
113 520 m 1,0,-1
 133 520 l 1,1,-1
 200 21 l 1,2,-1
 201 21 l 1,3,-1
 422 520 l 1,4,-1
 451 520 l 1,5,-1
 513 21 l 1,6,-1
 515 21 l 1,7,-1
 739 520 l 1,8,-1
 759 520 l 1,9,-1
 525 0 l 1,10,-1
 496 0 l 1,11,-1
 434 499 l 1,12,-1
 432 499 l 1,13,-1
 211 0 l 1,14,-1
 183 0 l 1,15,-1
 113 520 l 1,0,-1
EndSplineSet
EndChar

StartChar: x
Encoding: 120 120 386
Width: 477
Flags: W
LayerCount: 2
Fore
SplineSet
268 263 m 1,0,-1
 126 520 l 1,1,-1
 150 520 l 1,2,-1
 282 280 l 1,3,-1
 284 280 l 1,4,-1
 492 520 l 1,5,-1
 516 520 l 1,6,-1
 293 263 l 1,7,-1
 438 0 l 1,8,-1
 414 0 l 1,9,-1
 279 247 l 1,10,-1
 277 247 l 1,11,-1
 63 0 l 1,12,-1
 39 0 l 1,13,-1
 268 263 l 1,0,-1
EndSplineSet
EndChar

StartChar: y
Encoding: 121 121 387
Width: 467
GlyphClass: 2
Flags: W
AnchorPoint: "Anchor-6" 250 520 basechar 0
AnchorPoint: "Anchor-4" 250 0 basechar 0
LayerCount: 2
Fore
SplineSet
514 520 m 1,0,-1
 534 520 l 1,1,-1
 109 -220 l 1,2,-1
 89 -220 l 1,3,-1
 221 9 l 1,4,-1
 107 520 l 1,5,-1
 128 520 l 1,6,-1
 235 37 l 1,7,-1
 237 37 l 1,8,-1
 514 520 l 1,0,-1
EndSplineSet
EndChar

StartChar: z
Encoding: 122 122 396
Width: 444
GlyphClass: 2
Flags: W
AnchorPoint: "Anchor-6" 239 520 basechar 0
AnchorPoint: "Anchor-4" 239 0 basechar 0
LayerCount: 2
Fore
SplineSet
50 20 m 1,0,-1
 452 498 l 1,1,-1
 452 500 l 1,2,-1
 126 500 l 1,3,-1
 129 520 l 1,4,-1
 480 520 l 1,5,-1
 477 500 l 1,6,-1
 75 22 l 1,7,-1
 74 20 l 1,8,-1
 401 20 l 1,9,-1
 398 0 l 1,10,-1
 46 0 l 1,11,-1
 50 20 l 1,0,-1
EndSplineSet
EndChar

StartChar: f_f
Encoding: 65538 -1 400
Width: 689
GlyphClass: 3
Flags: W
LayerCount: 2
Fore
SplineSet
575 520 m 1,0,-1
 746 520 l 1,1,-1
 743 500 l 1,2,-1
 572 500 l 1,3,-1
 493 0 l 1,4,-1
 474 0 l 1,5,-1
 553 500 l 1,6,-1
 269 500 l 1,7,-1
 190 0 l 1,8,-1
 171 0 l 1,9,-1
 250 500 l 1,10,-1
 103 500 l 1,11,-1
 106 520 l 1,12,-1
 253 520 l 1,13,-1
 268 610 l 2,14,15
 280 686 280 686 315.5 723 c 128,-1,16
 351 760 351 760 413 760 c 0,17,18
 448 760 448 760 481 745 c 1,19,-1
 470 726 l 1,20,21
 442 740 442 740 410 740 c 0,22,23
 357 740 357 740 327 709 c 128,-1,24
 297 678 297 678 286 610 c 2,25,-1
 272 520 l 1,26,-1
 556 520 l 1,27,-1
 570 610 l 2,28,29
 582 686 582 686 618 723 c 128,-1,30
 654 760 654 760 716 760 c 0,31,32
 751 760 751 760 783 745 c 1,33,-1
 773 726 l 1,34,35
 745 740 745 740 712 740 c 0,36,37
 659 740 659 740 629.5 709 c 128,-1,38
 600 678 600 678 589 610 c 2,39,-1
 575 520 l 1,0,-1
EndSplineSet
Ligature2: "'liga' Standard Ligatures in Latin lookup 14 subtable" f f
EndChar

StartChar: ordfeminine
Encoding: 170 170 403
Width: 404
Flags: W
LayerCount: 2
Fore
SplineSet
421 701 m 128,-1,1
 447 664 447 664 433 578 c 2,2,-1
 392 314 l 1,3,-1
 372 314 l 1,4,-1
 385 397 l 1,5,-1
 383 397 l 1,6,7
 354 355 354 355 308.5 330.5 c 128,-1,8
 263 306 263 306 212 306 c 0,9,10
 151 306 151 306 119 339 c 128,-1,11
 87 372 87 372 96 426 c 0,12,13
 107 497 107 497 177.5 535.5 c 128,-1,14
 248 574 248 574 365 574 c 2,15,-1
 413 574 l 1,16,-1
 414 578 l 2,17,18
 426 656 426 656 404.5 687 c 128,-1,19
 383 718 383 718 316 718 c 0,20,21
 239 718 239 718 160 680 c 1,22,-1
 154 698 l 1,23,24
 237 738 237 738 320 738 c 0,25,0
 395 738 395 738 421 701 c 128,-1,1
299.5 346 m 128,-1,27
 339 366 339 366 365 401.5 c 128,-1,28
 391 437 391 437 398 481 c 2,29,-1
 410 554 l 1,30,-1
 362 554 l 2,31,32
 253 554 253 554 189 521 c 128,-1,33
 125 488 125 488 115 426 c 0,34,35
 108 380 108 380 135 353 c 128,-1,36
 162 326 162 326 215 326 c 0,37,26
 260 326 260 326 299.5 346 c 128,-1,27
EndSplineSet
EndChar

StartChar: ordmasculine
Encoding: 186 186 404
Width: 431
Flags: W
LayerCount: 2
Fore
SplineSet
141 364 m 128,-1,1
 102 422 102 422 118 522 c 256,2,3
 134 622 134 622 191 680 c 128,-1,4
 248 738 248 738 333 738 c 256,5,6
 417 738 417 738 456 680.5 c 128,-1,7
 495 623 495 623 479 522 c 256,8,9
 463 421 463 421 406 363.5 c 128,-1,10
 349 306 349 306 264 306 c 256,11,0
 180 306 180 306 141 364 c 128,-1,1
393.5 377.5 m 128,-1,13
 444 429 444 429 459 522 c 256,14,15
 474 615 474 615 439.5 666.5 c 128,-1,16
 405 718 405 718 330 718 c 256,17,18
 255 718 255 718 203.5 666.5 c 128,-1,19
 152 615 152 615 138 522 c 256,20,21
 123 429 123 429 157.5 377.5 c 128,-1,22
 192 326 192 326 267 326 c 256,23,12
 343 326 343 326 393.5 377.5 c 128,-1,13
EndSplineSet
EndChar

StartChar: zero.lf
Encoding: 65564 -1 415
Width: 581
Flags: W
LayerCount: 2
Fore
SplineSet
121 85.5 m 128,-1,1
 74 181 74 181 103 365 c 256,2,3
 132 549 132 549 209.5 644.5 c 128,-1,4
 287 740 287 740 408 740 c 256,5,6
 529 740 529 740 575.5 644.5 c 128,-1,7
 622 549 622 549 593 365 c 256,8,9
 564 181 564 181 486.5 85.5 c 128,-1,10
 409 -10 409 -10 289 -10 c 256,11,0
 168 -10 168 -10 121 85.5 c 128,-1,1
475 99.5 m 128,-1,13
 546 189 546 189 574 365 c 256,14,15
 602 541 602 541 559 630.5 c 128,-1,16
 516 720 516 720 405 720 c 256,17,18
 293 720 293 720 222 630.5 c 128,-1,19
 151 541 151 541 123 365 c 256,20,21
 95 189 95 189 137.5 99.5 c 128,-1,22
 180 10 180 10 292 10 c 256,23,12
 404 10 404 10 475 99.5 c 128,-1,13
EndSplineSet
Substitution2: "'tnum' Tabular Numbers in Latin lookup 11 subtable" zero
AlternateSubs2: "'aalt' Access All Alternates in Latin lookup 1 subtable" zero
EndChar

StartChar: one.lf
Encoding: 65565 -1 416
Width: 566
Flags: W
LayerCount: 2
Fore
SplineSet
435 702 m 1,0,-1
 433 702 l 1,1,-1
 147 465 l 1,2,-1
 135 480 l 1,3,-1
 439 730 l 1,4,-1
 459 730 l 1,5,-1
 343 0 l 1,6,-1
 324 0 l 1,7,-1
 435 702 l 1,0,-1
EndSplineSet
Substitution2: "'tnum' Tabular Numbers in Latin lookup 11 subtable" one
AlternateSubs2: "'aalt' Access All Alternates in Latin lookup 1 subtable" one
EndChar

StartChar: two.lf
Encoding: 65566 -1 417
Width: 576
Flags: W
LayerCount: 2
Fore
SplineSet
343 246.5 m 128,-1,1
 442 338 442 338 489.5 407 c 128,-1,2
 537 476 537 476 547 540 c 0,3,4
 560 622 560 622 518.5 671 c 128,-1,5
 477 720 477 720 394 720 c 0,6,7
 340 720 340 720 280.5 699.5 c 128,-1,8
 221 679 221 679 173 644 c 1,9,-1
 164 660 l 1,10,11
 215 696 215 696 278 718 c 128,-1,12
 341 740 341 740 397 740 c 0,13,14
 457 740 457 740 499 715 c 128,-1,15
 541 690 541 690 558.5 644.5 c 128,-1,16
 576 599 576 599 567 540 c 0,17,18
 557 474 557 474 509.5 404 c 128,-1,19
 462 334 462 334 365.5 244 c 128,-1,20
 269 154 269 154 102 22 c 1,21,-1
 102 20 l 1,22,-1
 494 20 l 1,23,-1
 490 0 l 1,24,-1
 69 0 l 1,25,-1
 72 20 l 1,26,0
 244 155 244 155 343 246.5 c 128,-1,1
EndSplineSet
Substitution2: "'tnum' Tabular Numbers in Latin lookup 11 subtable" two
AlternateSubs2: "'aalt' Access All Alternates in Latin lookup 1 subtable" two
EndChar

StartChar: three.lf
Encoding: 65567 -1 418
Width: 576
Flags: W
LayerCount: 2
Fore
SplineSet
79 44 m 1,1,-1
 92 61 l 1,2,3
 162 10 162 10 261 10 c 0,4,5
 366 10 366 10 429.5 62.5 c 128,-1,6
 493 115 493 115 509 215 c 0,7,8
 524 310 524 310 477 355 c 128,-1,9
 430 400 430 400 316 400 c 2,10,-1
 237 400 l 1,11,-1
 240 420 l 1,12,-1
 568 708 l 1,13,-1
 569 710 l 1,14,-1
 190 710 l 1,15,-1
 193 730 l 1,16,-1
 600 730 l 1,17,-1
 597 710 l 1,18,-1
 268 422 l 1,19,-1
 268 420 l 1,20,-1
 319 420 l 2,21,22
 441 420 441 420 493 369.5 c 128,-1,23
 545 319 545 319 528 215 c 0,24,25
 511 107 511 107 440.5 48.5 c 128,-1,26
 370 -10 370 -10 257 -10 c 0,27,0
 155 -10 155 -10 79 44 c 1,1,-1
EndSplineSet
Substitution2: "'tnum' Tabular Numbers in Latin lookup 11 subtable" three
AlternateSubs2: "'aalt' Access All Alternates in Latin lookup 1 subtable" three
EndChar

StartChar: four.lf
Encoding: 65568 -1 419
Width: 583
Flags: W
LayerCount: 2
Fore
SplineSet
416 190 m 1,0,-1
 44 190 l 1,1,-1
 47 210 l 1,2,-1
 502 730 l 1,3,-1
 521 730 l 1,4,-1
 439 210 l 1,5,-1
 576 210 l 1,6,-1
 573 190 l 1,7,-1
 436 190 l 1,8,-1
 406 0 l 1,9,-1
 386 0 l 1,10,-1
 416 190 l 1,0,-1
419 210 m 1,11,-1
 496 696 l 1,12,-1
 494 696 l 1,13,-1
 72 212 l 1,14,-1
 71 210 l 1,15,-1
 419 210 l 1,11,-1
EndSplineSet
Substitution2: "'tnum' Tabular Numbers in Latin lookup 11 subtable" four
AlternateSubs2: "'aalt' Access All Alternates in Latin lookup 1 subtable" four
EndChar

StartChar: five.lf
Encoding: 65569 -1 420
Width: 576
Flags: W
LayerCount: 2
Fore
SplineSet
163 4.5 m 128,-1,1
 118 19 118 19 84 45 c 1,2,-1
 98 62 l 1,3,4
 163 10 163 10 260 10 c 0,5,6
 362 10 362 10 430.5 69 c 128,-1,7
 499 128 499 128 516 230 c 0,8,9
 531 325 531 325 484.5 375 c 128,-1,10
 438 425 438 425 336 425 c 0,11,12
 290 425 290 425 253 413.5 c 128,-1,13
 216 402 216 402 177 375 c 1,14,-1
 156 375 l 1,15,-1
 238 730 l 1,16,-1
 585 730 l 1,17,-1
 582 710 l 1,18,-1
 254 710 l 1,19,-1
 182 400 l 1,20,-1
 184 400 l 1,21,22
 221 424 221 424 257.5 434.5 c 128,-1,23
 294 445 294 445 339 445 c 0,24,25
 450 445 450 445 500.5 389 c 128,-1,26
 551 333 551 333 535 230 c 0,27,28
 523 157 523 157 485.5 103 c 128,-1,29
 448 49 448 49 389 19.5 c 128,-1,30
 330 -10 330 -10 257 -10 c 0,31,0
 208 -10 208 -10 163 4.5 c 128,-1,1
EndSplineSet
Substitution2: "'tnum' Tabular Numbers in Latin lookup 11 subtable" five
AlternateSubs2: "'aalt' Access All Alternates in Latin lookup 1 subtable" five
EndChar

StartChar: six.lf
Encoding: 65570 -1 421
Width: 580
Flags: W
LayerCount: 2
Fore
SplineSet
168.5 21 m 128,-1,1
 119 52 119 52 97.5 107.5 c 128,-1,2
 76 163 76 163 87 235 c 0,3,4
 109 376 109 376 166.5 484.5 c 128,-1,5
 224 593 224 593 310 658.5 c 128,-1,6
 396 724 396 724 503 740 c 1,7,-1
 504 720 l 1,8,9
 376 700 376 700 280.5 608.5 c 128,-1,10
 185 517 185 517 136 366 c 1,11,-1
 138 366 l 1,12,13
 177 422 177 422 236 451 c 128,-1,14
 295 480 295 480 366 480 c 0,15,16
 477 480 477 480 531 414 c 128,-1,17
 585 348 585 348 567 235 c 256,18,19
 549 122 549 122 474 56 c 128,-1,20
 399 -10 399 -10 289 -10 c 0,21,0
 218 -10 218 -10 168.5 21 c 128,-1,1
463.5 69.5 m 128,-1,23
 531 129 531 129 548 235 c 256,24,25
 565 341 565 341 516 400.5 c 128,-1,26
 467 460 467 460 363 460 c 256,27,28
 259 460 259 460 191.5 400.5 c 128,-1,29
 124 341 124 341 107 235 c 0,30,31
 96 168 96 168 115.5 117 c 128,-1,32
 135 66 135 66 180.5 38 c 128,-1,33
 226 10 226 10 292 10 c 0,34,22
 396 10 396 10 463.5 69.5 c 128,-1,23
EndSplineSet
Substitution2: "'tnum' Tabular Numbers in Latin lookup 11 subtable" six
AlternateSubs2: "'aalt' Access All Alternates in Latin lookup 1 subtable" six
EndChar

StartChar: seven.lf
Encoding: 65571 -1 422
Width: 577
Flags: W
LayerCount: 2
Fore
SplineSet
599 708 m 1,1,-1
 599 710 l 1,2,-1
 181 710 l 1,3,-1
 184 730 l 1,4,-1
 625 730 l 1,5,-1
 622 710 l 1,6,7
 402 417 402 417 206 0 c 1,8,-1
 186 0 l 1,9,0
 379 411 379 411 599 708 c 1,1,-1
EndSplineSet
Substitution2: "'tnum' Tabular Numbers in Latin lookup 11 subtable" seven
AlternateSubs2: "'aalt' Access All Alternates in Latin lookup 1 subtable" seven
EndChar

StartChar: eight.lf
Encoding: 65572 -1 423
Width: 581
Flags: W
LayerCount: 2
Fore
SplineSet
118.5 44 m 128,-1,1
 61 98 61 98 76 190 c 0,2,3
 100 343 100 343 302 390 c 1,4,-1
 303 392 l 1,5,6
 229 414 229 414 192 462.5 c 128,-1,7
 155 511 155 511 165 575 c 0,8,9
 177 651 177 651 243 695.5 c 128,-1,10
 309 740 309 740 408 740 c 256,11,12
 507 740 507 740 558.5 695.5 c 128,-1,13
 610 651 610 651 598 575 c 0,14,15
 588 510 588 510 536 462 c 128,-1,16
 484 414 484 414 404 392 c 1,17,-1
 403 390 l 1,18,19
 590 343 590 343 566 190 c 0,20,21
 556 129 556 129 519 84 c 128,-1,22
 482 39 482 39 422.5 14.5 c 128,-1,23
 363 -10 363 -10 289 -10 c 0,24,0
 176 -10 176 -10 118.5 44 c 128,-1,1
506.5 460.5 m 128,-1,26
 568 508 568 508 579 575 c 256,27,28
 590 642 590 642 543 681 c 128,-1,29
 496 720 496 720 405 720 c 256,30,31
 314 720 314 720 254.5 681 c 128,-1,32
 195 642 195 642 185 575 c 256,33,34
 174 508 174 508 220 460.5 c 128,-1,35
 266 413 266 413 354 400 c 1,36,25
 445 413 445 413 506.5 460.5 c 128,-1,26
464.5 58.5 m 128,-1,38
 533 107 533 107 546 190 c 0,39,40
 571 347 571 347 351 380 c 1,41,42
 120 345 120 345 95 190 c 0,43,44
 82 107 82 107 134.5 58.5 c 128,-1,45
 187 10 187 10 292 10 c 0,46,37
 396 10 396 10 464.5 58.5 c 128,-1,38
EndSplineSet
Substitution2: "'tnum' Tabular Numbers in Latin lookup 11 subtable" eight
AlternateSubs2: "'aalt' Access All Alternates in Latin lookup 1 subtable" eight
EndChar

StartChar: nine.lf
Encoding: 65573 -1 424
Width: 580
Flags: W
LayerCount: 2
Fore
SplineSet
527.5 709 m 128,-1,1
 577 678 577 678 598.5 622.5 c 128,-1,2
 620 567 620 567 609 495 c 0,3,4
 587 354 587 354 529.5 245.5 c 128,-1,5
 472 137 472 137 386 71.5 c 128,-1,6
 300 6 300 6 193 -10 c 1,7,-1
 192 10 l 1,8,9
 320 30 320 30 415.5 121.5 c 128,-1,10
 511 213 511 213 559 364 c 1,11,-1
 558 364 l 1,12,13
 519 308 519 308 460 279 c 128,-1,14
 401 250 401 250 330 250 c 0,15,16
 219 250 219 250 165 316 c 128,-1,17
 111 382 111 382 128 495 c 256,18,19
 146 608 146 608 221.5 674 c 128,-1,20
 297 740 297 740 407 740 c 0,21,0
 478 740 478 740 527.5 709 c 128,-1,1
232.5 660.5 m 128,-1,23
 165 601 165 601 148 495 c 256,24,25
 131 389 131 389 180 329.5 c 128,-1,26
 229 270 229 270 333 270 c 256,27,28
 437 270 437 270 504.5 329.5 c 128,-1,29
 572 389 572 389 589 495 c 0,30,31
 600 562 600 562 580.5 613 c 128,-1,32
 561 664 561 664 515.5 692 c 128,-1,33
 470 720 470 720 404 720 c 0,34,22
 300 720 300 720 232.5 660.5 c 128,-1,23
EndSplineSet
Substitution2: "'tnum' Tabular Numbers in Latin lookup 11 subtable" nine
AlternateSubs2: "'aalt' Access All Alternates in Latin lookup 1 subtable" nine
EndChar

StartChar: uni2070
Encoding: 8304 8304 425
Width: 348
Flags: W
LayerCount: 2
Fore
SplineSet
119.5 343.5 m 128,-1,1
 91 401 91 401 108 511 c 256,2,3
 125 621 125 621 172 678.5 c 128,-1,4
 219 736 219 736 291 736 c 0,5,6
 364 736 364 736 392 678.5 c 128,-1,7
 420 621 420 621 402 511 c 256,8,9
 385 401 385 401 338.5 343.5 c 128,-1,10
 292 286 292 286 220 286 c 0,11,0
 148 286 148 286 119.5 343.5 c 128,-1,1
383 511 m 256,13,14
 415 716 415 716 288 716 c 256,15,16
 161 716 161 716 128 511 c 256,17,18
 96 306 96 306 223 306 c 256,19,12
 351 306 351 306 383 511 c 256,13,14
EndSplineSet
EndChar

StartChar: uni00B9
Encoding: 185 185 426
Width: 340
Flags: W
LayerCount: 2
Fore
SplineSet
292 702 m 1,0,-1
 290 702 l 1,1,-1
 125 565 l 1,2,-1
 114 580 l 1,3,-1
 296 730 l 1,4,-1
 316 730 l 1,5,-1
 246 292 l 1,6,-1
 227 292 l 1,7,-1
 292 702 l 1,0,-1
EndSplineSet
EndChar

StartChar: uni00B2
Encoding: 178 178 427
Width: 346
Flags: W
LayerCount: 2
Fore
SplineSet
254.5 450 m 128,-1,1
 311 502 311 502 335.5 538 c 128,-1,2
 360 574 360 574 366 610 c 0,3,4
 374 659 374 659 350 687.5 c 128,-1,5
 326 716 326 716 277 716 c 0,6,7
 246 716 246 716 211 704 c 128,-1,8
 176 692 176 692 148 671 c 1,9,-1
 138 686 l 1,10,11
 169 709 169 709 207.5 722.5 c 128,-1,12
 246 736 246 736 280 736 c 0,13,14
 337 736 337 736 365.5 701.5 c 128,-1,15
 394 667 394 667 385 610 c 0,16,17
 379 572 379 572 354 534.5 c 128,-1,18
 329 497 329 497 275 446 c 128,-1,19
 221 395 221 395 120 314 c 1,20,-1
 120 312 l 1,21,-1
 343 312 l 1,22,-1
 340 292 l 1,23,-1
 87 292 l 1,24,-1
 90 312 l 1,25,0
 198 398 198 398 254.5 450 c 128,-1,1
EndSplineSet
EndChar

StartChar: uni00B3
Encoding: 179 179 428
Width: 345
Flags: W
LayerCount: 2
Fore
SplineSet
88 318 m 1,1,-1
 100 335 l 1,2,3
 142 306 142 306 198 306 c 0,4,5
 258 306 258 306 293.5 335.5 c 128,-1,6
 329 365 329 365 338 421 c 0,7,8
 346 474 346 474 320.5 499 c 128,-1,9
 295 524 295 524 229 524 c 2,10,-1
 182 524 l 1,11,-1
 186 548 l 1,12,-1
 368 708 l 1,13,-1
 368 710 l 1,14,-1
 154 710 l 1,15,-1
 157 730 l 1,16,-1
 401 730 l 1,17,-1
 398 710 l 1,18,-1
 211 546 l 1,19,-1
 211 544 l 1,20,-1
 232 544 l 2,21,22
 306 544 306 544 337 513.5 c 128,-1,23
 368 483 368 483 358 421 c 0,24,25
 348 356 348 356 305.5 321 c 128,-1,26
 263 286 263 286 195 286 c 0,27,0
 134 286 134 286 88 318 c 1,1,-1
EndSplineSet
EndChar

StartChar: uni2074
Encoding: 8308 8308 429
Width: 350
Flags: W
LayerCount: 2
Fore
SplineSet
285 402 m 1,0,-1
 65 402 l 1,1,-1
 69 422 l 1,2,-1
 337 730 l 1,3,-1
 357 730 l 1,4,-1
 308 422 l 1,5,-1
 386 422 l 1,6,-1
 383 402 l 1,7,-1
 305 402 l 1,8,-1
 287 292 l 1,9,-1
 268 292 l 1,10,-1
 285 402 l 1,0,-1
288 422 m 1,11,-1
 331 694 l 1,12,-1
 329 694 l 1,13,-1
 94 424 l 1,14,-1
 94 422 l 1,15,-1
 288 422 l 1,11,-1
EndSplineSet
EndChar

StartChar: fraction
Encoding: 8260 8260 430
Width: 469
Flags: W
LayerCount: 2
Fore
SplineSet
545 730 m 1,0,-1
 568 730 l 1,1,-1
 40 0 l 1,2,-1
 17 0 l 1,3,-1
 545 730 l 1,0,-1
EndSplineSet
EndChar

StartChar: onehalf
Encoding: 189 189 431
Width: 787
Flags: W
LayerCount: 2
Fore
SplineSet
303 702 m 1,0,-1
 138 565 l 1,1,-1
 126 580 l 1,2,-1
 309 730 l 1,3,-1
 329 730 l 1,4,-1
 259 292 l 1,5,-1
 240 292 l 1,6,-1
 305 702 l 1,7,-1
 303 702 l 1,0,-1
699 730 m 1,8,-1
 722 730 l 1,9,-1
 193 0 l 1,10,-1
 171 0 l 1,11,-1
 699 730 l 1,8,-1
640.5 158 m 128,-1,13
 697 210 697 210 722 246 c 128,-1,14
 747 282 747 282 752 318 c 0,15,16
 760 367 760 367 736 395.5 c 128,-1,17
 712 424 712 424 663 424 c 0,18,19
 632 424 632 424 597 412 c 128,-1,20
 562 400 562 400 535 379 c 1,21,-1
 524 394 l 1,22,23
 555 417 555 417 593.5 430.5 c 128,-1,24
 632 444 632 444 666 444 c 0,25,26
 723 444 723 444 752 409.5 c 128,-1,27
 781 375 781 375 772 318 c 0,28,29
 766 280 766 280 741 242.5 c 128,-1,30
 716 205 716 205 662 154 c 128,-1,31
 608 103 608 103 507 22 c 1,32,-1
 506 20 l 1,33,-1
 730 20 l 1,34,-1
 726 0 l 1,35,-1
 474 0 l 1,36,-1
 477 20 l 1,37,12
 584 106 584 106 640.5 158 c 128,-1,13
EndSplineSet
Ligature2: "'frac' Diagonal Fractions in Latin lookup 7 subtable" one slash two
EndChar

StartChar: onequarter
Encoding: 188 188 432
Width: 750
Flags: W
LayerCount: 2
Fore
SplineSet
303 702 m 1,0,-1
 138 565 l 1,1,-1
 126 580 l 1,2,-1
 309 730 l 1,3,-1
 329 730 l 1,4,-1
 259 292 l 1,5,-1
 240 292 l 1,6,-1
 305 702 l 1,7,-1
 303 702 l 1,0,-1
699 730 m 1,8,-1
 722 730 l 1,9,-1
 193 0 l 1,10,-1
 171 0 l 1,11,-1
 699 730 l 1,8,-1
407 110 m 1,12,-1
 410 130 l 1,13,-1
 678 438 l 1,14,-1
 698 438 l 1,15,-1
 649 130 l 1,16,-1
 727 130 l 1,17,-1
 724 110 l 1,18,-1
 646 110 l 1,19,-1
 628 0 l 1,20,-1
 609 0 l 1,21,-1
 626 110 l 1,22,-1
 407 110 l 1,12,-1
673 402 m 1,23,-1
 671 402 l 1,24,-1
 436 132 l 1,25,-1
 435 130 l 1,26,-1
 629 130 l 1,27,-1
 673 402 l 1,23,-1
EndSplineSet
Ligature2: "'frac' Diagonal Fractions in Latin lookup 7 subtable" one slash four
EndChar

StartChar: threequarters
Encoding: 190 190 433
Width: 737
Flags: W
LayerCount: 2
Fore
SplineSet
94 318 m 1,1,-1
 107 335 l 1,2,3
 149 306 149 306 205 306 c 0,4,5
 265 306 265 306 300.5 335.5 c 128,-1,6
 336 365 336 365 345 421 c 0,7,8
 353 474 353 474 327 499 c 128,-1,9
 301 524 301 524 235 524 c 2,10,-1
 188 524 l 1,11,-1
 192 548 l 1,12,-1
 374 708 l 1,13,-1
 375 710 l 1,14,-1
 160 710 l 1,15,-1
 163 730 l 1,16,-1
 407 730 l 1,17,-1
 404 710 l 1,18,-1
 217 546 l 1,19,-1
 217 544 l 1,20,-1
 239 544 l 2,21,22
 313 544 313 544 343.5 513.5 c 128,-1,23
 374 483 374 483 364 421 c 0,24,25
 354 356 354 356 311.5 321 c 128,-1,26
 269 286 269 286 202 286 c 0,27,0
 140 286 140 286 94 318 c 1,1,-1
686 730 m 1,28,-1
 708 730 l 1,29,-1
 180 0 l 1,30,-1
 157 0 l 1,31,-1
 686 730 l 1,28,-1
393 110 m 1,32,-1
 396 130 l 1,33,-1
 665 438 l 1,34,-1
 684 438 l 1,35,-1
 636 130 l 1,36,-1
 714 130 l 1,37,-1
 711 110 l 1,38,-1
 632 110 l 1,39,-1
 615 0 l 1,40,-1
 595 0 l 1,41,-1
 613 110 l 1,42,-1
 393 110 l 1,32,-1
659 402 m 1,43,-1
 657 402 l 1,44,-1
 422 132 l 1,45,-1
 422 130 l 1,46,-1
 616 130 l 1,47,-1
 659 402 l 1,43,-1
EndSplineSet
Ligature2: "'frac' Diagonal Fractions in Latin lookup 7 subtable" three slash four
EndChar

StartChar: period
Encoding: 46 46 434
Width: 249
Flags: W
LayerCount: 2
Fore
SplineSet
105 60 m 1,0,-1
 164 60 l 1,1,-1
 154 0 l 1,2,-1
 96 0 l 1,3,-1
 105 60 l 1,0,-1
EndSplineSet
EndChar

StartChar: comma
Encoding: 44 44 435
Width: 215
Flags: W
LayerCount: 2
Fore
SplineSet
157 130 m 1,0,-1
 178 130 l 1,1,-1
 24 -170 l 1,2,-1
 2 -170 l 1,3,-1
 157 130 l 1,0,-1
EndSplineSet
EndChar

StartChar: colon
Encoding: 58 58 436
Width: 249
Flags: W
LayerCount: 2
Fore
SplineSet
178 520 m 1,0,-1
 237 520 l 1,1,-1
 227 460 l 1,2,-1
 168 460 l 1,3,-1
 178 520 l 1,0,-1
105 60 m 1,4,-1
 164 60 l 1,5,-1
 154 0 l 1,6,-1
 96 0 l 1,7,-1
 105 60 l 1,4,-1
EndSplineSet
Substitution2: "'fwid' Full Widths in Latin lookup 15 subtable" uniFF1A
Substitution2: "'aalt' Access All Alternates in Latin lookup 0 subtable" uniFF1A
EndChar

StartChar: semicolon
Encoding: 59 59 437
Width: 267
Flags: W
LayerCount: 2
Fore
SplineSet
196 520 m 1,0,-1
 254 520 l 1,1,-1
 245 460 l 1,2,-1
 186 460 l 1,3,-1
 196 520 l 1,0,-1
159 130 m 1,4,-1
 181 130 l 1,5,-1
 26 -170 l 1,6,-1
 5 -170 l 1,7,-1
 159 130 l 1,4,-1
EndSplineSet
EndChar

StartChar: exclam
Encoding: 33 33 439
Width: 249
Flags: W
LayerCount: 2
Fore
SplineSet
231 730 m 1,0,-1
 250 730 l 1,1,-1
 165 190 l 1,2,-1
 145 190 l 1,3,-1
 231 730 l 1,0,-1
105 60 m 1,4,-1
 164 60 l 1,5,-1
 154 0 l 1,6,-1
 96 0 l 1,7,-1
 105 60 l 1,4,-1
EndSplineSet
Substitution2: "'fwid' Full Widths in Latin lookup 15 subtable" uniFF01
Substitution2: "'aalt' Access All Alternates in Latin lookup 0 subtable" uniFF01
EndChar

StartChar: exclamdown
Encoding: 161 161 440
Width: 249
Flags: W
LayerCount: 2
Fore
SplineSet
178 520 m 1,0,-1
 237 520 l 1,1,-1
 227 460 l 1,2,-1
 168 460 l 1,3,-1
 178 520 l 1,0,-1
167 330 m 1,4,-1
 187 330 l 1,5,-1
 101 -210 l 1,6,-1
 82 -210 l 1,7,-1
 167 330 l 1,4,-1
EndSplineSet
EndChar

StartChar: question
Encoding: 63 63 441
Width: 516
Flags: W
LayerCount: 2
Fore
SplineSet
248.5 276 m 128,-1,1
 268 313 268 313 305 346 c 128,-1,2
 342 379 342 379 405 417 c 0,3,4
 481 463 481 463 516 502.5 c 128,-1,5
 551 542 551 542 559 590 c 0,6,7
 569 656 569 656 521.5 688 c 128,-1,8
 474 720 474 720 364 720 c 0,9,10
 254 720 254 720 145 686 c 1,11,-1
 142 704 l 1,12,13
 250 740 250 740 367 740 c 0,14,15
 486 740 486 740 538 703 c 128,-1,16
 590 666 590 666 578 590 c 0,17,18
 569 536 569 536 531 492.5 c 128,-1,19
 493 449 493 449 413 401 c 0,20,21
 352 364 352 364 317.5 333.5 c 128,-1,22
 283 303 283 303 265.5 269.5 c 128,-1,23
 248 236 248 236 240 190 c 1,24,-1
 221 190 l 1,25,0
 229 239 229 239 248.5 276 c 128,-1,1
181 60 m 1,26,-1
 239 60 l 1,27,-1
 230 0 l 1,28,-1
 171 0 l 1,29,-1
 181 60 l 1,26,-1
EndSplineSet
Substitution2: "'fwid' Full Widths in Latin lookup 15 subtable" uniFF1F
Substitution2: "'aalt' Access All Alternates in Latin lookup 0 subtable" uniFF1F
EndChar

StartChar: questiondown
Encoding: 191 191 442
Width: 516
Flags: W
LayerCount: 2
Fore
SplineSet
360 460 m 1,0,-1
 369 520 l 1,1,-1
 428 520 l 1,2,-1
 418 460 l 1,3,-1
 360 460 l 1,0,-1
350.5 244 m 128,-1,5
 331 207 331 207 294 174 c 128,-1,6
 257 141 257 141 194 103 c 0,7,8
 118 57 118 57 83 17.5 c 128,-1,9
 48 -22 48 -22 40 -70 c 0,10,11
 30 -136 30 -136 77.5 -168 c 128,-1,12
 125 -200 125 -200 235 -200 c 0,13,14
 345 -200 345 -200 453 -166 c 1,15,-1
 456 -184 l 1,16,17
 349 -220 349 -220 232 -220 c 0,18,19
 113 -220 113 -220 61 -183 c 128,-1,20
 9 -146 9 -146 21 -70 c 0,21,22
 30 -16 30 -16 68 27.5 c 128,-1,23
 106 71 106 71 186 119 c 0,24,25
 247 156 247 156 281.5 186.5 c 128,-1,26
 316 217 316 217 333.5 250.5 c 128,-1,27
 351 284 351 284 359 330 c 1,28,-1
 378 330 l 1,29,4
 370 281 370 281 350.5 244 c 128,-1,5
EndSplineSet
EndChar

StartChar: bullet
Encoding: 8226 8226 444
Width: 221
Flags: W
LayerCount: 2
Fore
SplineSet
128.5 265.5 m 128,-1,1
 120 276 120 276 122 290 c 256,2,3
 124 304 124 304 136 314.5 c 128,-1,4
 148 325 148 325 162 325 c 256,5,6
 176 325 176 325 184.5 314.5 c 128,-1,7
 193 304 193 304 191 290 c 256,8,9
 189 276 189 276 177 265.5 c 128,-1,10
 165 255 165 255 151 255 c 256,11,0
 137 255 137 255 128.5 265.5 c 128,-1,1
EndSplineSet
EndChar

StartChar: asterisk
Encoding: 42 42 445
Width: 467
Flags: W
LayerCount: 2
Fore
SplineSet
164 376 m 1,0,-1
 303 535 l 1,1,-1
 129 595 l 1,2,-1
 138 614 l 1,3,-1
 311 554 l 1,4,-1
 343 750 l 1,5,-1
 362 750 l 1,6,-1
 331 554 l 1,7,-1
 524 614 l 1,8,-1
 527 595 l 1,9,-1
 334 535 l 1,10,-1
 422 376 l 1,11,-1
 404 364 l 1,12,-1
 316 523 l 1,13,-1
 178 364 l 1,14,-1
 164 376 l 1,0,-1
EndSplineSet
EndChar

StartChar: numbersign
Encoding: 35 35 446
Width: 629
Flags: W
LayerCount: 2
Fore
SplineSet
667 515 m 1,0,-1
 539 515 l 1,1,-1
 446 235 l 1,2,-1
 571 235 l 1,3,-1
 568 215 l 1,4,-1
 439 215 l 1,5,-1
 368 0 l 1,6,-1
 347 0 l 1,7,-1
 419 215 l 1,8,-1
 224 215 l 1,9,-1
 152 0 l 1,10,-1
 132 0 l 1,11,-1
 203 215 l 1,12,-1
 78 215 l 1,13,-1
 81 235 l 1,14,-1
 210 235 l 1,15,-1
 303 515 l 1,16,-1
 177 515 l 1,17,-1
 180 535 l 1,18,-1
 310 535 l 1,19,-1
 374 730 l 1,20,-1
 395 730 l 1,21,-1
 330 535 l 1,22,-1
 525 535 l 1,23,-1
 590 730 l 1,24,-1
 610 730 l 1,25,-1
 546 535 l 1,26,-1
 670 535 l 1,27,-1
 667 515 l 1,0,-1
426 235 m 1,28,-1
 518 515 l 1,29,-1
 323 515 l 1,30,-1
 231 235 l 1,31,-1
 426 235 l 1,28,-1
EndSplineSet
EndChar

StartChar: slash
Encoding: 47 47 447
Width: 391
Flags: W
LayerCount: 2
Fore
SplineSet
471 750 m 1,0,-1
 493 750 l 1,1,-1
 33 -40 l 1,2,-1
 11 -40 l 1,3,-1
 471 750 l 1,0,-1
EndSplineSet
EndChar

StartChar: backslash
Encoding: 92 92 448
Width: 391
Flags: W
LayerCount: 2
Fore
SplineSet
368 -40 m 1,0,-1
 346 -40 l 1,1,-1
 136 750 l 1,2,-1
 158 750 l 1,3,-1
 368 -40 l 1,0,-1
EndSplineSet
EndChar

StartChar: parenleft
Encoding: 40 40 449
Width: 302
Flags: W
LayerCount: 2
Fore
SplineSet
134 97 m 128,-1,1
 119 205 119 205 139 330 c 256,2,3
 159 455 159 455 208 563 c 128,-1,4
 257 671 257 671 340 770 c 1,5,-1
 363 770 l 1,6,7
 278 671 278 671 228 563.5 c 128,-1,8
 178 456 178 456 158 330 c 256,9,10
 138 204 138 204 154 96.5 c 128,-1,11
 170 -11 170 -11 224 -110 c 1,12,-1
 200 -110 l 1,13,0
 149 -11 149 -11 134 97 c 128,-1,1
EndSplineSet
Substitution2: "'fwid' Full Widths in Latin lookup 15 subtable" uniFF08
Substitution2: "'aalt' Access All Alternates in Latin lookup 0 subtable" uniFF08
EndChar

StartChar: parenright
Encoding: 41 41 450
Width: 302
Flags: W
LayerCount: 2
Fore
SplineSet
44 -110 m 1,0,1
 129 -11 129 -11 179 96.5 c 128,-1,2
 229 204 229 204 248 330 c 256,3,4
 268 456 268 456 252.5 563.5 c 128,-1,5
 237 671 237 671 183 770 c 1,6,-1
 206 770 l 1,7,8
 257 671 257 671 272.5 563 c 128,-1,9
 288 455 288 455 268 330 c 256,10,11
 248 205 248 205 198.5 97 c 128,-1,12
 149 -11 149 -11 67 -110 c 1,13,-1
 44 -110 l 1,0,1
EndSplineSet
Substitution2: "'fwid' Full Widths in Latin lookup 15 subtable" uniFF09
Substitution2: "'aalt' Access All Alternates in Latin lookup 0 subtable" uniFF09
EndChar

StartChar: braceleft
Encoding: 123 123 451
Width: 433
Flags: W
CounterMasks: 1 e0
LayerCount: 2
Fore
SplineSet
195 -76.5 m 128,-1,1
 172 -43 172 -43 184 30 c 2,2,-1
 209 190 l 2,3,4
 218 249 218 249 202.5 284.5 c 128,-1,5
 187 320 187 320 152 320 c 2,6,-1
 103 320 l 1,7,-1
 106 340 l 1,8,-1
 155 340 l 2,9,10
 190 340 190 340 217 375.5 c 128,-1,11
 244 411 244 411 254 470 c 2,12,-1
 279 630 l 2,13,14
 291 703 291 703 324 736.5 c 128,-1,15
 357 770 357 770 419 770 c 2,16,-1
 497 770 l 1,17,-1
 494 750 l 1,18,-1
 416 750 l 2,19,20
 363 750 363 750 336 722.5 c 128,-1,21
 309 695 309 695 299 630 c 2,22,-1
 273 470 l 2,23,24
 265 419 265 419 243.5 383 c 128,-1,25
 222 347 222 347 192 331 c 1,26,-1
 191 329 l 1,27,28
 217 313 217 313 227 277 c 128,-1,29
 237 241 237 241 229 190 c 2,30,-1
 204 30 l 2,31,32
 194 -35 194 -35 212 -62.5 c 128,-1,33
 230 -90 230 -90 283 -90 c 2,34,-1
 361 -90 l 1,35,-1
 358 -110 l 1,36,-1
 279 -110 l 2,37,0
 218 -110 218 -110 195 -76.5 c 128,-1,1
EndSplineSet
EndChar

StartChar: braceright
Encoding: 125 125 452
Width: 433
Flags: W
CounterMasks: 1 e0
LayerCount: 2
Fore
SplineSet
41 -110 m 1,0,-1
 44 -90 l 1,1,-1
 122 -90 l 2,2,3
 175 -90 175 -90 202 -62.5 c 128,-1,4
 229 -35 229 -35 239 30 c 2,5,-1
 265 190 l 2,6,7
 273 241 273 241 294.5 277 c 128,-1,8
 316 313 316 313 347 329 c 1,9,-1
 347 331 l 1,10,11
 321 347 321 347 311 383 c 128,-1,12
 301 419 301 419 309 470 c 2,13,-1
 334 630 l 2,14,15
 344 695 344 695 326 722.5 c 128,-1,16
 308 750 308 750 255 750 c 2,17,-1
 177 750 l 1,18,-1
 180 770 l 1,19,-1
 259 770 l 2,20,21
 321 770 321 770 343.5 736.5 c 128,-1,22
 366 703 366 703 354 630 c 2,23,-1
 329 470 l 2,24,25
 320 411 320 411 335.5 375.5 c 128,-1,26
 351 340 351 340 386 340 c 2,27,-1
 435 340 l 1,28,-1
 432 320 l 1,29,-1
 383 320 l 2,30,31
 348 320 348 320 321 284.5 c 128,-1,32
 294 249 294 249 284 190 c 2,33,-1
 259 30 l 2,34,35
 247 -43 247 -43 214 -76.5 c 128,-1,36
 181 -110 181 -110 119 -110 c 2,37,-1
 41 -110 l 1,0,-1
EndSplineSet
EndChar

StartChar: bracketleft
Encoding: 91 91 453
Width: 369
Flags: W
LayerCount: 2
Fore
SplineSet
218 770 m 1,0,-1
 443 770 l 1,1,-1
 440 750 l 1,2,-1
 234 750 l 1,3,-1
 101 -90 l 1,4,-1
 307 -90 l 1,5,-1
 304 -110 l 1,6,-1
 78 -110 l 1,7,-1
 218 770 l 1,0,-1
EndSplineSet
EndChar

StartChar: bracketright
Encoding: 93 93 454
Width: 369
Flags: W
LayerCount: 2
Fore
SplineSet
256 -110 m 1,0,-1
 31 -110 l 1,1,-1
 34 -90 l 1,2,-1
 240 -90 l 1,3,-1
 373 750 l 1,4,-1
 167 750 l 1,5,-1
 170 770 l 1,6,-1
 396 770 l 1,7,-1
 256 -110 l 1,0,-1
EndSplineSet
EndChar

StartChar: hyphen
Encoding: 45 45 455
Width: 368
Flags: W
LayerCount: 2
Fore
SplineSet
99 300 m 1,0,-1
 364 300 l 1,1,-1
 361 280 l 1,2,-1
 96 280 l 1,3,-1
 99 300 l 1,0,-1
EndSplineSet
EndChar

StartChar: endash
Encoding: 8211 8211 457
Width: 490
Flags: W
LayerCount: 2
Fore
SplineSet
48 300 m 1,0,-1
 538 300 l 1,1,-1
 534 280 l 1,2,-1
 44 280 l 1,3,-1
 48 300 l 1,0,-1
EndSplineSet
EndChar

StartChar: emdash
Encoding: 8212 8212 458
Width: 980
Flags: W
LayerCount: 2
Fore
SplineSet
48 300 m 1,0,-1
 1028 300 l 1,1,-1
 1024 280 l 1,2,-1
 44 280 l 1,3,-1
 48 300 l 1,0,-1
EndSplineSet
EndChar

StartChar: uni2015
Encoding: 8213 8213 459
Width: 973
Flags: W
LayerCount: 2
Fore
SplineSet
104 370 m 1,0,-1
 986 370 l 1,1,-1
 983 350 l 1,2,-1
 101 350 l 1,3,-1
 104 370 l 1,0,-1
EndSplineSet
EndChar

StartChar: underscore
Encoding: 95 95 460
Width: 548
Flags: W
LayerCount: 2
Fore
SplineSet
-14 -90 m 1,0,-1
 535 -90 l 1,1,-1
 531 -110 l 1,2,-1
 -17 -110 l 1,3,-1
 -14 -90 l 1,0,-1
EndSplineSet
EndChar

StartChar: quoteleft
Encoding: 8216 8216 465
Width: 198
Flags: W
LayerCount: 2
Fore
SplineSet
140 470 m 1,0,-1
 118 470 l 1,1,-1
 272 770 l 1,2,-1
 294 770 l 1,3,-1
 140 470 l 1,0,-1
EndSplineSet
EndChar

StartChar: quoteright
Encoding: 8217 8217 466
Width: 198
Flags: W
LayerCount: 2
Fore
SplineSet
272 770 m 1,0,-1
 294 770 l 1,1,-1
 140 470 l 1,2,-1
 118 470 l 1,3,-1
 272 770 l 1,0,-1
EndSplineSet
EndChar

StartChar: guillemotright
Encoding: 187 187 468
Width: 376
Flags: W
LayerCount: 2
Fore
SplineSet
49 60 m 1,0,-1
 236 290 l 1,1,-1
 121 520 l 1,2,-1
 145 520 l 1,3,-1
 260 290 l 1,4,-1
 72 60 l 1,5,-1
 49 60 l 1,0,-1
196 60 m 1,6,-1
 383 290 l 1,7,-1
 268 520 l 1,8,-1
 292 520 l 1,9,-1
 407 290 l 1,10,-1
 219 60 l 1,11,-1
 196 60 l 1,6,-1
EndSplineSet
EndChar

StartChar: guilsinglleft
Encoding: 8249 8249 469
Width: 229
Flags: W
LayerCount: 2
Fore
SplineSet
61 290 m 1,0,-1
 249 520 l 1,1,-1
 272 520 l 1,2,-1
 85 290 l 1,3,-1
 199 60 l 1,4,-1
 176 60 l 1,5,-1
 61 290 l 1,0,-1
EndSplineSet
EndChar

StartChar: guilsinglright
Encoding: 8250 8250 470
Width: 229
Flags: W
LayerCount: 2
Fore
SplineSet
72 60 m 1,0,-1
 49 60 l 1,1,-1
 236 290 l 1,2,-1
 121 520 l 1,3,-1
 145 520 l 1,4,-1
 260 290 l 1,5,-1
 72 60 l 1,0,-1
EndSplineSet
EndChar

StartChar: quotesingle
Encoding: 39 39 472
Width: 192
Flags: W
LayerCount: 2
Fore
SplineSet
208 770 m 1,0,-1
 228 770 l 1,1,-1
 180 470 l 1,2,-1
 161 470 l 1,3,-1
 208 770 l 1,0,-1
EndSplineSet
EndChar

StartChar: uni20B5
Encoding: 8373 8373 474
Width: 672
Flags: W
LayerCount: 2
Fore
SplineSet
630 55 m 1,0,1
 528 -7 528 -7 406 -10 c 1,2,-1
 391 -105 l 1,3,-1
 371 -105 l 1,4,-1
 386 -10 l 1,5,6
 282 -8 282 -8 212 39 c 128,-1,7
 142 86 142 86 112.5 170 c 128,-1,8
 83 254 83 254 101 365 c 256,9,10
 119 476 119 476 174.5 560 c 128,-1,11
 230 644 230 644 315.5 691 c 128,-1,12
 401 738 401 738 505 740 c 1,13,-1
 520 835 l 1,14,-1
 540 835 l 1,15,-1
 525 740 l 1,16,17
 646 737 646 737 728 675 c 1,18,-1
 714 658 l 1,19,20
 636 717 636 717 521 720 c 1,21,-1
 409 10 l 1,22,23
 525 13 525 13 622 72 c 1,24,-1
 630 55 l 1,0,1
130.5 179.5 m 128,-1,26
 158 100 158 100 224.5 56 c 128,-1,27
 291 12 291 12 389 10 c 1,28,-1
 502 720 l 1,29,30
 404 718 404 718 323 673.5 c 128,-1,31
 242 629 242 629 189.5 549.5 c 128,-1,32
 137 470 137 470 120 365 c 0,33,25
 103 259 103 259 130.5 179.5 c 128,-1,26
EndSplineSet
EndChar

StartChar: cent
Encoding: 162 162 475
Width: 501
Flags: W
LayerCount: 2
Fore
SplineSet
435 25 m 1,0,1
 364 -9 364 -9 298 -10 c 1,2,-1
 283 -105 l 1,3,-1
 264 -105 l 1,4,-1
 279 -10 l 1,5,6
 168 -7 168 -7 114.5 65.5 c 128,-1,7
 61 138 61 138 80 260 c 256,8,9
 99 382 99 382 175.5 454.5 c 128,-1,10
 252 527 252 527 364 530 c 1,11,-1
 379 625 l 1,12,-1
 399 625 l 1,13,-1
 384 530 l 1,14,15
 450 529 450 529 510 495 c 1,16,-1
 498 477 l 1,17,18
 441 509 441 509 381 510 c 1,19,-1
 301 10 l 1,20,21
 362 11 362 11 429 43 c 1,22,-1
 435 25 l 1,0,1
130 80 m 128,-1,24
 178 13 178 13 282 10 c 1,25,-1
 361 510 l 1,26,27
 257 507 257 507 187.5 440 c 128,-1,28
 118 373 118 373 100 260 c 256,29,23
 82 147 82 147 130 80 c 128,-1,24
EndSplineSet
EndChar

StartChar: colonmonetary
Encoding: 8353 8353 476
Width: 672
Flags: W
LayerCount: 2
Fore
SplineSet
630 55 m 1,0,1
 538 -1 538 -1 434 -8 c 1,2,-1
 411 -105 l 1,3,-1
 392 -105 l 1,4,-1
 415 -10 l 1,5,-1
 396 -10 l 2,6,7
 330 -10 330 -10 273 9 c 1,8,-1
 245 -105 l 1,9,-1
 225 -105 l 1,10,-1
 254 16 l 1,11,12
 161 55 161 55 120.5 146.5 c 128,-1,13
 80 238 80 238 101 365 c 0,14,15
 116 461 116 461 161 538 c 128,-1,16
 206 615 206 615 274 664.5 c 128,-1,17
 342 714 342 714 427 731 c 1,18,-1
 452 835 l 1,19,-1
 472 835 l 1,20,-1
 447 735 l 1,21,22
 484 740 484 740 515 740 c 0,23,24
 560 740 560 740 594 733 c 1,25,-1
 619 835 l 1,26,-1
 639 835 l 1,27,-1
 613 729 l 1,28,29
 678 713 678 713 728 675 c 1,30,-1
 714 658 l 1,31,32
 668 692 668 692 608 709 c 1,33,-1
 440 12 l 1,34,35
 539 21 539 21 622 72 c 1,36,-1
 630 55 l 1,0,1
420 10 m 1,37,-1
 590 713 l 1,38,39
 556 720 556 720 512 720 c 0,40,41
 477 720 477 720 443 714 c 1,42,-1
 277 30 l 1,43,44
 333 10 333 10 399 10 c 2,45,-1
 420 10 l 1,37,-1
138 160.5 m 128,-1,47
 175 75 175 75 259 37 c 1,48,-1
 422 711 l 1,49,50
 302 685 302 685 222 593.5 c 128,-1,51
 142 502 142 502 120 365 c 0,52,46
 101 246 101 246 138 160.5 c 128,-1,47
EndSplineSet
EndChar

StartChar: currency
Encoding: 164 164 477
Width: 653
Flags: W
LayerCount: 2
Fore
SplineSet
573 285 m 128,-1,1
 552 247 552 247 521 217 c 1,2,-1
 602 118 l 1,3,-1
 585 103 l 1,4,-1
 504 202 l 1,5,6
 470 175 470 175 430.5 160 c 128,-1,7
 391 145 391 145 350 145 c 256,8,9
 309 145 309 145 274 160 c 128,-1,10
 239 175 239 175 214 202 c 1,11,-1
 101 103 l 1,12,-1
 89 118 l 1,13,-1
 201 217 l 1,14,15
 179 247 179 247 170.5 285 c 128,-1,16
 162 323 162 323 169 365 c 256,17,18
 176 407 176 407 196.5 445 c 128,-1,19
 217 483 217 483 248 513 c 1,20,-1
 167 613 l 1,21,-1
 184 627 l 1,22,-1
 265 528 l 1,23,24
 299 555 299 555 338.5 570 c 128,-1,25
 378 585 378 585 419 585 c 256,26,27
 460 585 460 585 495 570 c 128,-1,28
 530 555 530 555 555 528 c 1,29,-1
 668 627 l 1,30,-1
 681 612 l 1,31,-1
 568 513 l 1,32,33
 590 483 590 483 598.5 445 c 128,-1,34
 607 407 607 407 600 365 c 256,35,0
 594 323 594 323 573 285 c 128,-1,1
199 265 m 128,-1,37
 218 219 218 219 259 192 c 128,-1,38
 300 165 300 165 353 165 c 256,39,40
 406 165 406 165 455.5 192 c 128,-1,41
 505 219 505 219 538.5 265 c 128,-1,42
 572 311 572 311 581 365 c 256,43,44
 590 419 590 419 570.5 465 c 128,-1,45
 551 511 551 511 510 538 c 128,-1,46
 469 565 469 565 416 565 c 256,47,48
 363 565 363 565 314 538 c 128,-1,49
 265 511 265 511 231 465 c 128,-1,50
 197 419 197 419 189 365 c 256,51,36
 180 311 180 311 199 265 c 128,-1,37
EndSplineSet
EndChar

StartChar: dollar
Encoding: 36 36 478
Width: 592
Flags: W
LayerCount: 2
Fore
SplineSet
479 42 m 128,-1,1
 412 -8 412 -8 304 -10 c 1,2,-1
 289 -105 l 1,3,-1
 270 -105 l 1,4,-1
 285 -10 l 1,5,6
 222 -9 222 -9 166.5 9.5 c 128,-1,7
 111 28 111 28 70 60 c 1,8,-1
 85 76 l 1,9,10
 123 46 123 46 175.5 28.5 c 128,-1,11
 228 11 228 11 288 10 c 1,12,-1
 347 383 l 1,13,14
 236 425 236 425 194.5 469.5 c 128,-1,15
 153 514 153 514 164 580 c 0,16,17
 176 655 176 655 238 696.5 c 128,-1,18
 300 738 300 738 404 740 c 1,19,-1
 419 835 l 1,20,-1
 438 835 l 1,21,-1
 423 740 l 1,22,23
 542 737 542 737 628 680 c 1,24,-1
 616 663 l 1,25,26
 533 717 533 717 420 720 c 1,27,-1
 369 397 l 1,28,29
 449 366 449 366 493 336 c 128,-1,30
 537 306 537 306 552.5 269 c 128,-1,31
 568 232 568 232 560 180 c 0,32,0
 546 92 546 92 479 42 c 128,-1,1
212 482.5 m 128,-1,34
 250 443 250 443 350 404 c 1,35,-1
 400 720 l 1,36,37
 305 718 305 718 249.5 682 c 128,-1,38
 194 646 194 646 183 580 c 0,39,33
 174 522 174 522 212 482.5 c 128,-1,34
467.5 56.5 m 128,-1,41
 528 101 528 101 540 180 c 0,42,43
 547 226 547 226 533 259.5 c 128,-1,44
 519 293 519 293 479 320.5 c 128,-1,45
 439 348 439 348 366 376 c 1,46,-1
 308 10 l 1,47,40
 407 12 407 12 467.5 56.5 c 128,-1,41
EndSplineSet
EndChar

StartChar: dong
Encoding: 8363 8363 479
Width: 652
Flags: W
LayerCount: 2
Fore
SplineSet
698 660 m 1,0,-1
 695 640 l 1,1,-1
 578 640 l 1,2,-1
 500 150 l 1,3,-1
 480 150 l 1,4,-1
 496 246 l 1,5,-1
 494 246 l 1,6,7
 463 197 463 197 410.5 169.5 c 128,-1,8
 358 142 358 142 293 142 c 0,9,10
 197 142 197 142 151 199.5 c 128,-1,11
 105 257 105 257 121 358 c 256,12,13
 137 459 137 459 201 516.5 c 128,-1,14
 265 574 265 574 361 574 c 0,15,16
 426 574 426 574 469.5 546.5 c 128,-1,17
 513 519 513 519 529 470 c 1,18,-1
 531 470 l 1,19,-1
 558 640 l 1,20,-1
 284 640 l 1,21,-1
 287 660 l 1,22,-1
 561 660 l 1,23,-1
 575 750 l 1,24,-1
 595 750 l 1,25,-1
 581 660 l 1,26,-1
 698 660 l 1,0,-1
438.5 210 m 128,-1,28
 497 258 497 258 510 338 c 2,29,-1
 516 378 l 2,30,31
 529 458 529 458 485.5 506 c 128,-1,32
 442 554 442 554 358 554 c 0,33,34
 271 554 271 554 213 502 c 128,-1,35
 155 450 155 450 141 358 c 256,36,37
 126 266 126 266 167.5 214 c 128,-1,38
 209 162 209 162 296 162 c 0,39,27
 380 162 380 162 438.5 210 c 128,-1,28
70 0 m 1,40,-1
 73 20 l 1,41,-1
 597 20 l 1,42,-1
 594 0 l 1,43,-1
 70 0 l 1,40,-1
EndSplineSet
EndChar

StartChar: Euro
Encoding: 8364 8364 480
Width: 750
GlyphClass: 2
Flags: W
AnchorPoint: "Anchor-1" 469 730 basechar 0
AnchorPoint: "Anchor-0" 469 0 basechar 0
LayerCount: 2
Fore
SplineSet
700 72 m 1,1,-1
 708 55 l 1,2,3
 603 -10 603 -10 478 -10 c 0,4,5
 344 -10 344 -10 265.5 65 c 128,-1,6
 187 140 187 140 182 270 c 1,7,-1
 77 270 l 1,8,-1
 81 290 l 1,9,-1
 181 290 l 1,10,11
 182 330 182 330 188 365 c 256,12,13
 194 400 194 400 205 440 c 1,14,-1
 104 440 l 1,15,-1
 107 460 l 1,16,-1
 212 460 l 1,17,18
 258 590 258 590 360 665 c 128,-1,19
 462 740 462 740 597 740 c 0,20,21
 721 740 721 740 806 675 c 1,22,-1
 792 658 l 1,23,24
 712 720 712 720 594 720 c 0,25,26
 469 720 469 720 373 650.5 c 128,-1,27
 277 581 277 581 232 460 c 1,28,-1
 695 460 l 1,29,-1
 692 440 l 1,30,-1
 226 440 l 1,31,32
 214 404 214 404 208 365 c 256,33,34
 202 326 202 326 202 290 c 1,35,-1
 669 290 l 1,36,-1
 665 270 l 1,37,-1
 202 270 l 1,38,39
 208 148 208 148 281.5 79 c 128,-1,40
 355 10 355 10 481 10 c 0,41,0
 600 10 600 10 700 72 c 1,1,-1
EndSplineSet
EndChar

StartChar: florin
Encoding: 402 402 481
Width: 411
Flags: W
LayerCount: 2
Fore
SplineSet
6 -105 m 1,1,-1
 17 -86 l 1,2,3
 45 -100 45 -100 77 -100 c 0,4,5
 130 -100 130 -100 160 -69 c 128,-1,6
 190 -38 190 -38 200 30 c 2,7,-1
 256 380 l 1,8,-1
 106 380 l 1,9,-1
 109 400 l 1,10,-1
 259 400 l 1,11,-1
 289 590 l 2,12,13
 301 666 301 666 337 703 c 128,-1,14
 373 740 373 740 434 740 c 0,15,16
 469 740 469 740 502 725 c 1,17,-1
 492 706 l 1,18,19
 464 720 464 720 431 720 c 0,20,21
 378 720 378 720 348.5 689 c 128,-1,22
 319 658 319 658 308 590 c 2,23,-1
 278 400 l 1,24,-1
 451 400 l 1,25,-1
 448 380 l 1,26,-1
 275 380 l 1,27,-1
 219 30 l 2,28,29
 207 -46 207 -46 171.5 -83 c 128,-1,30
 136 -120 136 -120 74 -120 c 0,31,0
 39 -120 39 -120 6 -105 c 1,1,-1
EndSplineSet
EndChar

StartChar: franc
Encoding: 8355 8355 482
Width: 594
Flags: W
LayerCount: 2
Fore
SplineSet
659 710 m 1,0,-1
 267 710 l 1,1,-1
 221 420 l 1,2,-1
 594 420 l 1,3,-1
 590 400 l 1,4,-1
 218 400 l 1,5,-1
 179 155 l 1,6,-1
 463 155 l 1,7,-1
 460 135 l 1,8,-1
 176 135 l 1,9,-1
 155 0 l 1,10,-1
 135 0 l 1,11,-1
 156 135 l 1,12,-1
 49 135 l 1,13,-1
 52 155 l 1,14,-1
 160 155 l 1,15,-1
 251 730 l 1,16,-1
 662 730 l 1,17,-1
 659 710 l 1,0,-1
EndSplineSet
EndChar

StartChar: uni20B2
Encoding: 8370 8370 483
Width: 763
Flags: W
LayerCount: 2
Fore
SplineSet
753 400 m 1,0,-1
 697 44 l 1,1,2
 641 19 641 19 566.5 4.5 c 128,-1,3
 492 -10 492 -10 423 -10 c 0,4,5
 399 -10 399 -10 387 -9 c 1,6,-1
 372 -105 l 1,7,-1
 352 -105 l 1,8,-1
 368 -7 l 1,9,10
 217 8 217 8 146 106 c 128,-1,11
 75 204 75 204 101 365 c 256,12,13
 127 526 127 526 228.5 624 c 128,-1,14
 330 722 330 722 486 737 c 1,15,-1
 501 835 l 1,16,-1
 521 835 l 1,17,-1
 506 739 l 1,18,19
 518 740 518 740 542 740 c 0,20,21
 678 740 678 740 771 680 c 1,22,-1
 758 663 l 1,23,24
 671 720 671 720 539 720 c 0,25,26
 515 720 515 720 503 719 c 1,27,-1
 452 400 l 1,28,-1
 753 400 l 1,0,-1
162.5 120 m 128,-1,30
 229 28 229 28 371 13 c 1,31,-1
 483 717 l 1,32,33
 336 702 336 702 240 610 c 128,-1,34
 144 518 144 518 120 365 c 256,35,29
 96 212 96 212 162.5 120 c 128,-1,30
427 10 m 0,37,38
 490 10 490 10 557.5 23 c 128,-1,39
 625 36 625 36 679 57 c 1,40,-1
 730 380 l 1,41,-1
 449 380 l 1,42,-1
 390 11 l 1,43,36
 403 10 403 10 427 10 c 0,37,38
EndSplineSet
EndChar

StartChar: uni20AD
Encoding: 8365 8365 484
Width: 674
GlyphClass: 2
Flags: W
AnchorPoint: "Anchor-1" 325 730 basechar 0
AnchorPoint: "Anchor-0" 325 0 basechar 0
LayerCount: 2
Fore
SplineSet
669 400 m 1,0,-1
 666 380 l 1,1,-1
 240 380 l 1,2,-1
 605 0 l 1,3,-1
 576 0 l 1,4,-1
 216 376 l 1,5,-1
 214 376 l 1,6,-1
 155 0 l 1,7,-1
 135 0 l 1,8,-1
 195 380 l 1,9,-1
 87 380 l 1,10,-1
 91 400 l 1,11,-1
 198 400 l 1,12,-1
 251 730 l 1,13,-1
 270 730 l 1,14,-1
 219 404 l 1,15,-1
 221 404 l 1,16,-1
 679 730 l 1,17,-1
 711 730 l 1,18,-1
 245 400 l 1,19,-1
 669 400 l 1,0,-1
EndSplineSet
EndChar

StartChar: lira
Encoding: 8356 8356 485
Width: 630
Flags: W
LayerCount: 2
Fore
SplineSet
569 20 m 1,0,-1
 566 0 l 1,1,-1
 96 0 l 1,2,-1
 99 20 l 1,3,4
 129 22 129 22 159 44.5 c 128,-1,5
 189 67 189 67 212.5 107 c 128,-1,6
 236 147 236 147 245 200 c 2,7,-1
 260 295 l 1,8,-1
 142 295 l 1,9,-1
 145 315 l 1,10,-1
 263 315 l 1,11,-1
 287 465 l 1,12,-1
 169 465 l 1,13,-1
 172 485 l 1,14,-1
 290 485 l 1,15,-1
 300 550 l 2,16,17
 315 642 315 642 374 691 c 128,-1,18
 433 740 433 740 531 740 c 0,19,20
 593 740 593 740 643 714 c 1,21,-1
 632 696 l 1,22,23
 587 720 587 720 528 720 c 0,24,25
 439 720 439 720 386 676.5 c 128,-1,26
 333 633 333 633 320 550 c 2,27,-1
 310 485 l 1,28,-1
 584 485 l 1,29,-1
 581 465 l 1,30,-1
 306 465 l 1,31,-1
 283 315 l 1,32,-1
 557 315 l 1,33,-1
 554 295 l 1,34,-1
 279 295 l 1,35,-1
 264 200 l 2,36,37
 255 141 255 141 226 94.5 c 128,-1,38
 197 48 197 48 156 22 c 1,39,-1
 156 20 l 1,40,-1
 569 20 l 1,0,-1
EndSplineSet
EndChar

StartChar: uni20BA
Encoding: 8378 8378 486
Width: 644
Flags: W
LayerCount: 2
Fore
SplineSet
659 340 m 1,0,1
 640 217 640 217 582.5 140 c 128,-1,2
 525 63 525 63 425 26.5 c 128,-1,3
 325 -10 325 -10 173 -10 c 2,4,-1
 134 -10 l 1,5,-1
 198 396 l 1,6,-1
 87 375 l 1,7,-1
 90 395 l 1,8,-1
 201 416 l 1,9,-1
 225 566 l 1,10,-1
 114 545 l 1,11,-1
 117 565 l 1,12,-1
 228 586 l 1,13,-1
 251 730 l 1,14,-1
 270 730 l 1,15,-1
 248 590 l 1,16,-1
 541 645 l 1,17,-1
 538 625 l 1,18,-1
 245 570 l 1,19,-1
 221 420 l 1,20,-1
 514 475 l 1,21,-1
 511 455 l 1,22,-1
 218 400 l 1,23,-1
 156 10 l 1,24,-1
 176 10 l 2,25,26
 323 10 323 10 418.5 44 c 128,-1,27
 514 78 514 78 567.5 150.5 c 128,-1,28
 621 223 621 223 640 340 c 1,29,-1
 659 340 l 1,0,1
EndSplineSet
EndChar

StartChar: uni20BC
Encoding: 8380 8380 487
Width: 723
Flags: W
CounterMasks: 1 38
LayerCount: 2
Fore
SplineSet
688 669.5 m 128,-1,1
 741 599 741 599 719 460 c 2,2,-1
 646 0 l 1,3,-1
 626 0 l 1,4,-1
 699 460 l 2,5,6
 740 720 740 720 505 720 c 2,7,-1
 485 720 l 1,8,-1
 371 0 l 1,9,-1
 352 0 l 1,10,-1
 466 720 l 1,11,-1
 446 720 l 2,12,13
 211 720 211 720 170 460 c 2,14,-1
 97 0 l 1,15,-1
 77 0 l 1,16,-1
 150 460 l 2,17,18
 172 599 172 599 247.5 669.5 c 128,-1,19
 323 740 323 740 449 740 c 2,20,-1
 469 740 l 1,21,-1
 484 835 l 1,22,-1
 504 835 l 1,23,-1
 489 740 l 1,24,-1
 508 740 l 2,25,0
 635 740 635 740 688 669.5 c 128,-1,1
EndSplineSet
EndChar

StartChar: uni20A6
Encoding: 8358 8358 488
Width: 779
GlyphClass: 2
Flags: W
AnchorPoint: "Anchor-1" 400 730 basechar 0
AnchorPoint: "Anchor-0" 400 0 basechar 0
LayerCount: 2
Fore
SplineSet
822 440 m 1,0,-1
 714 440 l 1,1,-1
 691 290 l 1,2,-1
 798 290 l 1,3,-1
 795 270 l 1,4,-1
 687 270 l 1,5,-1
 645 0 l 1,6,-1
 613 0 l 1,7,-1
 483 270 l 1,8,-1
 197 270 l 1,9,-1
 155 0 l 1,10,-1
 135 0 l 1,11,-1
 178 270 l 1,12,-1
 70 270 l 1,13,-1
 73 290 l 1,14,-1
 181 290 l 1,15,-1
 205 440 l 1,16,-1
 97 440 l 1,17,-1
 100 460 l 1,18,-1
 208 460 l 1,19,-1
 251 730 l 1,20,-1
 282 730 l 1,21,-1
 413 460 l 1,22,-1
 698 460 l 1,23,-1
 741 730 l 1,24,-1
 760 730 l 1,25,-1
 718 460 l 1,26,-1
 825 460 l 1,27,-1
 822 440 l 1,0,-1
267 709 m 1,28,-1
 228 460 l 1,29,-1
 390 460 l 1,30,-1
 269 709 l 1,31,-1
 267 709 l 1,28,-1
472 290 m 1,32,-1
 400 440 l 1,33,-1
 224 440 l 1,34,-1
 201 290 l 1,35,-1
 472 290 l 1,32,-1
671 290 m 1,36,-1
 695 440 l 1,37,-1
 423 440 l 1,38,-1
 496 290 l 1,39,-1
 671 290 l 1,36,-1
628 21 m 1,40,-1
 668 270 l 1,41,-1
 505 270 l 1,42,-1
 626 21 l 1,43,-1
 628 21 l 1,40,-1
EndSplineSet
EndChar

StartChar: peseta
Encoding: 8359 8359 489
Width: 665
Flags: W
LayerCount: 2
Fore
SplineSet
734 505 m 1,0,-1
 646 505 l 1,1,2
 626 398 626 398 550.5 349 c 128,-1,3
 475 300 475 300 330 300 c 2,4,-1
 202 300 l 1,5,-1
 155 0 l 1,6,-1
 135 0 l 1,7,-1
 215 505 l 1,8,-1
 107 505 l 1,9,-1
 110 525 l 1,10,-1
 218 525 l 1,11,-1
 251 730 l 1,12,-1
 398 730 l 2,13,14
 543 730 543 730 603 681 c 128,-1,15
 663 632 663 632 649 525 c 1,16,-1
 738 525 l 1,17,-1
 734 505 l 1,0,-1
238 525 m 1,18,-1
 630 525 l 1,19,20
 643 623 643 623 587 666.5 c 128,-1,21
 531 710 531 710 395 710 c 2,22,-1
 267 710 l 1,23,-1
 238 525 l 1,18,-1
538.5 363.5 m 128,-1,25
 608 407 608 407 627 505 c 1,26,-1
 235 505 l 1,27,-1
 205 320 l 1,28,-1
 333 320 l 2,29,24
 469 320 469 320 538.5 363.5 c 128,-1,25
EndSplineSet
EndChar

StartChar: uni20B1
Encoding: 8369 8369 490
Width: 665
Flags: W
LayerCount: 2
Fore
SplineSet
748 590 m 1,0,-1
 651 590 l 1,1,2
 655 557 655 557 648 515 c 256,3,4
 641 473 641 473 627 440 c 1,5,-1
 724 440 l 1,6,-1
 721 420 l 1,7,-1
 617 420 l 1,8,9
 583 359 583 359 512 329.5 c 128,-1,10
 441 300 441 300 330 300 c 2,11,-1
 202 300 l 1,12,-1
 155 0 l 1,13,-1
 135 0 l 1,14,-1
 202 420 l 1,15,-1
 94 420 l 1,16,-1
 97 440 l 1,17,-1
 205 440 l 1,18,-1
 229 590 l 1,19,-1
 121 590 l 1,20,-1
 124 610 l 1,21,-1
 232 610 l 1,22,-1
 251 730 l 1,23,-1
 398 730 l 2,24,25
 510 730 510 730 571 700.5 c 128,-1,26
 632 671 632 671 647 610 c 1,27,-1
 751 610 l 1,28,-1
 748 590 l 1,0,-1
251 610 m 1,29,-1
 626 610 l 1,30,31
 610 662 610 662 553 686 c 128,-1,32
 496 710 496 710 395 710 c 2,33,-1
 267 710 l 1,34,-1
 251 610 l 1,29,-1
630 590 m 1,36,-1
 248 590 l 1,37,-1
 224 440 l 1,38,-1
 607 440 l 1,39,40
 622 471 622 471 628 515 c 256,41,35
 635 559 635 559 630 590 c 1,36,-1
499 344 m 128,-1,43
 563 368 563 368 596 420 c 1,44,-1
 221 420 l 1,45,-1
 205 320 l 1,46,-1
 333 320 l 2,47,42
 435 320 435 320 499 344 c 128,-1,43
EndSplineSet
EndChar

StartChar: uni20BD
Encoding: 8381 8381 491
Width: 592
Flags: W
LayerCount: 2
Fore
SplineSet
204 310 m 1,0,-1
 180 160 l 1,1,-1
 464 160 l 1,2,-1
 461 140 l 1,3,-1
 177 140 l 1,4,-1
 155 0 l 1,5,-1
 135 0 l 1,6,-1
 157 140 l 1,7,-1
 49 140 l 1,8,-1
 53 160 l 1,9,-1
 160 160 l 1,10,-1
 184 310 l 1,11,-1
 76 310 l 1,12,-1
 80 330 l 1,13,-1
 187 330 l 1,14,-1
 251 730 l 1,15,-1
 398 730 l 2,16,17
 546 730 546 730 606 680 c 128,-1,18
 666 630 666 630 649 520 c 256,19,20
 632 410 632 410 555.5 360 c 128,-1,21
 479 310 479 310 331 310 c 2,22,-1
 204 310 l 1,0,-1
207 330 m 1,23,-1
 334 330 l 2,24,25
 474 330 474 330 543.5 374.5 c 128,-1,26
 613 419 613 419 629 520 c 256,27,28
 645 621 645 621 590 665.5 c 128,-1,29
 535 710 535 710 395 710 c 2,30,-1
 267 710 l 1,31,-1
 207 330 l 1,23,-1
EndSplineSet
EndChar

StartChar: uni20B9
Encoding: 8377 8377 492
Width: 615
Flags: W
LayerCount: 2
Fore
SplineSet
669 710 m 1,0,-1
 460 710 l 1,1,2
 517 691 517 691 540.5 651.5 c 128,-1,3
 564 612 564 612 556 550 c 1,4,-1
 644 550 l 1,5,-1
 641 530 l 1,6,-1
 553 530 l 1,7,8
 534 436 534 436 459.5 393 c 128,-1,9
 385 350 385 350 240 350 c 2,10,-1
 201 350 l 1,11,-1
 488 0 l 1,12,-1
 461 0 l 1,13,-1
 174 350 l 1,14,-1
 103 350 l 1,15,-1
 106 370 l 1,16,-1
 243 370 l 2,17,18
 380 370 380 370 448 408 c 128,-1,19
 516 446 516 446 533 530 c 1,20,-1
 131 530 l 1,21,-1
 134 550 l 1,22,-1
 536 550 l 1,23,24
 545 634 545 634 489.5 672 c 128,-1,25
 434 710 434 710 297 710 c 2,26,-1
 160 710 l 1,27,-1
 163 730 l 1,28,-1
 673 730 l 1,29,-1
 669 710 l 1,0,-1
EndSplineSet
EndChar

StartChar: sterling
Encoding: 163 163 493
Width: 630
Flags: W
LayerCount: 2
Fore
SplineSet
569 20 m 1,0,-1
 566 0 l 1,1,-1
 96 0 l 1,2,-1
 99 20 l 1,3,4
 129 22 129 22 159 44.5 c 128,-1,5
 189 67 189 67 212.5 107 c 128,-1,6
 236 147 236 147 245 200 c 2,7,-1
 273 380 l 1,8,-1
 156 380 l 1,9,-1
 159 400 l 1,10,-1
 277 400 l 1,11,-1
 300 550 l 2,12,13
 315 642 315 642 374 691 c 128,-1,14
 433 740 433 740 531 740 c 0,15,16
 593 740 593 740 643 714 c 1,17,-1
 632 696 l 1,18,19
 587 720 587 720 528 720 c 0,20,21
 439 720 439 720 386 676.5 c 128,-1,22
 333 633 333 633 320 550 c 2,23,-1
 296 400 l 1,24,-1
 571 400 l 1,25,-1
 567 380 l 1,26,-1
 293 380 l 1,27,-1
 264 200 l 2,28,29
 255 141 255 141 226 94.5 c 128,-1,30
 197 48 197 48 156 22 c 1,31,-1
 156 20 l 1,32,-1
 569 20 l 1,0,-1
EndSplineSet
EndChar

StartChar: uni20A9
Encoding: 8361 8361 494
Width: 936
GlyphClass: 2
Flags: W
AnchorPoint: "Anchor-1" 480 730 basechar 0
AnchorPoint: "Anchor-0" 480 0 basechar 0
LayerCount: 2
Fore
SplineSet
979 440 m 1,0,-1
 871 440 l 1,1,-1
 809 290 l 1,2,-1
 955 290 l 1,3,-1
 952 270 l 1,4,-1
 801 270 l 1,5,-1
 690 0 l 1,6,-1
 658 0 l 1,7,-1
 618 270 l 1,8,-1
 404 270 l 1,9,-1
 278 0 l 1,10,-1
 247 0 l 1,11,-1
 221 270 l 1,12,-1
 70 270 l 1,13,-1
 73 290 l 1,14,-1
 219 290 l 1,15,-1
 205 440 l 1,16,-1
 97 440 l 1,17,-1
 100 460 l 1,18,-1
 203 460 l 1,19,-1
 177 730 l 1,20,-1
 198 730 l 1,21,-1
 223 460 l 1,22,-1
 473 460 l 1,23,-1
 552 630 l 1,24,-1
 584 630 l 1,25,-1
 610 460 l 1,26,-1
 860 460 l 1,27,-1
 970 730 l 1,28,-1
 991 730 l 1,29,-1
 879 460 l 1,30,-1
 982 460 l 1,31,-1
 979 440 l 1,0,-1
564 613 m 1,32,-1
 493 460 l 1,33,-1
 589 460 l 1,34,-1
 566 613 l 1,35,-1
 564 613 l 1,32,-1
224 440 m 1,36,-1
 239 290 l 1,37,-1
 394 290 l 1,38,-1
 464 440 l 1,39,-1
 224 440 l 1,36,-1
615 290 m 1,40,-1
 592 440 l 1,41,-1
 484 440 l 1,42,-1
 413 290 l 1,43,-1
 615 290 l 1,40,-1
790 290 m 1,44,-1
 852 440 l 1,45,-1
 612 440 l 1,46,-1
 635 290 l 1,47,-1
 790 290 l 1,44,-1
266 17 m 1,48,-1
 385 270 l 1,49,-1
 241 270 l 1,50,-1
 264 17 l 1,51,-1
 266 17 l 1,48,-1
678 17 m 1,52,-1
 782 270 l 1,53,-1
 637 270 l 1,54,-1
 676 17 l 1,55,-1
 678 17 l 1,52,-1
EndSplineSet
EndChar

StartChar: yen
Encoding: 165 165 495
Width: 608
Flags: W
LayerCount: 2
Fore
SplineSet
714 730 m 1,0,-1
 376 340 l 1,1,-1
 593 340 l 1,2,-1
 590 320 l 1,3,-1
 364 320 l 1,4,-1
 341 170 l 1,5,-1
 566 170 l 1,6,-1
 563 150 l 1,7,-1
 338 150 l 1,8,-1
 314 0 l 1,9,-1
 294 0 l 1,10,-1
 318 150 l 1,11,-1
 93 150 l 1,12,-1
 96 170 l 1,13,-1
 321 170 l 1,14,-1
 345 320 l 1,15,-1
 119 320 l 1,16,-1
 123 340 l 1,17,-1
 339 340 l 1,18,-1
 126 730 l 1,19,-1
 150 730 l 1,20,-1
 358 348 l 1,21,-1
 360 348 l 1,22,-1
 689 730 l 1,23,-1
 714 730 l 1,0,-1
EndSplineSet
EndChar

StartChar: uni2215
Encoding: 8725 8725 497
Width: 365
Flags: W
LayerCount: 2
Fore
SplineSet
443 730 m 1,0,-1
 464 730 l 1,1,-1
 39 0 l 1,2,-1
 17 0 l 1,3,-1
 443 730 l 1,0,-1
EndSplineSet
EndChar

StartChar: plus
Encoding: 43 43 498
Width: 672
Flags: W
LayerCount: 2
Fore
SplineSet
371 280 m 1,0,-1
 96 280 l 1,1,-1
 99 300 l 1,2,-1
 374 300 l 1,3,-1
 418 580 l 1,4,-1
 438 580 l 1,5,-1
 393 300 l 1,6,-1
 668 300 l 1,7,-1
 665 280 l 1,8,-1
 390 280 l 1,9,-1
 346 0 l 1,10,-1
 326 0 l 1,11,-1
 371 280 l 1,0,-1
EndSplineSet
EndChar

StartChar: minus
Encoding: 8722 8722 499
Width: 672
Flags: W
LayerCount: 2
Fore
SplineSet
99 300 m 1,0,-1
 668 300 l 1,1,-1
 665 280 l 1,2,-1
 96 280 l 1,3,-1
 99 300 l 1,0,-1
EndSplineSet
EndChar

StartChar: multiply
Encoding: 215 215 500
Width: 563
Flags: W
LayerCount: 2
Fore
SplineSet
48 57 m 1,0,-1
 315 291 l 1,1,-1
 122 524 l 1,2,-1
 138 538 l 1,3,-1
 330 305 l 1,4,-1
 596 538 l 1,5,-1
 607 524 l 1,6,-1
 342 291 l 1,7,-1
 533 57 l 1,8,-1
 517 43 l 1,9,-1
 326 276 l 1,10,-1
 60 43 l 1,11,-1
 48 57 l 1,0,-1
EndSplineSet
EndChar

StartChar: divide
Encoding: 247 247 501
Width: 672
Flags: W
CounterMasks: 1 e0
LayerCount: 2
Fore
SplineSet
391.5 500.5 m 128,-1,1
 383 511 383 511 385 525 c 256,2,3
 387 539 387 539 399 549.5 c 128,-1,4
 411 560 411 560 425 560 c 256,5,6
 439 560 439 560 447.5 549.5 c 128,-1,7
 456 539 456 539 454 525 c 256,8,9
 452 511 452 511 439.5 500.5 c 128,-1,10
 427 490 427 490 414 490 c 256,11,0
 400 490 400 490 391.5 500.5 c 128,-1,1
99 300 m 1,12,-1
 668 300 l 1,13,-1
 665 280 l 1,14,-1
 96 280 l 1,15,-1
 99 300 l 1,12,-1
317 30.5 m 128,-1,17
 308 41 308 41 310 55 c 256,18,19
 312 69 312 69 324.5 79.5 c 128,-1,20
 337 90 337 90 350 90 c 256,21,22
 364 90 364 90 372.5 79.5 c 128,-1,23
 381 69 381 69 379 55 c 256,24,25
 377 41 377 41 365 30.5 c 128,-1,26
 353 20 353 20 339 20 c 256,27,16
 326 20 326 20 317 30.5 c 128,-1,17
EndSplineSet
EndChar

StartChar: equal
Encoding: 61 61 502
Width: 759
Flags: W
LayerCount: 2
Fore
SplineSet
160 410 m 1,0,-1
 729 410 l 1,1,-1
 726 390 l 1,2,-1
 157 390 l 1,3,-1
 160 410 l 1,0,-1
126 190 m 1,4,-1
 694 190 l 1,5,-1
 691 170 l 1,6,-1
 122 170 l 1,7,-1
 126 190 l 1,4,-1
EndSplineSet
EndChar

StartChar: notequal
Encoding: 8800 8800 503
Width: 759
Flags: W
LayerCount: 2
Fore
SplineSet
726 390 m 1,0,-1
 484 390 l 1,1,-1
 387 190 l 1,2,-1
 694 190 l 1,3,-1
 691 170 l 1,4,-1
 377 170 l 1,5,-1
 289 -12 l 1,6,-1
 272 -6 l 1,7,-1
 358 170 l 1,8,-1
 122 170 l 1,9,-1
 126 190 l 1,10,-1
 368 190 l 1,11,-1
 464 390 l 1,12,-1
 157 390 l 1,13,-1
 160 410 l 1,14,-1
 474 410 l 1,15,-1
 563 592 l 1,16,-1
 579 586 l 1,17,-1
 494 410 l 1,18,-1
 729 410 l 1,19,-1
 726 390 l 1,0,-1
EndSplineSet
EndChar

StartChar: greater
Encoding: 62 62 504
Width: 706
Flags: W
LayerCount: 2
Fore
SplineSet
95 52 m 1,0,-1
 679 289 l 1,1,-1
 679 291 l 1,2,-1
 170 528 l 1,3,-1
 174 550 l 1,4,-1
 703 303 l 1,5,-1
 699 277 l 1,6,-1
 91 30 l 1,7,-1
 95 52 l 1,0,-1
EndSplineSet
EndChar

StartChar: less
Encoding: 60 60 505
Width: 706
Flags: W
LayerCount: 2
Fore
SplineSet
96 277 m 1,0,-1
 100 303 l 1,1,-1
 707 550 l 1,2,-1
 704 528 l 1,3,-1
 120 291 l 1,4,-1
 119 289 l 1,5,-1
 629 52 l 1,6,-1
 625 30 l 1,7,-1
 96 277 l 1,0,-1
EndSplineSet
EndChar

StartChar: greaterequal
Encoding: 8805 8805 506
Width: 692
Flags: W
LayerCount: 2
Fore
SplineSet
106 180 m 1,0,-1
 109 202 l 1,1,-1
 694 439 l 1,2,-1
 694 441 l 1,3,-1
 185 678 l 1,4,-1
 188 700 l 1,5,-1
 717 453 l 1,6,-1
 713 427 l 1,7,-1
 106 180 l 1,0,-1
77 0 m 1,8,-1
 81 20 l 1,9,-1
 649 20 l 1,10,-1
 646 0 l 1,11,-1
 77 0 l 1,8,-1
EndSplineSet
EndChar

StartChar: lessequal
Encoding: 8804 8804 507
Width: 692
Flags: W
LayerCount: 2
Fore
SplineSet
118 453 m 1,0,-1
 726 700 l 1,1,-1
 722 678 l 1,2,-1
 138 441 l 1,3,-1
 138 439 l 1,4,-1
 647 202 l 1,5,-1
 643 180 l 1,6,-1
 114 427 l 1,7,-1
 118 453 l 1,0,-1
50 20 m 1,8,-1
 618 20 l 1,9,-1
 615 0 l 1,10,-1
 46 0 l 1,11,-1
 50 20 l 1,8,-1
EndSplineSet
EndChar

StartChar: plusminus
Encoding: 177 177 508
Width: 759
Flags: W
LayerCount: 2
Fore
SplineSet
438 430 m 1,0,-1
 164 430 l 1,1,-1
 167 450 l 1,2,-1
 441 450 l 1,3,-1
 486 730 l 1,4,-1
 505 730 l 1,5,-1
 461 450 l 1,6,-1
 735 450 l 1,7,-1
 732 430 l 1,8,-1
 458 430 l 1,9,-1
 413 150 l 1,10,-1
 394 150 l 1,11,-1
 438 430 l 1,0,-1
99 20 m 1,12,-1
 667 20 l 1,13,-1
 664 0 l 1,14,-1
 96 0 l 1,15,-1
 99 20 l 1,12,-1
EndSplineSet
EndChar

StartChar: asciitilde
Encoding: 126 126 510
Width: 652
Flags: W
LayerCount: 2
Fore
SplineSet
213 365 m 0,1,2
 243 365 243 365 282.5 351.5 c 128,-1,3
 322 338 322 338 379 309 c 0,4,5
 434 281 434 281 472 268 c 128,-1,6
 510 255 510 255 538 255 c 0,7,8
 621 255 621 255 637 355 c 1,9,-1
 657 355 l 1,10,11
 646 288 646 288 612 261.5 c 128,-1,12
 578 235 578 235 535 235 c 0,13,14
 505 235 505 235 465.5 248.5 c 128,-1,15
 426 262 426 262 368 291 c 0,16,17
 313 319 313 319 275.5 332 c 128,-1,18
 238 345 238 345 209 345 c 0,19,20
 166 345 166 345 142 318.5 c 128,-1,21
 118 292 118 292 109 235 c 1,22,-1
 89 235 l 1,23,0
 110 365 110 365 213 365 c 0,1,2
EndSplineSet
EndChar

StartChar: logicalnot
Encoding: 172 172 511
Width: 696
Flags: W
LayerCount: 2
Fore
SplineSet
643 390 m 1,0,-1
 114 390 l 1,1,-1
 117 410 l 1,2,-1
 666 410 l 1,3,-1
 628 170 l 1,4,-1
 608 170 l 1,5,-1
 643 390 l 1,0,-1
EndSplineSet
EndChar

StartChar: asciicircum
Encoding: 94 94 512
Width: 544
Flags: W
LayerCount: 2
Fore
SplineSet
373 730 m 1,0,-1
 402 730 l 1,1,-1
 571 280 l 1,2,-1
 549 280 l 1,3,-1
 386 716 l 1,4,-1
 385 716 l 1,5,-1
 84 280 l 1,6,-1
 62 280 l 1,7,-1
 373 730 l 1,0,-1
EndSplineSet
EndChar

StartChar: uni00B5
Encoding: 181 181 513
Width: 517
GlyphClass: 2
Flags: W
AnchorPoint: "Anchor-3" 471 480 basechar 0
AnchorPoint: "Anchor-2" 471 0 basechar 0
AnchorPoint: "Anchor-1" 279 520 basechar 0
AnchorPoint: "Anchor-0" 279 0 basechar 0
LayerCount: 2
Fore
SplineSet
523 520 m 1,0,-1
 440 0 l 1,1,-1
 421 0 l 1,2,-1
 442 128 l 1,3,-1
 440 128 l 1,4,5
 404 65 404 65 348 27.5 c 128,-1,6
 292 -10 292 -10 231 -10 c 0,7,8
 181 -10 181 -10 147.5 15.5 c 128,-1,9
 114 41 114 41 103 89 c 1,10,-1
 54 -220 l 1,11,-1
 35 -220 l 1,12,-1
 152 520 l 1,13,-1
 171 520 l 1,14,-1
 121 200 l 2,15,16
 107 110 107 110 136.5 60 c 128,-1,17
 166 10 166 10 234 10 c 0,18,19
 286 10 286 10 334 39.5 c 128,-1,20
 382 69 382 69 415 119 c 128,-1,21
 448 169 448 169 458 230 c 2,22,-1
 504 520 l 1,23,-1
 523 520 l 1,0,-1
EndSplineSet
EndChar

StartChar: percent
Encoding: 37 37 514
Width: 792
Flags: W
LayerCount: 2
Fore
SplineSet
135.5 343.5 m 128,-1,1
 107 401 107 401 125 511 c 256,2,3
 142 621 142 621 189 678.5 c 128,-1,4
 236 736 236 736 307 736 c 0,5,6
 380 736 380 736 408 678.5 c 128,-1,7
 436 621 436 621 419 511 c 256,8,9
 402 401 402 401 355 343.5 c 128,-1,10
 308 286 308 286 236 286 c 0,11,0
 164 286 164 286 135.5 343.5 c 128,-1,1
707 730 m 1,12,-1
 730 730 l 1,13,-1
 201 0 l 1,14,-1
 179 0 l 1,15,-1
 707 730 l 1,12,-1
399 511 m 256,17,18
 431 716 431 716 304 716 c 256,19,20
 177 716 177 716 144 511 c 256,21,22
 112 306 112 306 239 306 c 256,23,16
 367 306 367 306 399 511 c 256,17,18
501.5 51.5 m 128,-1,25
 473 109 473 109 490 219 c 256,26,27
 507 329 507 329 554 386.5 c 128,-1,28
 601 444 601 444 673 444 c 0,29,30
 746 444 746 444 773.5 386.5 c 128,-1,31
 801 329 801 329 784 219 c 256,32,33
 767 109 767 109 720.5 51.5 c 128,-1,34
 674 -6 674 -6 601 -6 c 0,35,24
 530 -6 530 -6 501.5 51.5 c 128,-1,25
764 219 m 256,37,38
 796 424 796 424 669 424 c 256,39,40
 542 424 542 424 510 219 c 256,41,42
 478 14 478 14 604 14 c 256,43,36
 732 14 732 14 764 219 c 256,37,38
EndSplineSet
EndChar

StartChar: at
Encoding: 64 64 516
Width: 800
Flags: W
LayerCount: 2
Fore
SplineSet
544 50 m 1,0,-1
 557 133 l 1,1,-1
 555 133 l 1,2,3
 501 40 501 40 394 40 c 0,4,5
 315 40 315 40 279.5 98 c 128,-1,6
 244 156 244 156 260 260 c 0,7,8
 276 362 276 362 330.5 421 c 128,-1,9
 385 480 385 480 464 480 c 0,10,11
 571 480 571 480 595 387 c 1,12,-1
 597 387 l 1,13,-1
 610 470 l 1,14,-1
 630 470 l 1,15,-1
 566 70 l 1,16,-1
 700 70 l 1,17,18
 763 152 763 152 780 260 c 0,19,20
 796 362 796 362 766 440.5 c 128,-1,21
 736 519 736 519 666 562 c 128,-1,22
 596 605 596 605 496 605 c 0,23,24
 398 605 398 605 314 561 c 128,-1,25
 230 517 230 517 174.5 438.5 c 128,-1,26
 119 360 119 360 104 260 c 256,27,28
 88 160 88 160 118.5 81.5 c 128,-1,29
 149 3 149 3 219 -41 c 128,-1,30
 289 -85 289 -85 387 -85 c 0,31,32
 499 -85 499 -85 593 -27 c 1,33,-1
 601 -43 l 1,34,35
 502 -105 502 -105 384 -105 c 0,36,37
 280 -105 280 -105 206 -58.5 c 128,-1,38
 132 -12 132 -12 99.5 71 c 128,-1,39
 67 154 67 154 84 260 c 256,40,41
 101 366 101 366 159.5 449 c 128,-1,42
 218 532 218 532 307 578.5 c 128,-1,43
 396 625 396 625 499 625 c 0,44,45
 605 625 605 625 679.5 579.5 c 128,-1,46
 754 534 754 534 785 451 c 128,-1,47
 816 368 816 368 799 260 c 0,48,49
 780 140 780 140 708 50 c 1,50,-1
 544 50 l 1,0,-1
514 107 m 128,-1,52
 560 154 560 154 574 240 c 2,53,-1
 580 280 l 2,54,55
 594 366 594 366 562.5 413 c 128,-1,56
 531 460 531 460 461 460 c 0,57,58
 392 460 392 460 343.5 406 c 128,-1,59
 295 352 295 352 280 260 c 0,60,61
 265 166 265 166 296.5 113 c 128,-1,62
 328 60 328 60 397 60 c 0,63,51
 468 60 468 60 514 107 c 128,-1,52
EndSplineSet
EndChar

StartChar: ampersand
Encoding: 38 38 517
Width: 633
Flags: W
LayerCount: 2
Fore
SplineSet
617 -3 m 1,0,-1
 534 111 l 1,1,2
 479 52 479 52 408 21 c 128,-1,3
 337 -10 337 -10 258 -10 c 0,4,5
 158 -10 158 -10 107.5 38.5 c 128,-1,6
 57 87 57 87 71 170 c 0,7,8
 78 212 78 212 101 247.5 c 128,-1,9
 124 283 124 283 170.5 320.5 c 128,-1,10
 217 358 217 358 298 408 c 2,11,-1
 313 417 l 1,12,-1
 300 433 l 2,13,14
 255 495 255 495 239.5 537.5 c 128,-1,15
 224 580 224 580 230 620 c 0,16,17
 239 677 239 677 283.5 708.5 c 128,-1,18
 328 740 328 740 401 740 c 256,19,20
 474 740 474 740 508.5 709 c 128,-1,21
 543 678 543 678 534 620 c 0,22,23
 526 569 526 569 482.5 522.5 c 128,-1,24
 439 476 439 476 342 414 c 1,25,-1
 532 150 l 1,26,-1
 577 430 l 1,27,-1
 597 430 l 1,28,-1
 548 128 l 1,29,-1
 633 10 l 1,30,-1
 617 -3 l 1,0,-1
331 428 m 1,31,32
 425 488 425 488 466 531.5 c 128,-1,33
 507 575 507 575 514 620 c 0,34,35
 522 669 522 669 492 694.5 c 128,-1,36
 462 720 462 720 398 720 c 0,37,38
 334 720 334 720 295.5 694 c 128,-1,39
 257 668 257 668 250 620 c 0,40,41
 244 584 244 584 259.5 544.5 c 128,-1,42
 275 505 275 505 317 447 c 2,43,-1
 331 428 l 1,31,32
403 39.5 m 128,-1,45
 470 69 470 69 523 126 c 1,46,-1
 323 402 l 1,47,-1
 307 392 l 2,48,49
 228 344 228 344 183.5 308.5 c 128,-1,50
 139 273 139 273 117.5 240.5 c 128,-1,51
 96 208 96 208 90 170 c 0,52,53
 78 96 78 96 123.5 53 c 128,-1,54
 169 10 169 10 261 10 c 0,55,44
 336 10 336 10 403 39.5 c 128,-1,45
EndSplineSet
EndChar

StartChar: paragraph
Encoding: 182 182 518
Width: 537
Flags: W
LayerCount: 2
Fore
SplineSet
170 301 m 128,-1,1
 123 332 123 332 101 385 c 128,-1,2
 79 438 79 438 89 500 c 256,3,4
 99 562 99 562 138 615 c 128,-1,5
 177 668 177 668 233.5 699 c 128,-1,6
 290 730 290 730 351 730 c 2,7,-1
 567 730 l 1,8,-1
 434 -110 l 1,9,-1
 414 -110 l 1,10,-1
 544 710 l 1,11,-1
 367 710 l 1,12,-1
 238 -110 l 1,13,-1
 218 -110 l 1,14,-1
 278 270 l 1,15,0
 217 270 217 270 170 301 c 128,-1,1
EndSplineSet
EndChar

StartChar: section
Encoding: 167 167 519
Width: 500
Flags: W
LayerCount: 2
Fore
SplineSet
423 99 m 128,-1,1
 433 70 433 70 427 30 c 0,2,3
 416 -38 416 -38 362.5 -79 c 128,-1,4
 309 -120 309 -120 231 -120 c 0,5,6
 186 -120 186 -120 148 -109 c 128,-1,7
 110 -98 110 -98 72 -74 c 1,8,-1
 85 -56 l 1,9,10
 122 -79 122 -79 157.5 -89.5 c 128,-1,11
 193 -100 193 -100 235 -100 c 0,12,13
 305 -100 305 -100 351.5 -64.5 c 128,-1,14
 398 -29 398 -29 407 30 c 0,15,16
 415 82 415 82 388 116 c 128,-1,17
 361 150 361 150 275 170 c 0,18,19
 184 192 184 192 148 232 c 128,-1,20
 112 272 112 272 123 340 c 0,21,22
 129 381 129 381 153.5 415 c 128,-1,23
 178 449 178 449 215 471 c 1,24,25
 186 492 186 492 176 521 c 128,-1,26
 166 550 166 550 172 590 c 0,27,28
 183 658 183 658 236.5 699 c 128,-1,29
 290 740 290 740 368 740 c 0,30,31
 413 740 413 740 451 729 c 128,-1,32
 489 718 489 718 527 694 c 1,33,-1
 514 676 l 1,34,35
 478 699 478 699 442.5 709.5 c 128,-1,36
 407 720 407 720 364 720 c 0,37,38
 294 720 294 720 247.5 684.5 c 128,-1,39
 201 649 201 649 192 590 c 0,40,41
 184 538 184 538 211 504 c 128,-1,42
 238 470 238 470 324 450 c 0,43,44
 415 428 415 428 451 388 c 128,-1,45
 487 348 487 348 476 280 c 0,46,47
 470 239 470 239 446 205 c 128,-1,48
 422 171 422 171 384 149 c 1,49,0
 413 128 413 128 423 99 c 128,-1,1
165.5 244.5 m 128,-1,51
 198 209 198 209 283 190 c 0,52,53
 334 178 334 178 366 160 c 1,54,55
 403 179 403 179 426.5 210 c 128,-1,56
 450 241 450 241 457 280 c 0,57,58
 467 340 467 340 434 375.5 c 128,-1,59
 401 411 401 411 317 430 c 0,60,61
 266 442 266 442 233 460 c 1,62,63
 196 441 196 441 172.5 410 c 128,-1,64
 149 379 149 379 143 340 c 0,65,50
 133 280 133 280 165.5 244.5 c 128,-1,51
EndSplineSet
EndChar

StartChar: copyright
Encoding: 169 169 520
Width: 800
Flags: W
LayerCount: 2
Fore
SplineSet
228.5 49 m 128,-1,1
 154 98 154 98 119.5 182 c 128,-1,2
 85 266 85 266 101 365 c 256,3,4
 117 464 117 464 178 548 c 128,-1,5
 239 632 239 632 329 681 c 128,-1,6
 419 730 419 730 516 730 c 256,7,8
 613 730 613 730 687.5 681 c 128,-1,9
 762 632 762 632 797 548 c 128,-1,10
 832 464 832 464 816 365 c 256,11,12
 800 266 800 266 739 182 c 128,-1,13
 678 98 678 98 587.5 49 c 128,-1,14
 497 0 497 0 400 0 c 256,15,0
 303 0 303 0 228.5 49 c 128,-1,1
580.5 66.5 m 128,-1,17
 665 113 665 113 723 192 c 128,-1,18
 781 271 781 271 796 365 c 256,19,20
 811 459 811 459 778 538 c 128,-1,21
 745 617 745 617 675 663.5 c 128,-1,22
 605 710 605 710 513 710 c 256,23,24
 421 710 421 710 336 663.5 c 128,-1,25
 251 617 251 617 193 538 c 128,-1,26
 135 459 135 459 120 365 c 256,27,28
 105 271 105 271 138 192 c 128,-1,29
 171 113 171 113 241.5 66.5 c 128,-1,30
 312 20 312 20 404 20 c 256,31,16
 496 20 496 20 580.5 66.5 c 128,-1,17
327 168 m 128,-1,33
 284 196 284 196 266 247 c 128,-1,34
 248 298 248 298 258 365 c 256,35,36
 269 432 269 432 303 483 c 128,-1,37
 337 534 337 534 389 562 c 128,-1,38
 441 590 441 590 504 590 c 0,39,40
 579 590 579 590 629 551 c 1,41,-1
 615 534 l 1,42,43
 570 570 570 570 501 570 c 0,44,45
 414 570 414 570 353.5 514.5 c 128,-1,46
 293 459 293 459 278 365 c 256,47,48
 263 271 263 271 305.5 215.5 c 128,-1,49
 348 160 348 160 436 160 c 0,50,51
 506 160 506 160 562 196 c 1,52,-1
 570 179 l 1,53,54
 508 140 508 140 432 140 c 0,55,32
 370 140 370 140 327 168 c 128,-1,33
EndSplineSet
EndChar

StartChar: registered
Encoding: 174 174 521
Width: 800
Flags: W
LayerCount: 2
Fore
SplineSet
687.5 681 m 128,-1,1
 762 632 762 632 797 548 c 128,-1,2
 832 464 832 464 816 365 c 256,3,4
 800 266 800 266 739 182 c 128,-1,5
 678 98 678 98 587.5 49 c 128,-1,6
 497 0 497 0 400 0 c 256,7,8
 303 0 303 0 228.5 49 c 128,-1,9
 154 98 154 98 119.5 182 c 128,-1,10
 85 266 85 266 101 365 c 256,11,12
 117 464 117 464 178 548 c 128,-1,13
 239 632 239 632 329 681 c 128,-1,14
 419 730 419 730 516 730 c 256,15,0
 613 730 613 730 687.5 681 c 128,-1,1
580.5 66.5 m 128,-1,17
 665 113 665 113 723 192 c 128,-1,18
 781 271 781 271 796 365 c 256,19,20
 811 459 811 459 778 538 c 128,-1,21
 745 617 745 617 675 663.5 c 128,-1,22
 605 710 605 710 513 710 c 256,23,24
 421 710 421 710 336 663.5 c 128,-1,25
 251 617 251 617 193 538 c 128,-1,26
 135 459 135 459 120 365 c 256,27,28
 105 271 105 271 138 192 c 128,-1,29
 171 113 171 113 241.5 66.5 c 128,-1,30
 312 20 312 20 404 20 c 256,31,16
 496 20 496 20 580.5 66.5 c 128,-1,17
388 356 m 1,32,-1
 579 146 l 1,33,-1
 549 146 l 1,34,-1
 359 356 l 1,35,-1
 326 146 l 1,36,-1
 306 146 l 1,37,-1
 375 584 l 1,38,-1
 464 584 l 2,39,40
 553 584 553 584 589.5 557 c 128,-1,41
 626 530 626 530 616 470 c 256,42,43
 606 410 606 410 561.5 383 c 128,-1,44
 517 356 517 356 427 356 c 2,45,-1
 388 356 l 1,32,-1
392 564 m 1,46,-1
 362 376 l 1,47,-1
 431 376 l 2,48,49
 512 376 512 376 550.5 398 c 128,-1,50
 589 420 589 420 596 470 c 256,51,52
 604 520 604 520 573 542 c 128,-1,53
 542 564 542 564 460 564 c 2,54,-1
 392 564 l 1,46,-1
EndSplineSet
EndChar

StartChar: trademark
Encoding: 8482 8482 522
Width: 726
Flags: W
LayerCount: 2
Fore
SplineSet
265 710 m 1,0,-1
 138 710 l 1,1,-1
 141 730 l 1,2,-1
 416 730 l 1,3,-1
 412 710 l 1,4,-1
 285 710 l 1,5,-1
 230 365 l 1,6,-1
 211 365 l 1,7,-1
 265 710 l 1,0,-1
476 730 m 1,8,-1
 505 730 l 1,9,-1
 596 463 l 1,10,-1
 597 463 l 1,11,-1
 772 730 l 1,12,-1
 801 730 l 1,13,-1
 743 365 l 1,14,-1
 723 365 l 1,15,-1
 777 702 l 1,16,-1
 776 702 l 1,17,-1
 605 443 l 1,18,-1
 581 443 l 1,19,-1
 492 702 l 1,20,-1
 491 702 l 1,21,-1
 438 365 l 1,22,-1
 418 365 l 1,23,-1
 476 730 l 1,8,-1
EndSplineSet
EndChar

StartChar: degree
Encoding: 176 176 523
Width: 386
Flags: W
LayerCount: 2
Fore
SplineSet
186.5 441.5 m 128,-1,1
 155 463 155 463 139.5 499 c 128,-1,2
 124 535 124 535 131 578 c 0,3,4
 138 620 138 620 164.5 656 c 128,-1,5
 191 692 191 692 229.5 713.5 c 128,-1,6
 268 735 268 735 310 735 c 0,7,8
 351 735 351 735 383 713.5 c 128,-1,9
 415 692 415 692 430.5 656 c 128,-1,10
 446 620 446 620 439 578 c 0,11,12
 432 535 432 535 405.5 499 c 128,-1,13
 379 463 379 463 340.5 441.5 c 128,-1,14
 302 420 302 420 260 420 c 0,15,0
 218 420 218 420 186.5 441.5 c 128,-1,1
334 458.5 m 128,-1,17
 368 477 368 477 391 509 c 128,-1,18
 414 541 414 541 420 578 c 256,19,20
 426 615 426 615 412.5 646.5 c 128,-1,21
 399 678 399 678 371 696.5 c 128,-1,22
 343 715 343 715 307 715 c 256,23,24
 271 715 271 715 236.5 696.5 c 128,-1,25
 202 678 202 678 179 646.5 c 128,-1,26
 156 615 156 615 150 578 c 256,27,28
 144 541 144 541 157.5 509 c 128,-1,29
 171 477 171 477 199 458.5 c 128,-1,30
 227 440 227 440 264 440 c 256,31,16
 300 440 300 440 334 458.5 c 128,-1,17
EndSplineSet
EndChar

StartChar: bar
Encoding: 124 124 524
Width: 210
Flags: W
LayerCount: 2
Fore
SplineSet
224 810 m 1,0,-1
 243 810 l 1,1,-1
 80 -220 l 1,2,-1
 61 -220 l 1,3,-1
 224 810 l 1,0,-1
EndSplineSet
EndChar

StartChar: brokenbar
Encoding: 166 166 525
Width: 210
Flags: W
LayerCount: 2
Fore
SplineSet
224 810 m 1,0,-1
 243 810 l 1,1,-1
 174 370 l 1,2,-1
 154 370 l 1,3,-1
 224 810 l 1,0,-1
130 220 m 1,4,-1
 150 220 l 1,5,-1
 80 -220 l 1,6,-1
 61 -220 l 1,7,-1
 130 220 l 1,4,-1
EndSplineSet
EndChar

StartChar: dagger
Encoding: 8224 8224 526
Width: 462
Flags: W
LayerCount: 2
Fore
SplineSet
301 500 m 1,0,-1
 105 500 l 1,1,-1
 108 520 l 1,2,-1
 304 520 l 1,3,-1
 337 730 l 1,4,-1
 357 730 l 1,5,-1
 323 520 l 1,6,-1
 519 520 l 1,7,-1
 516 500 l 1,8,-1
 320 500 l 1,9,-1
 224 -110 l 1,10,-1
 204 -110 l 1,11,-1
 301 500 l 1,0,-1
EndSplineSet
EndChar

StartChar: daggerdbl
Encoding: 8225 8225 527
Width: 482
Flags: W
LayerCount: 2
Fore
SplineSet
247 100 m 1,0,-1
 51 100 l 1,1,-1
 54 120 l 1,2,-1
 250 120 l 1,3,-1
 311 500 l 1,4,-1
 115 500 l 1,5,-1
 118 520 l 1,6,-1
 314 520 l 1,7,-1
 347 730 l 1,8,-1
 367 730 l 1,9,-1
 333 520 l 1,10,-1
 529 520 l 1,11,-1
 526 500 l 1,12,-1
 330 500 l 1,13,-1
 270 120 l 1,14,-1
 466 120 l 1,15,-1
 463 100 l 1,16,-1
 267 100 l 1,17,-1
 234 -110 l 1,18,-1
 214 -110 l 1,19,-1
 247 100 l 1,0,-1
EndSplineSet
EndChar

StartChar: uni2116
Encoding: 8470 8470 528
Width: 1124
GlyphClass: 2
Flags: W
AnchorPoint: "Anchor-1" 355 730 basechar 0
AnchorPoint: "Anchor-0" 355 0 basechar 0
LayerCount: 2
Fore
SplineSet
809 366 m 128,-1,1
 770 424 770 424 786 524 c 256,2,3
 802 624 802 624 859 682 c 128,-1,4
 916 740 916 740 1000 740 c 256,5,6
 1084 740 1084 740 1123.5 682.5 c 128,-1,7
 1163 625 1163 625 1147 524 c 256,8,9
 1131 423 1131 423 1073.5 365.5 c 128,-1,10
 1016 308 1016 308 932 308 c 256,11,0
 848 308 848 308 809 366 c 128,-1,1
233 730 m 1,12,-1
 578 21 l 1,13,-1
 580 21 l 1,14,-1
 692 730 l 1,15,-1
 712 730 l 1,16,-1
 596 0 l 1,17,-1
 565 0 l 1,18,-1
 220 709 l 1,19,-1
 218 709 l 1,20,-1
 106 0 l 1,21,-1
 86 0 l 1,22,-1
 202 730 l 1,23,-1
 233 730 l 1,12,-1
1061.5 379.5 m 128,-1,25
 1112 431 1112 431 1127 524 c 256,26,27
 1142 617 1142 617 1107.5 668.5 c 128,-1,28
 1073 720 1073 720 997 720 c 256,29,30
 922 720 922 720 871 668.5 c 128,-1,31
 820 617 820 617 805 524 c 256,32,33
 790 431 790 431 825 379.5 c 128,-1,34
 860 328 860 328 935 328 c 256,35,24
 1011 328 1011 328 1061.5 379.5 c 128,-1,25
749 230 m 1,36,-1
 1090 230 l 1,37,-1
 1087 210 l 1,38,-1
 746 210 l 1,39,-1
 749 230 l 1,36,-1
EndSplineSet
Ligature2: "'ordn' Ordinals in Latin lookup 9 subtable" N o period
EndChar

StartChar: uni0308
Encoding: 776 776 531
Width: 20
GlyphClass: 4
Flags: W
AnchorPoint: "Anchor-10" -228 695 basemark 0
AnchorPoint: "Anchor-10" -228 520 mark 0
AnchorPoint: "Anchor-6" -228 520 mark 0
AnchorPoint: "Anchor-1" -228 520 mark 0
LayerCount: 2
Fore
SplineSet
-238 695 m 5,0,-1
 -180 695 l 5,1,-1
 -189 635 l 5,2,-1
 -248 635 l 5,3,-1
 -238 695 l 5,0,-1
-3 695 m 5,4,-1
 56 695 l 5,5,-1
 46 635 l 5,6,-1
 -13 635 l 5,7,-1
 -3 695 l 5,4,-1
EndSplineSet
EndChar

StartChar: uni0307
Encoding: 775 775 532
Width: 4
GlyphClass: 4
Flags: W
AnchorPoint: "Anchor-10" -58 695 basemark 0
AnchorPoint: "Anchor-10" -58 520 mark 0
AnchorPoint: "Anchor-6" -58 520 mark 0
AnchorPoint: "Anchor-1" -58 520 mark 0
LayerCount: 2
Fore
SplineSet
30 695 m 1,0,-1
 89 695 l 1,1,-1
 79 635 l 1,2,-1
 20 635 l 1,3,-1
 30 695 l 1,0,-1
EndSplineSet
EndChar

StartChar: gravecomb
Encoding: 768 768 533
Width: 10
GlyphClass: 4
Flags: W
AnchorPoint: "Anchor-10" -170 520 mark 0
AnchorPoint: "Anchor-6" -170 520 mark 0
AnchorPoint: "Anchor-1" -170 520 mark 0
LayerCount: 2
Fore
SplineSet
-103 770 m 5,0,-1
 -80 770 l 5,1,-1
 5 560 l 5,2,-1
 -17 560 l 5,3,-1
 -103 770 l 5,0,-1
EndSplineSet
EndChar

StartChar: acutecomb
Encoding: 769 769 534
Width: 10
GlyphClass: 4
Flags: W
AnchorPoint: "Anchor-10" -101 520 mark 0
AnchorPoint: "Anchor-6" -101 520 mark 0
AnchorPoint: "Anchor-1" -101 520 mark 0
LayerCount: 2
Fore
SplineSet
-46 560 m 1,0,-1
 -69 560 l 1,1,-1
 83 770 l 1,2,-1
 106 770 l 1,3,-1
 -46 560 l 1,0,-1
EndSplineSet
EndChar

StartChar: uni0302
Encoding: 770 770 536
Width: 24
GlyphClass: 4
Flags: W
AnchorPoint: "Anchor-10" -251 520 mark 0
AnchorPoint: "Anchor-6" -251 520 mark 0
AnchorPoint: "Anchor-1" -251 520 mark 0
LayerCount: 2
Fore
SplineSet
-114 770 m 5,0,-1
 -84 770 l 5,1,-1
 36 560 l 5,2,-1
 12 560 l 5,3,-1
 -100 755 l 5,4,-1
 -102 755 l 5,5,-1
 -276 560 l 5,6,-1
 -301 560 l 5,7,-1
 -114 770 l 5,0,-1
EndSplineSet
EndChar

StartChar: uni030C
Encoding: 780 780 537
Width: 24
GlyphClass: 4
Flags: W
AnchorPoint: "Anchor-10" -251 770 basemark 0
AnchorPoint: "Anchor-10" -251 520 mark 0
AnchorPoint: "Anchor-6" -251 520 mark 0
AnchorPoint: "Anchor-1" -251 520 mark 0
LayerCount: 2
Fore
SplineSet
-267 770 m 5,0,-1
 -243 770 l 5,1,-1
 -131 575 l 5,2,-1
 -129 575 l 5,3,-1
 45 770 l 5,4,-1
 70 770 l 5,5,-1
 -117 560 l 5,6,-1
 -147 560 l 5,7,-1
 -267 770 l 5,0,-1
EndSplineSet
EndChar

StartChar: uni0306
Encoding: 774 774 538
Width: 22
GlyphClass: 4
Flags: W
AnchorPoint: "Anchor-10" -226 520 mark 0
AnchorPoint: "Anchor-6" -226 520 mark 0
AnchorPoint: "Anchor-1" -226 520 mark 0
LayerCount: 2
Fore
SplineSet
-204 628 m 132,-1,1
 -241 661 -241 661 -242 715 c 5,2,-1
 -222 715 l 5,3,4
 -220 670 -220 670 -187.5 642.5 c 132,-1,5
 -155 615 -155 615 -102 615 c 260,6,7
 -49 615 -49 615 -7.5 642.5 c 132,-1,8
 34 670 34 670 50 715 c 5,9,-1
 70 715 l 5,10,11
 53 661 53 661 5 628 c 132,-1,12
 -43 595 -43 595 -105 595 c 260,13,0
 -167 595 -167 595 -204 628 c 132,-1,1
EndSplineSet
EndChar

StartChar: uni030A
Encoding: 778 778 539
Width: 17
GlyphClass: 4
Flags: W
AnchorPoint: "Anchor-10" -197 710 basemark 0
AnchorPoint: "Anchor-10" -197 520 mark 0
AnchorPoint: "Anchor-6" -197 520 mark 0
AnchorPoint: "Anchor-1" -197 520 mark 0
LayerCount: 2
Fore
SplineSet
-173 561.5 m 132,-1,1
 -203 598 -203 598 -195 650 c 260,2,3
 -187 702 -187 702 -145 738.5 c 132,-1,4
 -103 775 -103 775 -52 775 c 260,5,6
 -1 775 -1 775 29 738.5 c 132,-1,7
 59 702 59 702 50 650 c 260,8,9
 42 598 42 598 0.5 561.5 c 132,-1,10
 -41 525 -41 525 -92 525 c 260,11,0
 -143 525 -143 525 -173 561.5 c 132,-1,1
-11.5 576 m 132,-1,13
 24 607 24 607 31 650 c 4,14,15
 38 694 38 694 12.5 724.5 c 132,-1,16
 -13 755 -13 755 -55 755 c 4,17,18
 -98 755 -98 755 -133 724.5 c 132,-1,19
 -168 694 -168 694 -175 650 c 4,20,21
 -182 607 -182 607 -157 576 c 132,-1,22
 -132 545 -132 545 -89 545 c 4,23,12
 -47 545 -47 545 -11.5 576 c 132,-1,13
EndSplineSet
EndChar

StartChar: tildecomb
Encoding: 771 771 540
Width: 22
GlyphClass: 4
Flags: W
AnchorPoint: "Anchor-10" -237 725 basemark 0
AnchorPoint: "Anchor-10" -237 520 mark 0
AnchorPoint: "Anchor-6" -237 520 mark 0
AnchorPoint: "Anchor-1" -237 520 mark 0
LayerCount: 2
Fore
SplineSet
-111 657 m 4,1,2
 -166 705 -166 705 -196 705 c 4,3,4
 -233 705 -233 705 -248 615 c 5,5,-1
 -267 615 l 5,6,7
 -258 670 -258 670 -240.5 697.5 c 132,-1,8
 -223 725 -223 725 -193 725 c 4,9,10
 -156 725 -156 725 -97 673 c 4,11,12
 -41 625 -41 625 -11 625 c 4,13,14
 26 625 26 625 40 715 c 5,15,-1
 60 715 l 5,16,17
 43 605 43 605 -14 605 c 4,18,0
 -50 605 -50 605 -111 657 c 4,1,2
EndSplineSet
EndChar

StartChar: uni0304
Encoding: 772 772 541
Width: 23
GlyphClass: 4
Flags: W
AnchorPoint: "Anchor-10" -255 675 basemark 0
AnchorPoint: "Anchor-10" -255 520 mark 0
AnchorPoint: "Anchor-6" -255 520 mark 0
AnchorPoint: "Anchor-1" -255 520 mark 0
LayerCount: 2
Fore
SplineSet
-283 675 m 5,0,-1
 45 675 l 5,1,-1
 42 655 l 5,2,-1
 -286 655 l 5,3,-1
 -283 675 l 5,0,-1
EndSplineSet
EndChar

StartChar: uni0305
Encoding: 773 773 542
Width: 39
GlyphClass: 4
Flags: W
LayerCount: 2
Fore
SplineSet
-380 820 m 1,0,-1
 169 820 l 1,1,-1
 166 800 l 1,2,-1
 -383 800 l 1,3,-1
 -380 820 l 1,0,-1
EndSplineSet
EndChar

StartChar: hookabovecomb
Encoding: 777 777 543
Width: 17
GlyphClass: 4
Flags: W
AnchorPoint: "Anchor-10" -152 765 basemark 0
AnchorPoint: "Anchor-10" -152 520 mark 0
AnchorPoint: "Anchor-6" -152 520 mark 0
AnchorPoint: "Anchor-1" -152 520 mark 0
LayerCount: 2
Fore
SplineSet
69.5 646.5 m 128,-1,1
 79 673 79 673 82 693 c 0,2,3
 87 723 87 723 67.5 734 c 128,-1,4
 48 745 48 745 -12 745 c 0,5,6
 -71 745 -71 745 -131 730 c 1,7,-1
 -133 749 l 1,8,9
 -69 765 -69 765 -8 765 c 0,10,11
 60 765 60 765 84 749 c 128,-1,12
 108 733 108 733 102 693 c 0,13,14
 99 674 99 674 90.5 649 c 128,-1,15
 82 624 82 624 72 605 c 1,16,-1
 50 605 l 1,17,0
 60 620 60 620 69.5 646.5 c 128,-1,1
EndSplineSet
EndChar

StartChar: uni030F
Encoding: 783 783 544
Width: 22
GlyphClass: 4
Flags: W
AnchorPoint: "Anchor-10" -281 770 basemark 0
AnchorPoint: "Anchor-10" -281 520 mark 0
AnchorPoint: "Anchor-6" -281 520 mark 0
AnchorPoint: "Anchor-1" -281 520 mark 0
LayerCount: 2
Fore
SplineSet
-297 770 m 1,0,-1
 -274 770 l 1,1,-1
 -189 560 l 1,2,-1
 -211 560 l 1,3,-1
 -297 770 l 1,0,-1
-120 770 m 1,4,-1
 -98 770 l 1,5,-1
 -12 560 l 1,6,-1
 -35 560 l 1,7,-1
 -120 770 l 1,4,-1
EndSplineSet
EndChar

StartChar: uni0311
Encoding: 785 785 545
Width: 22
GlyphClass: 4
Flags: W
AnchorPoint: "Anchor-10" -226 735 basemark 0
AnchorPoint: "Anchor-10" -226 520 mark 0
AnchorPoint: "Anchor-6" -226 520 mark 0
AnchorPoint: "Anchor-1" -226 520 mark 0
LayerCount: 2
Fore
SplineSet
16.5 702 m 132,-1,1
 54 669 54 669 54 615 c 5,2,-1
 35 615 l 5,3,4
 33 660 33 660 0 687.5 c 132,-1,5
 -33 715 -33 715 -86 715 c 260,6,7
 -139 715 -139 715 -180.5 687.5 c 132,-1,8
 -222 660 -222 660 -238 615 c 5,9,-1
 -257 615 l 5,10,11
 -240 669 -240 669 -192 702 c 132,-1,12
 -144 735 -144 735 -83 735 c 260,13,0
 -21 735 -21 735 16.5 702 c 132,-1,1
EndSplineSet
EndChar

StartChar: uni0312
Encoding: 786 786 546
Width: 10
GlyphClass: 4
Flags: W
AnchorPoint: "Anchor-10" -120 770 basemark 0
AnchorPoint: "Anchor-10" -120 520 mark 0
AnchorPoint: "Anchor-6" -120 520 mark 0
AnchorPoint: "Anchor-1" -120 520 mark 0
LayerCount: 2
Fore
SplineSet
66 770 m 1,0,-1
 88 770 l 1,1,-1
 -63 560 l 1,2,-1
 -86 560 l 1,3,-1
 66 770 l 1,0,-1
EndSplineSet
EndChar

StartChar: uni031B
Encoding: 795 795 547
Width: 10
GlyphClass: 4
Flags: W
AnchorPoint: "Anchor-11" -75 770 basemark 0
AnchorPoint: "Anchor-11" -240 615 mark 0
AnchorPoint: "Anchor-7" -240 615 mark 0
AnchorPoint: "Anchor-3" -240 615 mark 0
LayerCount: 2
Fore
SplineSet
-127 594 m 1,1,-1
 -121 615 l 1,2,3
 -94 600 -94 600 -64 600 c 0,4,5
 0 600 0 600 12 678 c 0,6,7
 16 701 16 701 15 726.5 c 128,-1,8
 14 752 14 752 10 770 c 1,9,-1
 30 770 l 1,10,11
 38 722 38 722 31 678 c 0,12,13
 24 631 24 631 -1.5 605.5 c 128,-1,14
 -27 580 -27 580 -68 580 c 0,15,0
 -99 580 -99 580 -127 594 c 1,1,-1
EndSplineSet
EndChar

StartChar: uni0326
Encoding: 806 806 550
Width: 10
GlyphClass: 4
Flags: W
AnchorPoint: "Anchor-10" -171 -290 mark 0
AnchorPoint: "Anchor-9" -171 -210 basemark 0
AnchorPoint: "Anchor-6" -171 -290 mark 0
AnchorPoint: "Anchor-1" -171 -290 mark 0
LayerCount: 2
Fore
SplineSet
-244 -250 m 5,0,-1
 -267 -250 l 5,1,-1
 -115 -40 l 5,2,-1
 -93 -40 l 5,3,-1
 -244 -250 l 5,0,-1
EndSplineSet
EndChar

StartChar: uni0327
Encoding: 807 807 551
Width: 16
GlyphClass: 4
Flags: W
AnchorPoint: "Anchor-8" -199 0 mark 0
LayerCount: 2
Fore
SplineSet
-292 -199 m 1,1,-1
 -281 -181 l 1,2,3
 -244 -200 -244 -200 -193 -200 c 0,4,5
 -149 -200 -149 -200 -116 -186 c 128,-1,6
 -83 -172 -83 -172 -77 -135 c 0,7,8
 -72 -101 -72 -101 -97 -66.5 c 128,-1,9
 -122 -32 -122 -32 -175 0 c 1,10,-1
 -154 11 l 1,11,12
 -102 -21 -102 -21 -76.5 -58.5 c 128,-1,13
 -51 -96 -51 -96 -57 -135 c 0,14,15
 -62 -168 -62 -168 -93 -194 c 128,-1,16
 -124 -220 -124 -220 -196 -220 c 0,17,0
 -251 -220 -251 -220 -292 -199 c 1,1,-1
EndSplineSet
EndChar

StartChar: uni0328
Encoding: 808 808 552
Width: 16
GlyphClass: 4
Flags: W
AnchorPoint: "Anchor-5" -144 0 mark 0
AnchorPoint: "Anchor-2" -144 0 mark 0
LayerCount: 2
Fore
SplineSet
-264.5 -194 m 128,-1,1
 -287 -168 -287 -168 -282 -135 c 0,2,3
 -276 -96 -276 -96 -238.5 -58.5 c 128,-1,4
 -201 -21 -201 -21 -139 11 c 1,5,-1
 -121 0 l 1,6,7
 -184 -32 -184 -32 -220.5 -66.5 c 128,-1,8
 -257 -101 -257 -101 -262 -135 c 0,9,10
 -268 -172 -268 -172 -239.5 -186 c 128,-1,11
 -211 -200 -211 -200 -166 -200 c 0,12,13
 -115 -200 -115 -200 -72 -181 c 1,14,-1
 -67 -199 l 1,15,16
 -114 -220 -114 -220 -170 -220 c 0,17,0
 -242 -220 -242 -220 -264.5 -194 c 128,-1,1
EndSplineSet
EndChar

StartChar: uni0370
Encoding: 880 880 568
Width: 540
Flags: W
LayerCount: 2
Fore
SplineSet
559 410 m 1,0,-1
 556 390 l 1,1,-1
 164 390 l 1,2,-1
 102 0 l 1,3,-1
 83 0 l 1,4,-1
 198 730 l 1,5,-1
 218 730 l 1,6,-1
 167 410 l 1,7,-1
 559 410 l 1,0,-1
EndSplineSet
EndChar

StartChar: uni0371
Encoding: 881 881 569
Width: 404
Flags: W
LayerCount: 2
Fore
SplineSet
405 295 m 1,0,-1
 402 275 l 1,1,-1
 136 275 l 1,2,-1
 93 0 l 1,3,-1
 74 0 l 1,4,-1
 156 520 l 1,5,-1
 175 520 l 1,6,-1
 139 295 l 1,7,-1
 405 295 l 1,0,-1
EndSplineSet
EndChar

StartChar: uni0372
Encoding: 882 882 570
Width: 678
Flags: W
CounterMasks: 1 38
LayerCount: 2
Fore
SplineSet
442 710 m 1,0,-1
 197 710 l 1,1,-1
 146 390 l 1,2,-1
 126 390 l 1,3,-1
 180 730 l 1,4,-1
 729 730 l 1,5,-1
 675 390 l 1,6,-1
 656 390 l 1,7,-1
 706 710 l 1,8,-1
 461 710 l 1,9,-1
 349 0 l 1,10,-1
 329 0 l 1,11,-1
 442 710 l 1,0,-1
EndSplineSet
EndChar

StartChar: uni0373
Encoding: 883 883 571
Width: 537
Flags: W
LayerCount: 2
Fore
SplineSet
372 710 m 1,0,-1
 191 710 l 1,1,-1
 156 490 l 1,2,-1
 138 490 l 1,3,-1
 176 730 l 1,4,-1
 593 730 l 1,5,-1
 555 490 l 1,6,-1
 536 490 l 1,7,-1
 571 710 l 1,8,-1
 391 710 l 1,9,-1
 278 0 l 1,10,-1
 259 0 l 1,11,-1
 372 710 l 1,0,-1
EndSplineSet
EndChar

StartChar: uni0374
Encoding: 884 884 572
Width: 214
Flags: W
LayerCount: 2
Fore
SplineSet
177 550 m 1,0,-1
 156 550 l 1,1,-1
 270 770 l 1,2,-1
 290 770 l 1,3,-1
 177 550 l 1,0,-1
EndSplineSet
EndChar

StartChar: uni0375
Encoding: 885 885 573
Width: 215
Flags: W
LayerCount: 2
Fore
SplineSet
51 -110 m 1,0,-1
 29 -110 l 1,1,-1
 142 110 l 1,2,-1
 164 110 l 1,3,-1
 51 -110 l 1,0,-1
EndSplineSet
EndChar

StartChar: uni0376
Encoding: 886 886 574
Width: 665
Flags: W
LayerCount: 2
Fore
SplineSet
106 21 m 1,0,-1
 108 21 l 1,1,-1
 667 730 l 1,2,-1
 698 730 l 1,3,-1
 583 0 l 1,4,-1
 563 0 l 1,5,-1
 675 709 l 1,6,-1
 673 709 l 1,7,-1
 114 0 l 1,8,-1
 83 0 l 1,9,-1
 198 730 l 1,10,-1
 218 730 l 1,11,-1
 106 21 l 1,0,-1
EndSplineSet
EndChar

StartChar: uni0377
Encoding: 887 887 575
Width: 553
Flags: W
LayerCount: 2
Fore
SplineSet
96 23 m 1,0,-1
 97 23 l 1,1,-1
 535 520 l 1,2,-1
 562 520 l 1,3,-1
 480 0 l 1,4,-1
 461 0 l 1,5,-1
 540 497 l 1,6,-1
 539 497 l 1,7,-1
 101 0 l 1,8,-1
 74 0 l 1,9,-1
 156 520 l 1,10,-1
 175 520 l 1,11,-1
 96 23 l 1,0,-1
EndSplineSet
EndChar

StartChar: uni037A
Encoding: 890 890 576
Width: 305
Flags: W
LayerCount: 2
Fore
SplineSet
64 -120 m 2,0,-1
 73 -60 l 1,1,-1
 93 -60 l 1,2,-1
 83 -120 l 2,3,4
 71 -197 71 -197 80.5 -213.5 c 128,-1,5
 90 -230 90 -230 144 -230 c 0,6,7
 182 -230 182 -230 218 -216 c 1,8,-1
 222 -235 l 1,9,10
 184 -250 184 -250 141 -250 c 0,11,12
 76 -250 76 -250 63.5 -226.5 c 128,-1,13
 51 -203 51 -203 64 -120 c 2,0,-1
EndSplineSet
EndChar

StartChar: uni037B
Encoding: 891 891 577
Width: 476
Flags: W
LayerCount: 2
Fore
SplineSet
80 43 m 1,0,1
 135 10 135 10 199 10 c 0,2,3
 297 10 297 10 368 78.5 c 128,-1,4
 439 147 439 147 457 260 c 0,5,6
 476 378 476 378 428.5 444 c 128,-1,7
 381 510 381 510 278 510 c 0,8,9
 213 510 213 510 149 477 c 1,10,-1
 143 495 l 1,11,12
 211 530 211 530 281 530 c 0,13,14
 391 530 391 530 443.5 457.5 c 128,-1,15
 496 385 496 385 476 260 c 0,16,17
 457 139 457 139 379.5 64.5 c 128,-1,18
 302 -10 302 -10 196 -10 c 0,19,20
 126 -10 126 -10 69 25 c 1,21,-1
 80 43 l 1,0,1
EndSplineSet
EndChar

StartChar: uni037C
Encoding: 892 892 578
Width: 476
Flags: W
LayerCount: 2
Fore
SplineSet
320 200 m 1,0,-1
 339 320 l 1,1,-1
 358 320 l 1,2,-1
 339 200 l 1,3,-1
 320 200 l 1,0,-1
410 43 m 1,4,-1
 416 25 l 1,5,6
 348 -10 348 -10 278 -10 c 0,7,8
 172 -10 172 -10 118 64.5 c 128,-1,9
 64 139 64 139 83 260 c 0,10,11
 103 385 103 385 178 457.5 c 128,-1,12
 253 530 253 530 363 530 c 0,13,14
 433 530 433 530 490 495 c 1,15,-1
 479 477 l 1,16,17
 424 510 424 510 360 510 c 0,18,19
 257 510 257 510 189 444 c 128,-1,20
 121 378 121 378 102 260 c 0,21,22
 84 147 84 147 133 78.5 c 128,-1,23
 182 10 182 10 281 10 c 0,24,25
 345 10 345 10 410 43 c 1,4,-1
EndSplineSet
EndChar

StartChar: uni037D
Encoding: 893 893 579
Width: 476
Flags: W
LayerCount: 2
Fore
SplineSet
201 200 m 1,0,-1
 220 320 l 1,1,-1
 239 320 l 1,2,-1
 220 200 l 1,3,-1
 201 200 l 1,0,-1
80 43 m 1,4,5
 135 10 135 10 199 10 c 0,6,7
 297 10 297 10 368 78.5 c 128,-1,8
 439 147 439 147 457 260 c 0,9,10
 476 378 476 378 428.5 444 c 128,-1,11
 381 510 381 510 278 510 c 0,12,13
 213 510 213 510 149 477 c 1,14,-1
 143 495 l 1,15,16
 211 530 211 530 281 530 c 0,17,18
 391 530 391 530 443.5 457.5 c 128,-1,19
 496 385 496 385 476 260 c 0,20,21
 457 139 457 139 379.5 64.5 c 128,-1,22
 302 -10 302 -10 196 -10 c 0,23,24
 126 -10 126 -10 69 25 c 1,25,-1
 80 43 l 1,4,5
EndSplineSet
EndChar

StartChar: uni037E
Encoding: 894 894 580
Width: 301
Flags: W
LayerCount: 2
Fore
SplineSet
174 110 m 1,0,-1
 196 110 l 1,1,-1
 82 -110 l 1,2,-1
 61 -110 l 1,3,-1
 174 110 l 1,0,-1
202 380 m 1,4,-1
 221 500 l 1,5,-1
 241 500 l 1,6,-1
 222 380 l 1,7,-1
 202 380 l 1,4,-1
EndSplineSet
EndChar

StartChar: tonos
Encoding: 900 900 581
Width: 257
Flags: W
LayerCount: 2
Fore
SplineSet
187 590 m 1,0,-1
 163 590 l 1,1,-1
 306 750 l 1,2,-1
 330 750 l 1,3,-1
 187 590 l 1,0,-1
EndSplineSet
EndChar

StartChar: dieresistonos
Encoding: 901 901 582
Width: 377
Flags: W
LayerCount: 2
Fore
SplineSet
306 790 m 1,0,-1
 282 790 l 1,1,-1
 425 950 l 1,2,-1
 449 950 l 1,3,-1
 306 790 l 1,0,-1
371 610 m 1,4,-1
 390 730 l 1,5,-1
 409 730 l 1,6,-1
 390 610 l 1,7,-1
 371 610 l 1,4,-1
175 610 m 1,8,-1
 194 730 l 1,9,-1
 213 730 l 1,10,-1
 194 610 l 1,11,-1
 175 610 l 1,8,-1
EndSplineSet
EndChar

StartChar: Alphatonos
Encoding: 902 902 583
Width: 643
Flags: W
LayerCount: 2
Fore
SplineSet
431 713 m 1,0,-1
 429 713 l 1,1,-1
 193 270 l 1,2,-1
 527 270 l 1,3,-1
 431 713 l 1,0,-1
168 590 m 1,4,-1
 143 590 l 1,5,-1
 286 750 l 1,6,-1
 311 750 l 1,7,-1
 168 590 l 1,4,-1
531 250 m 1,8,-1
 182 250 l 1,9,-1
 49 0 l 1,10,-1
 28 0 l 1,11,-1
 418 730 l 1,12,-1
 448 730 l 1,13,-1
 606 0 l 1,14,-1
 586 0 l 1,15,-1
 531 250 l 1,8,-1
EndSplineSet
EndChar

StartChar: anoteleia
Encoding: 903 903 584
Width: 203
Flags: W
LayerCount: 2
Fore
SplineSet
128 230 m 1,0,-1
 147 350 l 1,1,-1
 167 350 l 1,2,-1
 148 230 l 1,3,-1
 128 230 l 1,0,-1
EndSplineSet
EndChar

StartChar: Epsilontonos
Encoding: 904 904 585
Width: 687
Flags: W
LayerCount: 2
Fore
SplineSet
304 390 m 1,0,-1
 245 20 l 1,1,-1
 617 20 l 1,2,-1
 614 0 l 1,3,-1
 222 0 l 1,4,-1
 338 730 l 1,5,-1
 730 730 l 1,6,-1
 727 710 l 1,7,-1
 354 710 l 1,8,-1
 307 410 l 1,9,-1
 660 410 l 1,10,-1
 656 390 l 1,11,-1
 304 390 l 1,0,-1
146 590 m 1,12,-1
 122 590 l 1,13,-1
 265 750 l 1,14,-1
 289 750 l 1,15,-1
 146 590 l 1,12,-1
EndSplineSet
EndChar

StartChar: Etatonos
Encoding: 905 905 586
Width: 795
Flags: W
LayerCount: 2
Fore
SplineSet
808 730 m 1,0,-1
 828 730 l 1,1,-1
 712 0 l 1,2,-1
 693 0 l 1,3,-1
 754 390 l 1,4,-1
 304 390 l 1,5,-1
 242 0 l 1,6,-1
 222 0 l 1,7,-1
 338 730 l 1,8,-1
 357 730 l 1,9,-1
 307 410 l 1,10,-1
 758 410 l 1,11,-1
 808 730 l 1,0,-1
146 590 m 1,12,-1
 122 590 l 1,13,-1
 265 750 l 1,14,-1
 289 750 l 1,15,-1
 146 590 l 1,12,-1
EndSplineSet
EndChar

StartChar: Iotatonos
Encoding: 906 906 587
Width: 388
Flags: W
LayerCount: 2
Fore
SplineSet
250 0 m 1,0,-1
 365 730 l 1,1,-1
 385 730 l 1,2,-1
 269 0 l 1,3,-1
 250 0 l 1,0,-1
173 590 m 1,4,-1
 149 590 l 1,5,-1
 292 750 l 1,6,-1
 316 750 l 1,7,-1
 173 590 l 1,4,-1
EndSplineSet
EndChar

StartChar: Omicrontonos
Encoding: 908 908 588
Width: 866
Flags: W
LayerCount: 2
Fore
SplineSet
196.5 365 m 128,-1,1
 223 533 223 533 334 636.5 c 128,-1,2
 445 740 445 740 599 740 c 128,-1,3
 753 740 753 740 831 636.5 c 128,-1,4
 909 533 909 533 882.5 365 c 128,-1,5
 856 197 856 197 745 93.5 c 128,-1,6
 634 -10 634 -10 480.5 -10 c 128,-1,7
 327 -10 327 -10 248.5 93.5 c 128,-1,0
 170 197 170 197 196.5 365 c 128,-1,1
146 590 m 1,8,-1
 122 590 l 1,9,-1
 265 750 l 1,10,-1
 289 750 l 1,11,-1
 146 590 l 1,8,-1
483.5 10 m 128,-1,13
 629 10 629 10 733.5 108 c 128,-1,14
 838 206 838 206 863 365 c 128,-1,15
 888 524 888 524 814.5 622 c 128,-1,16
 741 720 741 720 596 720 c 128,-1,17
 451 720 451 720 346.5 622 c 128,-1,18
 242 524 242 524 216.5 365 c 128,-1,19
 191 206 191 206 264.5 108 c 128,-1,12
 338 10 338 10 483.5 10 c 128,-1,13
EndSplineSet
EndChar

StartChar: Upsilontonos
Encoding: 910 910 589
Width: 803
Flags: W
LayerCount: 2
Fore
SplineSet
546 348 m 1,0,-1
 548 348 l 1,1,-1
 863 730 l 1,2,-1
 887 730 l 1,3,-1
 553 327 l 1,4,-1
 502 0 l 1,5,-1
 482 0 l 1,6,-1
 534 327 l 1,7,-1
 328 730 l 1,8,-1
 352 730 l 1,9,-1
 546 348 l 1,0,-1
146 590 m 1,10,-1
 122 590 l 1,11,-1
 265 750 l 1,12,-1
 289 750 l 1,13,-1
 146 590 l 1,10,-1
EndSplineSet
EndChar

StartChar: Omegatonos
Encoding: 911 911 590
Width: 895
Flags: W
LayerCount: 2
Fore
SplineSet
599 740 m 128,-1,1
 751 740 751 740 830.5 638 c 128,-1,2
 910 536 910 536 884 375 c 0,3,4
 864 251 864 251 792 157.5 c 128,-1,5
 720 64 720 64 615 22 c 1,6,-1
 614 20 l 1,7,-1
 843 20 l 1,8,-1
 840 0 l 1,9,-1
 546 0 l 1,10,-1
 549 20 l 1,11,12
 672 45 672 45 757.5 142 c 128,-1,13
 843 239 843 239 865 375 c 0,14,15
 889 527 889 527 814 623.5 c 128,-1,16
 739 720 739 720 596 720 c 128,-1,17
 453 720 453 720 347.5 623.5 c 128,-1,18
 242 527 242 527 218 375 c 0,19,20
 196 239 196 239 251.5 142 c 128,-1,21
 307 45 307 45 421 20 c 1,22,-1
 418 0 l 1,23,-1
 124 0 l 1,24,-1
 127 20 l 1,25,-1
 356 20 l 1,26,-1
 356 22 l 1,27,28
 264 64 264 64 221.5 157.5 c 128,-1,29
 179 251 179 251 198 375 c 0,30,31
 224 536 224 536 335.5 638 c 128,-1,0
 447 740 447 740 599 740 c 128,-1,1
146 590 m 1,32,-1
 122 590 l 1,33,-1
 265 750 l 1,34,-1
 289 750 l 1,35,-1
 146 590 l 1,32,-1
EndSplineSet
EndChar

StartChar: iotadieresistonos
Encoding: 912 912 591
Width: 419
Flags: W
CounterMasks: 1 1c
LayerCount: 2
Fore
SplineSet
261 520 m 1,0,-1
 200 140 l 2,1,2
 187 60 187 60 206.5 35 c 128,-1,3
 226 10 226 10 289 10 c 0,4,5
 330 10 330 10 370 24 c 1,6,-1
 374 5 l 1,7,8
 332 -10 332 -10 286 -10 c 0,9,10
 213 -10 213 -10 190.5 22 c 128,-1,11
 168 54 168 54 182 140 c 2,12,-1
 242 520 l 1,13,-1
 261 520 l 1,0,-1
351 610 m 1,14,-1
 370 730 l 1,15,-1
 389 730 l 1,16,-1
 370 610 l 1,17,-1
 351 610 l 1,14,-1
161 610 m 1,18,-1
 180 730 l 1,19,-1
 199 730 l 1,20,-1
 180 610 l 1,21,-1
 161 610 l 1,18,-1
308 790 m 1,22,-1
 285 790 l 1,23,-1
 423 950 l 1,24,-1
 447 950 l 1,25,-1
 308 790 l 1,22,-1
EndSplineSet
EndChar

StartChar: Alpha
Encoding: 913 913 592
Width: 652
Flags: W
LayerCount: 2
Fore
SplineSet
440 713 m 1,0,-1
 438 713 l 1,1,-1
 203 270 l 1,2,-1
 536 270 l 1,3,-1
 440 713 l 1,0,-1
540 250 m 1,4,-1
 192 250 l 1,5,-1
 58 0 l 1,6,-1
 37 0 l 1,7,-1
 427 730 l 1,8,-1
 457 730 l 1,9,-1
 616 0 l 1,10,-1
 595 0 l 1,11,-1
 540 250 l 1,4,-1
EndSplineSet
EndChar

StartChar: Gamma
Encoding: 915 915 594
Width: 520
Flags: W
LayerCount: 2
Fore
SplineSet
215 710 m 1,0,-1
 102 0 l 1,1,-1
 83 0 l 1,2,-1
 198 730 l 1,3,-1
 581 730 l 1,4,-1
 577 710 l 1,5,-1
 215 710 l 1,0,-1
EndSplineSet
EndChar

StartChar: uni0394
Encoding: 916 916 595
Width: 652
Flags: W
LayerCount: 2
Fore
SplineSet
440 713 m 1,0,-1
 438 713 l 1,1,-1
 69 20 l 1,2,-1
 590 20 l 1,3,-1
 440 713 l 1,0,-1
595 0 m 1,4,-1
 58 0 l 1,5,-1
 52 0 l 1,6,-1
 37 0 l 1,7,-1
 427 730 l 1,8,-1
 457 730 l 1,9,-1
 616 0 l 1,10,-1
 601 0 l 1,11,-1
 595 0 l 1,4,-1
EndSplineSet
EndChar

StartChar: Epsilon
Encoding: 917 917 596
Width: 548
Flags: W
LayerCount: 2
Fore
SplineSet
164 390 m 1,0,-1
 106 20 l 1,1,-1
 478 20 l 1,2,-1
 475 0 l 1,3,-1
 83 0 l 1,4,-1
 198 730 l 1,5,-1
 590 730 l 1,6,-1
 587 710 l 1,7,-1
 215 710 l 1,8,-1
 167 410 l 1,9,-1
 520 410 l 1,10,-1
 517 390 l 1,11,-1
 164 390 l 1,0,-1
EndSplineSet
EndChar

StartChar: Zeta
Encoding: 918 918 597
Width: 598
Flags: W
LayerCount: 2
Fore
SplineSet
612 708 m 1,0,-1
 612 710 l 1,1,-1
 186 710 l 1,2,-1
 189 730 l 1,3,-1
 640 730 l 1,4,-1
 637 710 l 1,5,-1
 102 22 l 1,6,-1
 101 20 l 1,7,-1
 528 20 l 1,8,-1
 525 0 l 1,9,-1
 74 0 l 1,10,-1
 77 20 l 1,11,-1
 612 708 l 1,0,-1
EndSplineSet
EndChar

StartChar: Eta
Encoding: 919 919 598
Width: 655
Flags: W
LayerCount: 2
Fore
SplineSet
669 730 m 1,0,-1
 688 730 l 1,1,-1
 573 0 l 1,2,-1
 553 0 l 1,3,-1
 615 390 l 1,4,-1
 164 390 l 1,5,-1
 102 0 l 1,6,-1
 83 0 l 1,7,-1
 198 730 l 1,8,-1
 218 730 l 1,9,-1
 167 410 l 1,10,-1
 618 410 l 1,11,-1
 669 730 l 1,0,-1
EndSplineSet
EndChar

StartChar: Theta
Encoding: 920 920 599
Width: 769
Flags: W
CounterMasks: 1 e0
LayerCount: 2
Fore
SplineSet
225 355 m 1,0,-1
 229 375 l 1,1,-1
 660 375 l 1,2,-1
 657 355 l 1,3,-1
 225 355 l 1,0,-1
99.5 365 m 128,-1,5
 126 533 126 533 237 636.5 c 128,-1,6
 348 740 348 740 502 740 c 128,-1,7
 656 740 656 740 734 636.5 c 128,-1,8
 812 533 812 533 785.5 365 c 128,-1,9
 759 197 759 197 648 93.5 c 128,-1,10
 537 -10 537 -10 383 -10 c 128,-1,11
 229 -10 229 -10 151 93.5 c 128,-1,4
 73 197 73 197 99.5 365 c 128,-1,5
386 10 m 128,-1,13
 531 10 531 10 636 108 c 128,-1,14
 741 206 741 206 766 365 c 128,-1,15
 791 524 791 524 717.5 622 c 128,-1,16
 644 720 644 720 499 720 c 128,-1,17
 354 720 354 720 249 622 c 128,-1,18
 144 524 144 524 119 365 c 128,-1,19
 94 206 94 206 167.5 108 c 128,-1,12
 241 10 241 10 386 10 c 128,-1,13
EndSplineSet
EndChar

StartChar: Iota
Encoding: 921 921 600
Width: 258
Flags: W
LayerCount: 2
Fore
SplineSet
119 0 m 1,0,-1
 235 730 l 1,1,-1
 254 730 l 1,2,-1
 139 0 l 1,3,-1
 119 0 l 1,0,-1
EndSplineSet
EndChar

StartChar: Kappa
Encoding: 922 922 601
Width: 570
Flags: W
LayerCount: 2
Fore
SplineSet
162 367 m 1,0,-1
 161 367 l 1,1,-1
 102 0 l 1,2,-1
 83 0 l 1,3,-1
 198 730 l 1,4,-1
 218 730 l 1,5,-1
 165 394 l 1,6,-1
 167 394 l 1,7,-1
 609 730 l 1,8,-1
 639 730 l 1,9,-1
 177 380 l 1,10,-1
 534 0 l 1,11,-1
 504 0 l 1,12,-1
 162 367 l 1,0,-1
EndSplineSet
EndChar

StartChar: Lambda
Encoding: 923 923 602
Width: 652
Flags: W
LayerCount: 2
Fore
SplineSet
440 713 m 1,0,-1
 438 713 l 1,1,-1
 58 0 l 1,2,-1
 37 0 l 1,3,-1
 427 730 l 1,4,-1
 457 730 l 1,5,-1
 616 0 l 1,6,-1
 595 0 l 1,7,-1
 440 713 l 1,0,-1
EndSplineSet
EndChar

StartChar: Mu
Encoding: 924 924 603
Width: 812
Flags: W
LayerCount: 2
Fore
SplineSet
710 0 m 1,0,-1
 822 709 l 1,1,-1
 820 709 l 1,2,-1
 458 250 l 1,3,-1
 434 250 l 1,4,-1
 217 709 l 1,5,-1
 215 709 l 1,6,-1
 102 0 l 1,7,-1
 83 0 l 1,8,-1
 198 730 l 1,9,-1
 230 730 l 1,10,-1
 448 270 l 1,11,-1
 450 270 l 1,12,-1
 814 730 l 1,13,-1
 845 730 l 1,14,-1
 730 0 l 1,15,-1
 710 0 l 1,0,-1
EndSplineSet
EndChar

StartChar: Nu
Encoding: 925 925 604
Width: 665
Flags: W
LayerCount: 2
Fore
SplineSet
566 21 m 1,0,-1
 679 730 l 1,1,-1
 698 730 l 1,2,-1
 583 0 l 1,3,-1
 551 0 l 1,4,-1
 217 709 l 1,5,-1
 215 709 l 1,6,-1
 102 0 l 1,7,-1
 83 0 l 1,8,-1
 198 730 l 1,9,-1
 230 730 l 1,10,-1
 564 21 l 1,11,-1
 566 21 l 1,0,-1
EndSplineSet
EndChar

StartChar: Xi
Encoding: 926 926 605
Width: 568
Flags: W
LayerCount: 2
Fore
SplineSet
74 0 m 1,0,-1
 77 20 l 1,1,-1
 498 20 l 1,2,-1
 495 0 l 1,3,-1
 74 0 l 1,0,-1
155 390 m 1,4,-1
 158 410 l 1,5,-1
 540 410 l 1,6,-1
 537 390 l 1,7,-1
 155 390 l 1,4,-1
186 710 m 1,8,-1
 189 730 l 1,9,-1
 611 730 l 1,10,-1
 608 710 l 1,11,-1
 186 710 l 1,8,-1
EndSplineSet
EndChar

StartChar: Pi
Encoding: 928 928 607
Width: 655
Flags: W
LayerCount: 2
Fore
SplineSet
198 730 m 1,0,-1
 688 730 l 1,1,-1
 573 0 l 1,2,-1
 553 0 l 1,3,-1
 666 710 l 1,4,-1
 215 710 l 1,5,-1
 102 0 l 1,6,-1
 83 0 l 1,7,-1
 198 730 l 1,0,-1
EndSplineSet
EndChar

StartChar: Sigma
Encoding: 931 931 609
Width: 530
Flags: W
LayerCount: 2
Fore
SplineSet
206 710 m 1,0,-1
 389 386 l 1,1,-1
 96 20 l 1,2,-1
 464 20 l 1,3,-1
 461 0 l 1,4,-1
 69 0 l 1,5,-1
 72 20 l 1,6,-1
 365 385 l 1,7,-1
 182 710 l 1,8,-1
 185 730 l 1,9,-1
 577 730 l 1,10,-1
 574 710 l 1,11,-1
 206 710 l 1,0,-1
EndSplineSet
EndChar

StartChar: Tau
Encoding: 932 932 610
Width: 629
Flags: W
LayerCount: 2
Fore
SplineSet
685 730 m 1,0,-1
 682 710 l 1,1,-1
 437 710 l 1,2,-1
 325 0 l 1,3,-1
 305 0 l 1,4,-1
 418 710 l 1,5,-1
 173 710 l 1,6,-1
 176 730 l 1,7,-1
 685 730 l 1,0,-1
EndSplineSet
EndChar

StartChar: Upsilon
Encoding: 933 933 611
Width: 624
Flags: W
LayerCount: 2
Fore
SplineSet
366 348 m 1,0,-1
 368 348 l 1,1,-1
 683 730 l 1,2,-1
 707 730 l 1,3,-1
 374 327 l 1,4,-1
 322 0 l 1,5,-1
 302 0 l 1,6,-1
 354 327 l 1,7,-1
 148 730 l 1,8,-1
 172 730 l 1,9,-1
 366 348 l 1,0,-1
EndSplineSet
EndChar

StartChar: Phi
Encoding: 934 934 612
Width: 682
Flags: W
CounterMasks: 1 0e
LayerCount: 2
Fore
SplineSet
370 120 m 1,0,1
 496 123 496 123 581 190.5 c 128,-1,2
 666 258 666 258 684 370 c 128,-1,3
 702 482 702 482 638 549.5 c 128,-1,4
 574 617 574 617 449 620 c 1,5,-1
 370 120 l 1,0,1
452 640 m 1,6,7
 585 637 585 637 653.5 563 c 128,-1,8
 722 489 722 489 703.5 370 c 128,-1,9
 685 251 685 251 593 177 c 128,-1,10
 501 103 501 103 367 100 c 1,11,-1
 351 0 l 1,12,-1
 331 0 l 1,13,-1
 347 100 l 1,14,15
 214 103 214 103 145.5 177 c 128,-1,16
 77 251 77 251 96 370 c 128,-1,17
 115 489 115 489 207 563 c 128,-1,18
 299 637 299 637 433 640 c 1,19,-1
 447 730 l 1,20,-1
 467 730 l 1,21,-1
 452 640 l 1,6,7
430 620 m 1,22,23
 304 617 304 617 218.5 549.5 c 128,-1,24
 133 482 133 482 115.5 370 c 128,-1,25
 98 258 98 258 161.5 190.5 c 128,-1,26
 225 123 225 123 350 120 c 1,27,-1
 430 620 l 1,22,23
EndSplineSet
EndChar

StartChar: Chi
Encoding: 935 935 613
Width: 602
Flags: W
LayerCount: 2
Fore
SplineSet
358 351 m 1,0,-1
 356 351 l 1,1,-1
 70 0 l 1,2,-1
 46 0 l 1,3,-1
 348 369 l 1,4,-1
 167 730 l 1,5,-1
 190 730 l 1,6,-1
 362 387 l 1,7,-1
 363 387 l 1,8,-1
 643 730 l 1,9,-1
 667 730 l 1,10,-1
 371 369 l 1,11,-1
 556 0 l 1,12,-1
 532 0 l 1,13,-1
 358 351 l 1,0,-1
EndSplineSet
EndChar

StartChar: Psi
Encoding: 936 936 614
Width: 745
Flags: W
CounterMasks: 1 1c
LayerCount: 2
Fore
SplineSet
413 190 m 1,0,1
 544 192 544 192 626.5 260 c 128,-1,2
 709 328 709 328 728 450 c 2,3,-1
 773 730 l 1,4,-1
 792 730 l 1,5,-1
 748 450 l 2,6,7
 727 319 727 319 638.5 245.5 c 128,-1,8
 550 172 550 172 410 170 c 1,9,-1
 383 0 l 1,10,-1
 363 0 l 1,11,-1
 390 170 l 1,12,13
 250 172 250 172 185 245.5 c 128,-1,14
 120 319 120 319 140 450 c 2,15,-1
 185 730 l 1,16,-1
 204 730 l 1,17,-1
 160 450 l 2,18,19
 141 328 141 328 202 260 c 128,-1,20
 263 192 263 192 393 190 c 1,21,-1
 479 730 l 1,22,-1
 498 730 l 1,23,-1
 413 190 l 1,0,1
EndSplineSet
EndChar

StartChar: uni03A9
Encoding: 937 937 615
Width: 826
Flags: W
LayerCount: 2
Fore
SplineSet
530.5 740 m 128,-1,1
 682 740 682 740 761.5 638 c 128,-1,2
 841 536 841 536 816 375 c 0,3,4
 796 251 796 251 724 157.5 c 128,-1,5
 652 64 652 64 546 22 c 1,6,-1
 546 20 l 1,7,-1
 774 20 l 1,8,-1
 771 0 l 1,9,-1
 477 0 l 1,10,-1
 480 20 l 1,11,12
 603 45 603 45 688.5 142 c 128,-1,13
 774 239 774 239 796 375 c 0,14,15
 820 527 820 527 745 623.5 c 128,-1,16
 670 720 670 720 527 720 c 128,-1,17
 384 720 384 720 278.5 623.5 c 128,-1,18
 173 527 173 527 149 375 c 0,19,20
 127 239 127 239 182.5 142 c 128,-1,21
 238 45 238 45 353 20 c 1,22,-1
 350 0 l 1,23,-1
 56 0 l 1,24,-1
 59 20 l 1,25,-1
 287 20 l 1,26,-1
 287 22 l 1,27,28
 195 64 195 64 152.5 157.5 c 128,-1,29
 110 251 110 251 130 375 c 0,30,31
 156 536 156 536 267.5 638 c 128,-1,0
 379 740 379 740 530.5 740 c 128,-1,1
EndSplineSet
EndChar

StartChar: Iotadieresis
Encoding: 938 938 616
Width: 273
Flags: W
CounterMasks: 1 38
LayerCount: 2
Fore
SplineSet
353 810 m 1,0,-1
 372 930 l 1,1,-1
 392 930 l 1,2,-1
 373 810 l 1,3,-1
 353 810 l 1,0,-1
157 810 m 1,4,-1
 176 930 l 1,5,-1
 196 930 l 1,6,-1
 177 810 l 1,7,-1
 157 810 l 1,4,-1
127 0 m 1,8,-1
 243 730 l 1,9,-1
 262 730 l 1,10,-1
 147 0 l 1,11,-1
 127 0 l 1,8,-1
EndSplineSet
EndChar

StartChar: Upsilondieresis
Encoding: 939 939 617
Width: 624
Flags: W
CounterMasks: 1 38
LayerCount: 2
Fore
SplineSet
529 810 m 1,0,-1
 548 930 l 1,1,-1
 567 930 l 1,2,-1
 548 810 l 1,3,-1
 529 810 l 1,0,-1
333 810 m 1,4,-1
 352 930 l 1,5,-1
 371 930 l 1,6,-1
 352 810 l 1,7,-1
 333 810 l 1,4,-1
366 348 m 1,8,-1
 368 348 l 1,9,-1
 683 730 l 1,10,-1
 707 730 l 1,11,-1
 374 327 l 1,12,-1
 322 0 l 1,13,-1
 302 0 l 1,14,-1
 354 327 l 1,15,-1
 148 730 l 1,16,-1
 172 730 l 1,17,-1
 366 348 l 1,8,-1
EndSplineSet
EndChar

StartChar: alphatonos
Encoding: 940 940 618
Width: 571
Flags: W
LayerCount: 2
Fore
SplineSet
365 590 m 1,0,-1
 341 590 l 1,1,-1
 480 750 l 1,2,-1
 504 750 l 1,3,-1
 365 590 l 1,0,-1
453 246 m 1,4,5
 427 359 427 359 401 418 c 128,-1,6
 375 477 375 477 352 493.5 c 128,-1,7
 329 510 329 510 293 510 c 0,8,9
 226 510 226 510 175 442 c 128,-1,10
 124 374 124 374 106 260 c 128,-1,11
 88 146 88 146 117.5 78 c 128,-1,12
 147 10 147 10 214 10 c 0,13,14
 327 10 327 10 453 246 c 1,4,5
459 219 m 1,15,16
 333 -10 333 -10 211 -10 c 0,17,18
 138 -10 138 -10 103 62 c 128,-1,19
 68 134 68 134 88 260 c 128,-1,20
 108 386 108 386 165.5 458 c 128,-1,21
 223 530 223 530 297 530 c 0,22,23
 338 530 338 530 364 512.5 c 128,-1,24
 390 495 390 495 416 438.5 c 128,-1,25
 442 382 442 382 468 274 c 1,26,27
 518 372 518 372 574 520 c 1,28,-1
 594 520 l 1,29,30
 532 357 532 357 474 246 c 1,31,32
 491 173 491 173 521 0 c 1,33,-1
 501 0 l 1,34,35
 481 120 481 120 459 219 c 1,15,16
EndSplineSet
EndChar

StartChar: epsilontonos
Encoding: 941 941 619
Width: 476
Flags: W
LayerCount: 2
Fore
SplineSet
235 284 m 1,0,-1
 236 286 l 1,1,2
 169 301 169 301 141.5 333.5 c 128,-1,3
 114 366 114 366 120 405 c 0,4,5
 129 464 129 464 188.5 497 c 128,-1,6
 248 530 248 530 344 530 c 0,7,8
 432 530 432 530 503 494 c 1,9,-1
 493 476 l 1,10,11
 423 510 423 510 341 510 c 0,12,13
 254 510 254 510 200.5 482 c 128,-1,14
 147 454 147 454 139 405 c 0,15,16
 131 354 131 354 186 324.5 c 128,-1,17
 241 295 241 295 345 295 c 2,18,-1
 392 295 l 1,19,-1
 389 275 l 1,20,-1
 341 275 l 2,21,22
 227 275 227 275 162.5 240.5 c 128,-1,23
 98 206 98 206 87 140 c 0,24,25
 77 77 77 77 122 43.5 c 128,-1,26
 167 10 167 10 261 10 c 0,27,28
 345 10 345 10 429 44 c 1,29,-1
 434 26 l 1,30,31
 344 -10 344 -10 258 -10 c 0,32,33
 156 -10 156 -10 106.5 29.5 c 128,-1,34
 57 69 57 69 69 140 c 0,35,36
 73 168 73 168 86 193 c 128,-1,37
 99 218 99 218 137.5 245 c 128,-1,38
 176 272 176 272 235 284 c 1,0,-1
312 590 m 1,39,-1
 289 590 l 1,40,-1
 428 750 l 1,41,-1
 452 750 l 1,42,-1
 312 590 l 1,39,-1
EndSplineSet
EndChar

StartChar: etatonos
Encoding: 942 942 620
Width: 512
Flags: W
LayerCount: 2
Fore
SplineSet
155 392 m 1,0,-1
 156 392 l 1,1,2
 191 454 191 454 244.5 492 c 128,-1,3
 298 530 298 530 357 530 c 0,4,5
 447 530 447 530 479 478 c 128,-1,6
 511 426 511 426 493 310 c 2,7,-1
 409 -220 l 1,8,-1
 390 -220 l 1,9,-1
 474 310 l 2,10,11
 491 418 491 418 463 464 c 128,-1,12
 435 510 435 510 354 510 c 0,13,14
 279 510 279 510 216 445.5 c 128,-1,15
 153 381 153 381 138 290 c 2,16,-1
 93 0 l 1,17,-1
 74 0 l 1,18,-1
 156 520 l 1,19,-1
 175 520 l 1,20,-1
 155 392 l 1,0,-1
321 590 m 1,21,-1
 297 590 l 1,22,-1
 436 750 l 1,23,-1
 460 750 l 1,24,-1
 321 590 l 1,21,-1
EndSplineSet
EndChar

StartChar: iotatonos
Encoding: 943 943 621
Width: 401
Flags: W
LayerCount: 2
Fore
SplineSet
216 520 m 1,0,-1
 156 140 l 2,1,2
 143 60 143 60 162.5 35 c 128,-1,3
 182 10 182 10 244 10 c 0,4,5
 285 10 285 10 325 24 c 1,6,-1
 329 5 l 1,7,8
 287 -10 287 -10 241 -10 c 0,9,10
 168 -10 168 -10 145.5 22 c 128,-1,11
 123 54 123 54 137 140 c 2,12,-1
 197 520 l 1,13,-1
 216 520 l 1,0,-1
232 590 m 1,14,-1
 208 590 l 1,15,-1
 347 750 l 1,16,-1
 371 750 l 1,17,-1
 232 590 l 1,14,-1
EndSplineSet
EndChar

StartChar: upsilondieresistonos
Encoding: 944 944 622
Width: 513
Flags: W
LayerCount: 2
Fore
SplineSet
441 610 m 1,0,-1
 460 730 l 1,1,-1
 479 730 l 1,2,-1
 460 610 l 1,3,-1
 441 610 l 1,0,-1
251 610 m 1,4,-1
 270 730 l 1,5,-1
 289 730 l 1,6,-1
 270 610 l 1,7,-1
 251 610 l 1,4,-1
462 531 m 1,8,-1
 481 539 l 1,9,10
 520 392 520 392 501 270 c 0,11,12
 490 203 490 203 469.5 152.5 c 128,-1,13
 449 102 449 102 425.5 71.5 c 128,-1,14
 402 41 402 41 372 22 c 128,-1,15
 342 3 342 3 314.5 -3.5 c 128,-1,16
 287 -10 287 -10 257 -10 c 0,17,18
 160 -10 160 -10 121.5 39 c 128,-1,19
 83 88 83 88 99 190 c 2,20,-1
 152 520 l 1,21,-1
 170 520 l 1,22,-1
 118 190 l 2,23,24
 103 97 103 97 137.5 53.5 c 128,-1,25
 172 10 172 10 260 10 c 0,26,27
 440 10 440 10 482 270 c 0,28,29
 500 389 500 389 462 531 c 1,8,-1
357 790 m 1,30,-1
 334 790 l 1,31,-1
 473 950 l 1,32,-1
 497 950 l 1,33,-1
 357 790 l 1,30,-1
EndSplineSet
EndChar

StartChar: alpha
Encoding: 945 945 623
Width: 571
Flags: W
LayerCount: 2
Fore
SplineSet
453 246 m 1,0,1
 427 359 427 359 401 418 c 128,-1,2
 375 477 375 477 352 493.5 c 128,-1,3
 329 510 329 510 293 510 c 0,4,5
 226 510 226 510 175 442 c 128,-1,6
 124 374 124 374 106 260 c 128,-1,7
 88 146 88 146 117.5 78 c 128,-1,8
 147 10 147 10 214 10 c 0,9,10
 327 10 327 10 453 246 c 1,0,1
459 219 m 1,11,12
 333 -10 333 -10 211 -10 c 0,13,14
 138 -10 138 -10 103 62 c 128,-1,15
 68 134 68 134 88 260 c 128,-1,16
 108 386 108 386 165.5 458 c 128,-1,17
 223 530 223 530 297 530 c 0,18,19
 338 530 338 530 364 512.5 c 128,-1,20
 390 495 390 495 416 438.5 c 128,-1,21
 442 382 442 382 468 274 c 1,22,23
 518 372 518 372 574 520 c 1,24,-1
 594 520 l 1,25,26
 532 357 532 357 474 246 c 1,27,28
 491 173 491 173 521 0 c 1,29,-1
 501 0 l 1,30,31
 481 120 481 120 459 219 c 1,11,12
EndSplineSet
EndChar

StartChar: beta
Encoding: 946 946 624
Width: 537
Flags: W
AnchorPoint: "Anchor-0" 291 -220 basechar 0
LayerCount: 2
Fore
SplineSet
382 720 m 0,0,1
 295 720 295 720 246 675 c 128,-1,2
 197 630 197 630 182 535 c 2,3,-1
 102 33 l 1,4,5
 179 10 179 10 241 10 c 0,6,7
 276 10 276 10 308 15 c 128,-1,8
 340 20 340 20 374.5 33.5 c 128,-1,9
 409 47 409 47 435.5 68.5 c 128,-1,10
 462 90 462 90 482.5 126 c 128,-1,11
 503 162 503 162 510 210 c 0,12,13
 539 390 539 390 273 390 c 2,14,-1
 216 390 l 1,15,-1
 219 410 l 1,16,-1
 276 410 l 2,17,18
 385 410 385 410 451 452 c 128,-1,19
 517 494 517 494 529 570 c 0,20,21
 540 638 540 638 499.5 679 c 128,-1,22
 459 720 459 720 382 720 c 0,0,1
99 12 m 1,23,-1
 62 -220 l 1,24,-1
 43 -220 l 1,25,-1
 163 535 l 2,26,27
 195 740 195 740 385 740 c 0,28,29
 470 740 470 740 515 692.5 c 128,-1,30
 560 645 560 645 548 570 c 0,31,32
 527 440 527 440 378 403 c 1,33,-1
 378 401 l 1,34,35
 554 368 554 368 529 210 c 0,36,37
 512 104 512 104 437.5 47 c 128,-1,38
 363 -10 363 -10 238 -10 c 0,39,40
 173 -10 173 -10 99 12 c 1,23,-1
EndSplineSet
EndChar

StartChar: gamma
Encoding: 947 947 625
Width: 530
Flags: W
LayerCount: 2
Fore
SplineSet
276 60 m 1,0,1
 362 258 362 258 554 520 c 1,2,-1
 575 520 l 1,3,4
 359 228 359 228 278 20 c 1,5,-1
 240 -220 l 1,6,-1
 221 -220 l 1,7,-1
 259 20 l 1,8,9
 243 228 243 228 120 520 c 1,10,-1
 142 520 l 1,11,12
 251 258 251 258 274 60 c 1,13,-1
 276 60 l 1,0,1
EndSplineSet
EndChar

StartChar: delta
Encoding: 948 948 626
Width: 529
Flags: W
LayerCount: 2
Fore
SplineSet
333 511 m 0,0,1
 243 507 243 507 181.5 439.5 c 128,-1,2
 120 372 120 372 102 260 c 0,3,4
 84 144 84 144 127.5 77 c 128,-1,5
 171 10 171 10 266 10 c 128,-1,6
 361 10 361 10 426.5 77 c 128,-1,7
 492 144 492 144 510 260 c 0,8,9
 547 495 547 495 345 510 c 0,10,11
 343 510 343 510 339 510.5 c 128,-1,12
 335 511 335 511 333 511 c 0,0,1
281 520 m 1,13,14
 186 546 186 546 198 630 c 0,15,16
 206 679 206 679 255 709.5 c 128,-1,17
 304 740 304 740 382 740 c 0,18,19
 465 740 465 740 537 700 c 1,20,-1
 526 682 l 1,21,22
 456 720 456 720 379 720 c 0,23,24
 309 720 309 720 266 694.5 c 128,-1,25
 223 669 223 669 217 630 c 0,26,27
 203 541 203 541 349 530 c 0,28,29
 457 522 457 522 503 453.5 c 128,-1,30
 549 385 549 385 529 260 c 128,-1,31
 509 135 509 135 438 62.5 c 128,-1,32
 367 -10 367 -10 263.5 -10 c 128,-1,33
 160 -10 160 -10 111.5 62.5 c 128,-1,34
 63 135 63 135 83 260 c 0,35,36
 99 363 99 363 151.5 431 c 128,-1,37
 204 499 204 499 281 520 c 1,13,14
EndSplineSet
EndChar

StartChar: epsilon
Encoding: 949 949 627
Width: 476
Flags: W
LayerCount: 2
Fore
SplineSet
235 284 m 1,0,-1
 236 286 l 1,1,2
 169 301 169 301 141.5 333.5 c 128,-1,3
 114 366 114 366 120 405 c 0,4,5
 129 464 129 464 188.5 497 c 128,-1,6
 248 530 248 530 344 530 c 0,7,8
 432 530 432 530 503 494 c 1,9,-1
 493 476 l 1,10,11
 423 510 423 510 341 510 c 0,12,13
 254 510 254 510 200.5 482 c 128,-1,14
 147 454 147 454 139 405 c 0,15,16
 131 354 131 354 186 324.5 c 128,-1,17
 241 295 241 295 345 295 c 2,18,-1
 392 295 l 1,19,-1
 389 275 l 1,20,-1
 341 275 l 2,21,22
 227 275 227 275 162.5 240.5 c 128,-1,23
 98 206 98 206 87 140 c 0,24,25
 77 77 77 77 122 43.5 c 128,-1,26
 167 10 167 10 261 10 c 0,27,28
 345 10 345 10 429 44 c 1,29,-1
 434 26 l 1,30,31
 344 -10 344 -10 258 -10 c 0,32,33
 156 -10 156 -10 106.5 29.5 c 128,-1,34
 57 69 57 69 69 140 c 0,35,36
 73 168 73 168 86 193 c 128,-1,37
 99 218 99 218 137.5 245 c 128,-1,38
 176 272 176 272 235 284 c 1,0,-1
EndSplineSet
EndChar

